<svg width="50" height="38" viewBox="0 0 50 38" fill="none" xmlns="http://www.w3.org/2000/svg">
<g clip-path="url(#clip0_209_1097)">
<path d="M11.7266 0H38.2656V37.5H11.7188L11.7266 0Z" fill="white"/>
<path d="M-1.53906 0H11.7266V37.5H-1.53906V0ZM38.2656 0H51.5312V37.5H38.2734L38.2656 0ZM15.7031 18.125L14.6641 18.4688L19.4609 22.6875C19.8281 23.7578 19.3359 24.0781 19.0234 24.6406L24.2266 23.9844L24.1016 29.2188L25.1875 29.1953L24.9453 23.9922L30.1562 24.6172C29.8359 23.9375 29.5469 23.5781 29.8438 22.4922L34.6328 18.5078L33.7969 18.1953C33.1094 17.6641 34.0938 15.6484 34.2344 14.375C34.2344 14.375 31.4453 15.3359 31.2656 14.8281L30.5469 13.4609L28 16.2578C27.7266 16.3281 27.6094 16.2188 27.5391 15.9844L28.7109 10.1406L26.8516 11.1875C26.6953 11.2578 26.5391 11.1953 26.4453 11.0156L24.6484 7.42188L22.8047 11.1562C22.6641 11.2891 22.5234 11.3047 22.4141 11.2109L20.625 10.2188L21.6953 16.0078C21.6094 16.2422 21.4062 16.3047 21.1719 16.1797L18.7344 13.4219C18.4219 13.9297 18.2031 14.7578 17.7812 14.9453C17.3594 15.125 15.9453 14.5938 15 14.3984C15.3281 15.5547 16.3281 17.4922 15.7031 18.125Z" fill="#D52B1E"/>
</g>
<defs>
<clipPath id="clip0_209_1097">
<rect width="50" height="37.5" fill="white"/>
</clipPath>
</defs>
</svg>
