<svg width="100" height="75" viewBox="0 0 100 75" fill="none" xmlns="http://www.w3.org/2000/svg">
<g clip-path="url(#clip0_730_164)">
<path d="M0 0H100V25H0V0Z" fill="#FF9933"/>
<path d="M0 25H100V50H0V25Z" fill="white"/>
<path d="M0 50H100V75H0V50Z" fill="#128807"/>
<path d="M50 47.5C55.5228 47.5 60 43.0228 60 37.5C60 31.9772 55.5228 27.5 50 27.5C44.4772 27.5 40 31.9772 40 37.5C40 43.0228 44.4772 47.5 50 47.5Z" fill="#000088"/>
<path d="M50 46.25C54.8325 46.25 58.75 42.3325 58.75 37.5C58.75 32.6675 54.8325 28.75 50 28.75C45.1675 28.75 41.25 32.6675 41.25 37.5C41.25 42.3325 45.1675 46.25 50 46.25Z" fill="white"/>
<path d="M50 39.25C50.9665 39.25 51.75 38.4665 51.75 37.5C51.75 36.5335 50.9665 35.75 50 35.75C49.0335 35.75 48.25 36.5335 48.25 37.5C48.25 38.4665 49.0335 39.25 50 39.25Z" fill="#000088"/>
<path d="M58.6163 39.0915C58.8627 39.124 59.0887 38.9505 59.1212 38.7041C59.1536 38.4577 58.9801 38.2317 58.7337 38.1992C58.4873 38.1668 58.2613 38.3403 58.2289 38.5867C58.1964 38.8331 58.3699 39.0591 58.6163 39.0915Z" fill="#000088"/>
<path d="M50 46.25L50.3 41L50 38.5L49.7 41L50 46.25Z" fill="#000088"/>
<path d="M57.9107 41.2674C58.1403 41.3625 58.4035 41.2534 58.4986 41.0238C58.5937 40.7942 58.4847 40.531 58.2551 40.4359C58.0255 40.3408 57.7623 40.4498 57.6671 40.6794C57.572 40.909 57.6811 41.1723 57.9107 41.2674Z" fill="#000088"/>
<path d="M47.7353 45.9519L49.3839 40.9584L49.7412 38.466L48.8044 40.8031L47.7353 45.9519Z" fill="#000088"/>
<path d="M56.6658 43.1864C56.863 43.3377 57.1455 43.3006 57.2968 43.1034C57.4481 42.9062 57.4109 42.6237 57.2137 42.4724C57.0165 42.3211 56.734 42.3583 56.5827 42.5555C56.4315 42.7527 56.4686 43.0352 56.6658 43.1864Z" fill="#000088"/>
<path d="M45.6248 45.0778L48.5096 40.6811L49.4998 38.3661L47.99 40.3811L45.6248 45.0778Z" fill="#000088"/>
<path d="M54.9669 44.7179C55.1182 44.9151 55.4007 44.9522 55.5979 44.8009C55.795 44.6497 55.8322 44.3672 55.6809 44.17C55.5296 43.9728 55.2471 43.9356 55.05 44.0869C54.8528 44.2382 54.8156 44.5207 54.9669 44.7179Z" fill="#000088"/>
<path d="M43.8126 43.6872L47.7371 40.187L49.2927 38.2071L47.3128 39.7628L43.8126 43.6872Z" fill="#000088"/>
<path d="M52.9296 45.7576C53.0247 45.9872 53.2879 46.0962 53.5175 46.0011C53.7471 45.906 53.8562 45.6428 53.7611 45.4132C53.666 45.1836 53.4027 45.0745 53.1731 45.1696C52.9435 45.2648 52.8345 45.528 52.9296 45.7576Z" fill="#000088"/>
<path d="M42.4222 41.875L47.1188 39.5098L49.1339 38L46.8188 38.9902L42.4222 41.875Z" fill="#000088"/>
<path d="M50.6928 46.2345C50.7252 46.4809 50.9513 46.6544 51.1977 46.6219C51.4441 46.5895 51.6175 46.3635 51.5851 46.117C51.5527 45.8706 51.3266 45.6972 51.0802 45.7296C50.8338 45.7621 50.6604 45.9881 50.6928 46.2345Z" fill="#000088"/>
<path d="M41.5483 39.7646L46.697 38.6956L49.0342 37.7588L46.5417 38.116L41.5483 39.7646Z" fill="#000088"/>
<path d="M48.4086 46.1162C48.3761 46.3626 48.5496 46.5886 48.796 46.621C49.0424 46.6535 49.2684 46.48 49.3009 46.2336C49.3333 45.9872 49.1599 45.7612 48.9135 45.7287C48.6671 45.6963 48.441 45.8698 48.4086 46.1162Z" fill="#000088"/>
<path d="M41.25 37.5L46.5 37.8L49 37.5L46.5 37.2L41.25 37.5Z" fill="#000088"/>
<path d="M46.2326 45.4107C46.1375 45.6403 46.2466 45.9035 46.4762 45.9986C46.7058 46.0937 46.969 45.9847 47.0641 45.7551C47.1592 45.5255 47.0502 45.2623 46.8206 45.1671C46.591 45.072 46.3277 45.1811 46.2326 45.4107Z" fill="#000088"/>
<path d="M41.5482 35.2353L46.5417 36.8839L49.0342 37.2412L46.697 36.3044L41.5482 35.2353Z" fill="#000088"/>
<path d="M44.3138 44.1662C44.1625 44.3634 44.1997 44.6458 44.3969 44.7971C44.594 44.9484 44.8765 44.9112 45.0278 44.7141C45.1791 44.5169 45.1419 44.2344 44.9447 44.0831C44.7476 43.9318 44.4651 43.969 44.3138 44.1662Z" fill="#000088"/>
<path d="M42.4225 33.125L46.8191 36.0098L49.1342 37L47.1191 35.4902L42.4225 33.125Z" fill="#000088"/>
<path d="M42.7821 42.4673C42.5849 42.6186 42.5478 42.9011 42.6991 43.0982C42.8503 43.2954 43.1328 43.3326 43.33 43.1813C43.5272 43.03 43.5644 42.7475 43.4131 42.5503C43.2618 42.3532 42.9793 42.316 42.7821 42.4673Z" fill="#000088"/>
<path d="M43.8129 31.3129L47.3131 35.2373L49.293 36.7929L47.7374 34.813L43.8129 31.3129Z" fill="#000088"/>
<path d="M41.7423 40.4301C41.5127 40.5252 41.4036 40.7884 41.4987 41.018C41.5938 41.2476 41.8571 41.3567 42.0867 41.2616C42.3163 41.1665 42.4253 40.9032 42.3302 40.6736C42.2351 40.444 41.9719 40.335 41.7423 40.4301Z" fill="#000088"/>
<path d="M45.625 29.9224L47.9902 34.6191L49.5 36.6341L48.5098 34.3191L45.625 29.9224Z" fill="#000088"/>
<path d="M41.2655 38.1929C41.0191 38.2254 40.8456 38.4514 40.8781 38.6978C40.9105 38.9442 41.1365 39.1177 41.383 39.0852C41.6294 39.0528 41.8028 38.8267 41.7704 38.5803C41.7379 38.3339 41.5119 38.1605 41.2655 38.1929Z" fill="#000088"/>
<path d="M47.7354 29.0483L48.8044 34.197L49.7412 36.5342L49.384 34.0417L47.7354 29.0483Z" fill="#000088"/>
<path d="M41.3835 35.9085C41.1371 35.876 40.911 36.0495 40.8786 36.2959C40.8462 36.5423 41.0196 36.7683 41.266 36.8008C41.5124 36.8332 41.7385 36.6597 41.7709 36.4133C41.8033 36.1669 41.6299 35.9409 41.3835 35.9085Z" fill="#000088"/>
<path d="M49.9998 28.75L49.6998 34L49.9998 36.5L50.2998 34L49.9998 28.75Z" fill="#000088"/>
<path d="M42.0891 33.7326C41.8595 33.6375 41.5962 33.7466 41.5011 33.9762C41.406 34.2058 41.515 34.469 41.7447 34.5641C41.9743 34.6592 42.2375 34.5502 42.3326 34.3206C42.4277 34.091 42.3187 33.8277 42.0891 33.7326Z" fill="#000088"/>
<path d="M52.2644 29.0481L50.6158 34.0416L50.2586 36.534L51.1954 34.1969L52.2644 29.0481Z" fill="#000088"/>
<path d="M43.3339 31.8136C43.1368 31.6623 42.8543 31.6994 42.703 31.8966C42.5517 32.0938 42.5889 32.3763 42.7861 32.5276C42.9832 32.6789 43.2657 32.6417 43.417 32.4445C43.5683 32.2473 43.5311 31.9648 43.3339 31.8136Z" fill="#000088"/>
<path d="M54.375 29.9222L51.4902 34.3189L50.5 36.6339L52.0098 34.6189L54.375 29.9222Z" fill="#000088"/>
<path d="M45.0328 30.2821C44.8816 30.0849 44.5991 30.0478 44.4019 30.1991C44.2047 30.3503 44.1675 30.6328 44.3188 30.83C44.4701 31.0272 44.7526 31.0644 44.9498 30.9131C45.147 30.7618 45.1841 30.4793 45.0328 30.2821Z" fill="#000088"/>
<path d="M56.1871 31.3128L52.2627 34.813L50.7071 36.7929L52.687 35.2372L56.1871 31.3128Z" fill="#000088"/>
<path d="M47.0704 29.2424C46.9753 29.0128 46.7121 28.9038 46.4825 28.9989C46.2529 29.094 46.1438 29.3572 46.2389 29.5868C46.334 29.8164 46.5973 29.9255 46.8269 29.8304C47.0565 29.7352 47.1655 29.472 47.0704 29.2424Z" fill="#000088"/>
<path d="M57.5778 33.125L52.8812 35.4902L50.8661 37L53.1812 36.0098L57.5778 33.125Z" fill="#000088"/>
<path d="M49.3072 28.7655C49.2748 28.5191 49.0487 28.3456 48.8023 28.3781C48.5559 28.4105 48.3825 28.6365 48.4149 28.883C48.4473 29.1294 48.6734 29.3028 48.9198 29.2704C49.1662 29.2379 49.3396 29.0119 49.3072 28.7655Z" fill="#000088"/>
<path d="M58.4517 35.2354L53.303 36.3044L50.9658 37.2412L53.4583 36.884L58.4517 35.2354Z" fill="#000088"/>
<path d="M51.5914 28.8838C51.6239 28.6374 51.4504 28.4114 51.204 28.379C50.9576 28.3465 50.7316 28.52 50.6991 28.7664C50.6667 29.0128 50.8401 29.2388 51.0865 29.2713C51.3329 29.3037 51.559 29.1302 51.5914 28.8838Z" fill="#000088"/>
<path d="M58.75 37.5L53.5 37.2L51 37.5L53.5 37.8L58.75 37.5Z" fill="#000088"/>
<path d="M53.7674 29.5893C53.8625 29.3597 53.7534 29.0965 53.5238 29.0014C53.2942 28.9063 53.031 29.0153 52.9359 29.2449C52.8408 29.4745 52.9498 29.7377 53.1794 29.8329C53.409 29.928 53.6723 29.8189 53.7674 29.5893Z" fill="#000088"/>
<path d="M58.4518 39.7647L53.4583 38.1161L50.9658 37.7588L53.303 38.6956L58.4518 39.7647Z" fill="#000088"/>
<path d="M55.6862 30.8339C55.8375 30.6368 55.8003 30.3543 55.6031 30.203C55.406 30.0517 55.1235 30.0889 54.9722 30.2861C54.8209 30.4832 54.8581 30.7657 55.0553 30.917C55.2524 31.0683 55.5349 31.0311 55.6862 30.8339Z" fill="#000088"/>
<path d="M57.5775 41.8751L53.1809 38.9903L50.8658 38.0001L52.8809 39.5099L57.5775 41.8751Z" fill="#000088"/>
<path d="M57.2179 32.5328C57.4151 32.3816 57.4522 32.0991 57.3009 31.9019C57.1497 31.7047 56.8672 31.6675 56.67 31.8188C56.4728 31.9701 56.4356 32.2526 56.5869 32.4498C56.7382 32.647 57.0207 32.6841 57.2179 32.5328Z" fill="#000088"/>
<path d="M56.1871 43.6873L52.6869 39.7628L50.707 38.2072L52.2626 40.1871L56.1871 43.6873Z" fill="#000088"/>
<path d="M58.2577 34.5701C58.4873 34.4749 58.5964 34.2117 58.5013 33.9821C58.4062 33.7525 58.1429 33.6435 57.9133 33.7386C57.6837 33.8337 57.5747 34.0969 57.6698 34.3265C57.7649 34.5561 58.0281 34.6652 58.2577 34.5701Z" fill="#000088"/>
<path d="M54.375 45.0777L52.0098 40.3811L50.5 38.366L51.4902 40.6811L54.375 45.0777Z" fill="#000088"/>
<path d="M58.7345 36.8072C58.9809 36.7748 59.1544 36.5487 59.1219 36.3023C59.0895 36.0559 58.8635 35.8825 58.617 35.9149C58.3706 35.9473 58.1972 36.1734 58.2296 36.4198C58.2621 36.6662 58.4881 36.8396 58.7345 36.8072Z" fill="#000088"/>
<path d="M52.2646 45.9519L51.1956 40.8031L50.2588 38.4659L50.616 40.9584L52.2646 45.9519Z" fill="#000088"/>
</g>
<defs>
<clipPath id="clip0_730_164">
<rect width="100" height="75" fill="white"/>
</clipPath>
</defs>
</svg>
