<svg width="100" height="75" viewBox="0 0 100 75" fill="none" xmlns="http://www.w3.org/2000/svg">
<g clip-path="url(#clip0_730_319)">
<path d="M23.4531 0H76.5312V75H23.4375L23.4531 0Z" fill="white"/>
<path d="M-3.07812 0H23.4531V75H-3.07812V0ZM76.5312 0H103.062V75H76.5469L76.5312 0ZM31.4062 36.25L29.3281 36.9375L38.9219 45.375C39.6563 47.5156 38.6719 48.1562 38.0469 49.2812L48.4531 47.9688L48.2031 58.4375L50.375 58.3906L49.8906 47.9844L60.3125 49.2344C59.6719 47.875 59.0938 47.1562 59.6875 44.9844L69.2656 37.0156L67.5938 36.3906C66.2188 35.3281 68.1875 31.2969 68.4688 28.75C68.4688 28.75 62.8906 30.6719 62.5313 29.6563L61.0938 26.9219L56 32.5156C55.4531 32.6563 55.2188 32.4375 55.0781 31.9688L57.4219 20.2813L53.7031 22.375C53.3906 22.5156 53.0781 22.3906 52.8906 22.0312L49.2969 14.8438L45.6094 22.3125C45.3281 22.5781 45.0469 22.6094 44.8281 22.4219L41.25 20.4375L43.3906 32.0156C43.2188 32.4844 42.8125 32.6094 42.3438 32.3594L37.4688 26.8438C36.8438 27.8594 36.4063 29.5156 35.5625 29.8906C34.7188 30.25 31.8906 29.1875 30 28.7969C30.6562 31.1094 32.6562 34.9844 31.4062 36.25Z" fill="#D52B1E"/>
</g>
<defs>
<clipPath id="clip0_730_319">
<rect width="100" height="75" fill="white"/>
</clipPath>
</defs>
</svg>
