<svg width="100" height="100" viewBox="0 0 100 100" fill="none" xmlns="http://www.w3.org/2000/svg">
<path d="M100 56.25H79.1664V52.0836H95.8336V50C95.8336 24.7398 75.2602 4.16641 50 4.16641C24.7398 4.16641 4.16641 24.7398 4.16641 50V52.0836H20.8336V56.25H0V50C0 22.4219 22.4219 0 50 0C77.5781 0 100 22.4219 100 50V56.25Z" fill="white"/>
<path d="M47.9165 2.08362H52.0836V14.5836H47.9165V2.08362ZM15.5717 16.7871L25.6624 26.8776L22.7167 29.824L12.6252 19.7334L15.5717 16.7871ZM84.4323 16.7901L87.3788 19.7365L77.2874 29.8272L74.3417 26.8807L84.4323 16.7901ZM50.5989 64.5836C44.5313 64.5836 39.5836 59.6352 39.5836 53.5676C39.5836 49.3492 42.0571 45.443 45.8596 43.6196L73.9846 30.2086L60.5729 58.3336C58.7502 62.1094 54.844 64.5836 50.5989 64.5836ZM65.1567 39.0106L47.6563 47.3701C45.2866 48.4893 43.7501 50.9377 43.7501 53.5674C43.7501 57.3442 46.8231 60.4164 50.5989 60.4164C53.2297 60.4164 55.6512 58.8799 56.7971 56.5102L65.1567 39.0106Z" fill="white"/>
</svg>
