<svg width="100" height="100" viewBox="0 0 100 100" fill="none" xmlns="http://www.w3.org/2000/svg">
<path d="M86.1483 26.2795C85.2937 26.2794 84.4582 26.5327 83.7475 27.0074C83.0367 27.4821 82.4828 28.1569 82.1556 28.9465C81.8284 29.736 81.7428 30.6049 81.9094 31.4431C82.076 32.2814 82.4875 33.0514 83.0918 33.6558C83.6961 34.2602 84.466 34.6718 85.3043 34.8386C86.1425 35.0054 87.0114 34.9199 87.801 34.5929C88.5906 34.2658 89.2655 33.712 89.7404 33.0014C90.2152 32.2907 90.4687 31.4553 90.4687 30.6006C90.4675 29.4551 90.0119 28.3568 89.202 27.5467C88.3921 26.7366 87.2939 26.2809 86.1483 26.2795ZM86.1483 32.578C85.7572 32.5781 85.3748 32.4623 85.0496 32.2451C84.7243 32.0279 84.4707 31.7191 84.321 31.3579C84.1712 30.9966 84.1319 30.5989 84.2081 30.2153C84.2843 29.8317 84.4726 29.4793 84.7491 29.2027C85.0256 28.9261 85.3779 28.7377 85.7615 28.6613C86.1451 28.585 86.5427 28.6241 86.9041 28.7737C87.2654 28.9233 87.5743 29.1768 87.7916 29.502C88.0089 29.8272 88.1249 30.2095 88.1249 30.6006C88.1245 31.1248 87.9161 31.6274 87.5456 31.9981C87.175 32.3689 86.6725 32.5775 86.1483 32.5782V32.578ZM35.9335 15.6957C36.9403 15.6962 37.9247 15.398 38.7621 14.8389C39.5994 14.2799 40.2522 13.485 40.6378 12.5549C41.0234 11.6249 41.1245 10.6013 40.9283 9.61376C40.7322 8.62621 40.2475 7.71901 39.5357 7.00692C38.8239 6.29482 37.917 5.80981 36.9295 5.61323C35.942 5.41664 34.9184 5.51732 33.9882 5.90253C33.0579 6.28773 32.2628 6.94016 31.7034 7.77729C31.144 8.61442 30.8454 9.59865 30.8454 10.6055C30.8466 11.9548 31.383 13.2485 32.3369 14.2028C33.2907 15.157 34.5842 15.694 35.9335 15.6957ZM35.9335 7.85901C36.4768 7.85859 37.008 8.0193 37.4599 8.32083C37.9119 8.62236 38.2642 9.05115 38.4725 9.55297C38.6807 10.0548 38.7353 10.6071 38.6296 11.14C38.5239 11.6729 38.2625 12.1625 37.8785 12.5468C37.4944 12.9311 37.0051 13.1929 36.4722 13.299C35.9394 13.4052 35.3871 13.3509 34.8851 13.1431C34.3831 12.9353 33.9541 12.5833 33.6522 12.1316C33.3503 11.6799 33.1892 11.1488 33.1892 10.6055C33.1897 9.87761 33.4789 9.17966 33.9934 8.66477C34.5079 8.14987 35.2056 7.8601 35.9335 7.85901ZM55.6056 45.2762C55.6051 44.27 55.3064 43.2864 54.747 42.45C54.1877 41.6135 53.3929 40.9617 52.4631 40.577C51.5334 40.1922 50.5104 40.0917 49.5235 40.2883C48.5367 40.4849 47.6303 40.9696 46.9189 41.6813C46.2075 42.393 45.7232 43.2996 45.527 44.2865C45.3309 45.2734 45.4317 46.2964 45.8169 47.226C46.2021 48.1556 46.8542 48.9501 47.6909 49.5091C48.5276 50.0681 49.5112 50.3664 50.5175 50.3664C51.8667 50.3646 53.1602 49.8277 54.1141 48.8734C55.0679 47.9191 55.6043 46.6255 55.6056 45.2762ZM50.5175 48.0227C49.9742 48.0231 49.443 47.8624 48.991 47.5609C48.5391 47.2593 48.1867 46.8305 47.9785 46.3287C47.7703 45.8269 47.7156 45.2746 47.8214 44.7417C47.9271 44.2088 48.1885 43.7192 48.5725 43.3349C48.9565 42.9506 49.4459 42.6888 49.9787 42.5826C50.5116 42.4765 51.0639 42.5308 51.5659 42.7386C52.0679 42.9464 52.4969 43.2984 52.7988 43.7501C53.1007 44.2018 53.2618 44.7329 53.2618 45.2762C53.2613 46.0041 52.972 46.7022 52.4574 47.2171C51.9429 47.732 51.245 48.0217 50.5171 48.0227H50.5175ZM16.9226 31.5973C17.9294 31.5977 18.9138 31.2995 19.7511 30.7405C20.5885 30.1814 21.2413 29.3866 21.6269 28.4565C22.0125 27.5264 22.1136 26.5029 21.9174 25.5153C21.7212 24.5278 21.2366 23.6206 20.5248 22.9085C19.813 22.1964 18.906 21.7114 17.9186 21.5148C16.9311 21.3182 15.9075 21.4189 14.9773 21.8041C14.047 22.1893 13.2519 22.8417 12.6925 23.6789C12.1331 24.516 11.8345 25.5002 11.8345 26.5071C11.8357 27.8563 12.3721 29.15 13.326 30.1043C14.2798 31.0585 15.5733 31.5955 16.9226 31.5973ZM16.9226 23.7606C17.4659 23.7601 17.9971 23.9209 18.449 24.2224C18.9009 24.5239 19.2533 24.9527 19.4615 25.4545C19.6697 25.9563 19.7244 26.5086 19.6187 27.0416C19.5129 27.5745 19.2515 28.064 18.8675 28.4484C18.4835 28.8327 17.9941 29.0945 17.4613 29.2006C16.9285 29.3068 16.3761 29.2525 15.8742 29.0447C15.3722 28.8369 14.9431 28.4848 14.6412 28.0331C14.3394 27.5814 14.1782 27.0504 14.1782 26.5071C14.1787 25.7792 14.468 25.0812 14.9825 24.5663C15.4969 24.0514 16.1947 23.7617 16.9226 23.7606Z" fill="white"/>
<path d="M93.5392 30.3125C93.2878 26.4453 90.1282 23.4166 86.3462 23.4166C84.5984 23.4203 82.9136 24.0698 81.6157 25.2404C77.7755 21.4891 72.9812 18.2578 67.6739 15.8559C61.656 13.1322 55.3993 11.6926 49.5808 11.6926C47.9757 11.7072 46.3726 11.8067 44.778 11.9906C44.8579 11.4193 44.8791 10.8413 44.8413 10.2656C44.5382 5.6043 40.7335 1.95312 36.1796 1.95312C31.6257 1.95312 27.8202 5.6043 27.5179 10.2637C27.4093 12.3962 28.052 14.4994 29.3343 16.2068L29.5763 16.5305C27.4321 17.7437 25.3662 19.0904 23.3907 20.5625C22.5928 19.711 21.6292 19.0315 20.5591 18.5659C19.489 18.1002 18.3351 17.8582 17.1681 17.8547C12.614 17.8547 8.80869 21.507 8.50654 26.1652C8.39804 28.2978 9.0408 30.401 10.3229 32.1086L11.72 33.977C8.40947 40.3438 6.44541 48.0965 6.44541 54.8697C6.43334 60.5421 7.54016 66.1611 9.70252 71.4052C11.8649 76.6492 15.0403 81.4153 19.047 85.4305C23.0537 89.4457 27.813 92.6313 33.0524 94.8048C38.2918 96.9783 43.9085 98.0971 49.5809 98.0971C55.2532 98.0971 60.8699 96.9783 66.1093 94.8048C71.3487 92.6313 76.108 89.4457 80.1147 85.4305C84.1214 81.4153 87.2969 76.6492 89.4592 71.4052C91.6216 66.1611 92.7284 60.5421 92.7163 54.8697C92.7163 50.0623 91.4919 42.8527 89.8927 38.1029L92.0327 35.2416C93.1083 33.8317 93.6428 32.0828 93.5392 30.3125ZM29.8565 10.4176C30.0519 7.40977 32.4708 4.29688 36.1796 4.29688C39.8884 4.29688 42.3067 7.40898 42.5026 10.4207C42.5897 11.9967 42.109 13.5516 41.1478 14.8035L36.1796 21.449L31.2198 14.815C30.2658 13.5534 29.7835 11.9976 29.8565 10.4176ZM10.8458 26.3191C11.0411 23.3113 13.4599 20.1984 17.1687 20.1984C20.8774 20.1984 23.296 23.3105 23.4917 26.3225C23.5789 27.8984 23.0982 29.4533 22.1368 30.7051L17.1681 37.3506L12.2089 30.7166C11.2549 29.455 10.7727 27.8992 10.8458 26.3191ZM13.2915 36.0789L16.2306 40.0094C16.3397 40.1553 16.4813 40.2738 16.6443 40.3554C16.8072 40.4371 16.9869 40.4796 17.1691 40.4796C17.3514 40.4796 17.5311 40.4371 17.694 40.3554C17.857 40.2738 17.9986 40.1553 18.1077 40.0094L24.0132 32.1094C25.059 30.7465 25.6868 29.1094 25.8204 27.3968C25.9539 25.6841 25.5876 23.9695 24.7657 22.4609C26.7508 20.9804 28.8313 19.6324 30.9939 18.4258L35.2413 24.107C35.3504 24.253 35.4921 24.3715 35.655 24.4531C35.8179 24.5347 35.9977 24.5772 36.1799 24.5772C36.3621 24.5772 36.5418 24.5347 36.7048 24.4531C36.8677 24.3715 37.0093 24.253 37.1185 24.107L43.0243 16.2072C43.437 15.6572 43.788 15.0635 44.071 14.4367C44.5579 14.3744 45.0444 14.3162 45.5241 14.2676L50.446 21.3684C51.0162 22.1874 51.3101 23.1671 51.285 24.1647C51.2598 25.1624 50.9169 26.126 50.3062 26.9152L48.9159 28.7205C48.5768 29.1593 48.129 29.5021 47.6169 29.715C47.1048 29.9279 46.5461 30.0036 45.9958 29.9346L44.4189 29.733C43.3077 29.5904 42.1791 29.7776 41.1734 30.2714C40.1678 30.7651 39.3295 31.5436 38.7628 32.51C38.4436 33.0543 37.9715 33.4929 37.4052 33.7713C36.8388 34.0496 36.2032 34.1555 35.5772 34.0758L31.9362 33.6129C30.8472 33.4713 29.7403 33.636 28.7398 34.0887C27.7392 34.5414 26.8847 35.2641 26.2722 36.1756C25.699 37.0223 25.3853 38.0179 25.3696 39.0403C25.3538 40.0627 25.6367 41.0674 26.1835 41.9314L28.5888 45.7332C29.0321 46.4297 29.6442 47.0029 30.3683 47.3996C31.0924 47.7962 31.905 48.0034 32.7306 48.002C33.5304 48.0026 34.318 47.805 35.0228 47.4268L37.4993 46.0986C38.7126 45.448 40.6829 45.4416 42.103 46.0268C42.2386 47.7819 42.8675 49.463 43.9173 50.8762L49.8243 58.7785C49.9334 58.9245 50.0751 59.043 50.238 59.1246C50.4009 59.2062 50.5807 59.2487 50.7629 59.2487C50.9451 59.2487 51.1248 59.2062 51.2878 59.1246C51.4507 59.043 51.5924 58.9245 51.7015 58.7785L54.6974 54.7711L55.0782 55.293C55.2405 55.5193 55.412 55.7389 55.5923 55.9512L58.6001 59.4938C58.7341 59.6516 58.8347 59.8351 58.8958 60.033C58.9568 60.2309 58.977 60.4392 58.9552 60.6451C58.9334 60.8511 58.87 61.0504 58.7688 61.2312C58.6677 61.4119 58.5309 61.5702 58.3667 61.6965L53.8087 65.2014C52.5956 66.1305 51.7032 67.4154 51.2562 68.8766L49.7368 73.8086C49.6175 74.1976 49.422 74.559 49.1618 74.8719L47.6835 76.6516C46.5823 77.9747 45.9005 79.5961 45.7253 81.3086C45.6825 81.725 45.5284 82.1223 45.2791 82.4586C45.0299 82.7949 44.6947 83.058 44.3087 83.2201C44.1469 83.2878 43.9719 83.3181 43.7968 83.3085C43.6216 83.299 43.4509 83.25 43.2974 83.1651C43.144 83.0802 43.0117 82.9616 42.9105 82.8183C42.8094 82.6751 42.742 82.5107 42.7134 82.3377L41.3208 73.9746C41.1469 72.9353 40.7228 71.9539 40.0849 71.1152L34.9831 64.4197C34.5247 63.8192 34.1858 63.1363 33.9847 62.408L32.3009 56.3281C32.0032 55.2629 31.4351 54.2927 30.6517 53.5119C29.8683 52.7311 28.8962 52.1662 27.83 51.8721L27.464 51.7723C26.7233 51.5693 26.0436 51.1881 25.4843 50.6619L22.3438 47.7021C21.8436 47.231 21.4145 46.6898 21.0698 46.0953C20.339 44.8353 19.2329 43.835 17.9061 43.234C16.5792 42.6331 15.0977 42.4616 13.6687 42.7434C13.6229 42.7523 13.5777 42.7641 13.5333 42.7785L10.3866 43.8021C11.1207 41.1456 12.093 38.5607 13.2915 36.0789ZM44.4403 45.0883C44.6356 42.0805 47.0544 38.9676 50.7632 38.9676C54.472 38.9676 56.8905 42.0797 57.0862 45.0916C57.1734 46.6675 56.6927 48.2225 55.7314 49.4742L50.7632 56.1197L45.8034 49.4857C44.8494 48.2241 44.3672 46.6683 44.4403 45.0883ZM90.3726 54.8697C90.3726 77.3854 72.0733 95.7031 49.5808 95.7031C27.0882 95.7031 8.78916 77.3854 8.78916 54.8697C8.80829 52.0483 9.12303 49.2367 9.72822 46.4809L14.1878 45.0303C15.1294 44.8586 16.101 44.9817 16.97 45.3828C17.839 45.7839 18.563 46.4435 19.0431 47.2715C19.5015 48.0619 20.0721 48.7817 20.7372 49.4082L23.8778 52.367C24.7171 53.1561 25.7367 53.7279 26.8478 54.0324L27.2138 54.132C27.8884 54.3185 28.5034 54.6762 28.999 55.1705C29.4946 55.6649 29.8539 56.2789 30.0421 56.9531L31.7259 63.034C32.0064 64.0502 32.4792 65.0032 33.1188 65.8412L38.2206 72.5369C38.6275 73.0719 38.898 73.6978 39.0089 74.3607L40.4015 82.7238C40.4873 83.2461 40.6904 83.7422 40.9956 84.1746C41.3007 84.6071 41.7 84.9647 42.1634 85.2205C42.6268 85.4764 43.1421 85.6238 43.6707 85.6517C44.1992 85.6796 44.7272 85.5873 45.2149 85.3816C45.9889 85.0569 46.661 84.5297 47.1609 83.8555C47.6608 83.1813 47.9699 82.3849 48.0558 81.55C48.1837 80.2994 48.6815 79.1153 49.4856 78.149L50.964 76.3693C51.422 75.8189 51.7661 75.1829 51.9761 74.4982L53.4948 69.5662C53.7997 68.5698 54.4082 67.6935 55.2355 67.0598L59.7954 63.5547C60.2112 63.235 60.5578 62.8342 60.8141 62.3765C61.0703 61.9189 61.231 61.414 61.2863 60.8924C61.3416 60.3708 61.2904 59.8434 61.1359 59.3422C60.9813 58.841 60.7265 58.3764 60.387 57.9766L57.3792 54.434C57.2386 54.2683 57.1049 54.0968 56.9784 53.9201L56.1665 52.8068L57.6081 50.8787C58.9048 49.1789 59.5492 47.0706 59.4245 44.9363C59.1216 40.275 55.3169 36.6238 50.7628 36.6238C46.6476 36.6238 43.1456 39.6057 42.2845 43.6182C40.3378 43.0443 38.0071 43.1689 36.3919 44.0346L33.9153 45.3627C33.3491 45.6637 32.6902 45.7401 32.07 45.5768C31.4499 45.4134 30.9142 45.0223 30.5696 44.4814L28.1642 40.6795C27.8612 40.2008 27.7044 39.644 27.7131 39.0776C27.7218 38.5111 27.8956 37.9594 28.2132 37.4902C28.5838 36.9386 29.1009 36.5013 29.7064 36.2273C30.3118 35.9533 30.9817 35.8536 31.6407 35.9393L35.2817 36.402C36.3628 36.5402 37.4607 36.3576 38.4388 35.877C39.417 35.3964 40.2323 34.6389 40.7835 33.6986C41.1176 33.1278 41.6123 32.6679 42.2059 32.3762C42.7995 32.0845 43.4658 31.9738 44.1218 32.058L45.6985 32.2596C46.6548 32.3795 47.6257 32.2481 48.5156 31.8781C49.4055 31.5082 50.1835 30.9126 50.773 30.1502L52.1632 28.3449C53.0786 27.1622 53.5925 25.7182 53.6301 24.2232C53.6677 22.7281 53.2271 21.26 52.3724 20.0328L48.2364 14.0676C48.7105 14.048 49.1616 14.0363 49.5808 14.0363C55.069 14.0363 60.9909 15.4035 66.7075 17.9912C68.4985 18.804 70.2391 19.7236 71.9198 20.7451L68.7718 26.141C68.3205 26.9329 68.127 27.8456 68.218 28.7524C68.309 29.6593 68.68 30.5153 69.2796 31.2018C70.1842 32.2379 71.4394 32.9036 72.8046 33.0713L73.3755 33.1416C73.928 33.2101 74.4488 33.4375 74.8747 33.7962C75.3005 34.155 75.613 34.6296 75.7743 35.1625C75.9269 35.6688 75.9314 36.2082 75.7872 36.7169C75.6431 37.2257 75.3563 37.6826 74.9608 38.0336L69.3077 43.032C68.7347 43.5391 68.2759 44.162 67.9616 44.8596C67.6473 45.5572 67.4848 46.3136 67.4847 47.0787V48.4051C67.4829 49.1911 67.6789 49.9649 68.0548 50.6552C68.4306 51.3455 68.9741 51.9302 69.6353 52.3553C69.9639 52.5665 70.2405 52.8495 70.4441 53.183C70.6478 53.5165 70.7732 53.8918 70.811 54.2807L70.9433 55.6049C71.0468 56.677 71.5467 57.6718 72.345 58.3949C73.1433 59.1179 74.1826 59.5172 75.2597 59.5145H78.5685C79.9392 59.514 81.2801 59.1144 82.4275 58.3645C83.5749 57.6145 84.479 56.5466 85.0294 55.2912L85.2282 54.8379C85.423 54.3885 85.7405 54.003 86.1442 53.7257C86.548 53.4483 87.0216 53.2903 87.511 53.2697L88.2874 53.2346C88.4137 53.229 88.5398 53.2198 88.6655 53.207L90.3161 53.0408C90.3528 53.6828 90.3726 54.2969 90.3726 54.8697ZM90.1216 50.7031L88.4308 50.8732C88.3483 50.8816 88.2655 50.8875 88.1819 50.8914L87.4044 50.9268C86.4778 50.9656 85.5808 51.2647 84.8163 51.7898C84.0518 52.3148 83.4507 53.0446 83.0817 53.8955L82.8829 54.3488C82.5154 55.1872 81.9117 55.9005 81.1456 56.4014C80.3794 56.9024 79.4839 57.1694 78.5685 57.1697H75.2593C74.764 57.1708 74.2861 56.987 73.9191 56.6544C73.5521 56.3217 73.3224 55.8641 73.2749 55.3711L73.1425 54.0467C73.0706 53.3071 72.832 52.5935 72.4447 51.9594C72.0573 51.3252 71.5313 50.7872 70.9062 50.3855C70.5746 50.1723 70.3021 49.879 70.1136 49.5327C69.9252 49.1864 69.8269 48.7983 69.8278 48.4041V47.0777C69.8279 46.6446 69.9198 46.2164 70.0977 45.8215C70.2756 45.4266 70.5353 45.074 70.8597 44.7869L76.5128 39.7885C77.2435 39.1398 77.7734 38.2956 78.0399 37.3556C78.3064 36.4155 78.2984 35.4188 78.0167 34.4832C77.7236 33.5158 77.1561 32.6543 76.383 32.0032C75.6099 31.352 74.6644 30.9393 73.6612 30.815L73.0903 30.7447C72.2975 30.6474 71.5684 30.2607 71.0431 29.659C70.7647 29.3409 70.592 28.9442 70.5487 28.5238C70.5054 28.1033 70.5938 27.6798 70.8015 27.3117L73.895 22.0092C76.1245 23.5018 78.2123 25.1959 80.1319 27.0703C79.5615 28.0617 79.2267 29.171 79.1534 30.3125C79.0628 32.0813 79.5956 33.8259 80.6589 35.2424L85.4077 41.5924C85.5168 41.7383 85.6585 41.8568 85.8214 41.9384C85.9843 42.02 86.164 42.0624 86.3462 42.0624C86.5284 42.0624 86.7081 42.02 86.871 41.9384C87.0339 41.8568 87.1756 41.7383 87.2847 41.5924L88.1579 40.4246C89.0906 43.7917 89.7473 47.2293 90.1216 50.7031ZM90.1565 33.8365L86.3462 38.9316L82.5444 33.8477C81.8092 32.8773 81.4369 31.6802 81.4921 30.4641C81.6425 28.1516 83.4993 25.7598 86.3462 25.7598C89.1931 25.7598 91.0501 28.1516 91.2005 30.4668C91.267 31.6789 90.8966 32.8746 90.1564 33.8367L90.1565 33.8365Z" fill="white"/>
</svg>
