<svg width="100" height="100" viewBox="0 0 100 100" fill="none" xmlns="http://www.w3.org/2000/svg">
<path d="M73.4375 18.75H70.3125V11.7188C70.3002 10.3461 69.8874 9.0068 69.1248 7.86535C68.3621 6.72391 67.2828 5.82995 66.0193 5.2932C64.7558 4.75644 63.3631 4.60024 62.0121 4.84377C60.6611 5.0873 59.4106 5.71995 58.4141 6.6641C57.7965 5.6018 56.9108 4.72024 55.8457 4.10759C54.7805 3.49494 53.5732 3.17266 52.3444 3.17297C51.1156 3.17329 49.9085 3.49619 48.8436 4.10939C47.7788 4.72259 46.8936 5.6046 46.2766 6.66722C45.2543 5.69856 43.9656 5.05794 42.5762 4.8278C41.1868 4.59766 39.7604 4.78853 38.4804 5.37584C37.2004 5.96316 36.1254 6.92005 35.3938 8.12339C34.6622 9.32674 34.3073 10.7215 34.375 12.1282C33.3137 11.4358 32.0858 11.0413 30.8199 10.9859C29.5539 10.9305 28.2963 11.2161 27.1785 11.813C26.0607 12.4099 25.1238 13.2961 24.4657 14.379C23.8076 15.4619 23.4525 16.7017 23.4375 17.9688V26.5625C22.1947 26.5638 21.0031 27.058 20.1243 27.9368C19.2455 28.8157 18.7512 30.0072 18.75 31.25V34.2375C18.7556 37.7114 19.9129 41.0853 22.0406 43.8313L27.0562 50.2766C28.7571 52.4728 29.6824 55.1707 29.6875 57.9485V69.6203C28.7408 70.1645 27.9538 70.948 27.4054 71.8922C26.8569 72.8363 26.5662 73.9081 26.5625 75V90.625C26.5642 92.2821 27.2232 93.8709 28.3949 95.0426C29.5667 96.2144 31.1554 96.8734 32.8125 96.875H67.1875C68.8446 96.8734 70.4333 96.2144 71.6051 95.0426C72.7768 93.8709 73.4358 92.2821 73.4375 90.625V75C73.434 73.9078 73.1435 72.8358 72.595 71.8913C72.0466 70.9468 71.2594 70.1631 70.3125 69.6188V57.95C70.3177 55.1715 71.2436 52.473 72.9453 50.2766L77.9594 43.8313C80.0871 41.0853 81.2444 37.7114 81.25 34.2375V26.5625C81.2475 24.4913 80.4236 22.5056 78.959 21.041C77.4944 19.5764 75.5087 18.7525 73.4375 18.75ZM59.375 11.7188C59.3845 10.9502 59.6197 10.2014 60.0514 9.56542C60.4831 8.92946 61.0922 8.43443 61.803 8.14189C62.5137 7.84935 63.2948 7.77221 64.0491 7.92006C64.8034 8.06792 65.4976 8.43424 66.0453 8.97347C66.4096 9.33144 66.6984 9.75884 66.8946 10.2304C67.0908 10.7019 67.1904 11.2081 67.1875 11.7188V18.75H59.375V11.7188ZM48.4375 10.1563C48.4375 9.12028 48.8491 8.12671 49.5816 7.39415C50.3142 6.66159 51.3077 6.25004 52.3438 6.25004C53.3798 6.25004 54.3733 6.66159 55.1059 7.39415C55.8385 8.12671 56.25 9.12028 56.25 10.1563V18.75C55.0453 18.836 49.475 18.5047 48.4375 19.036V10.1563ZM48.4375 31.0672C50.3033 32.9827 52.8078 34.146 55.475 34.336C54.9272 35.0583 54.1488 35.5715 53.269 35.7902C52.3892 36.0088 51.461 35.9198 50.6388 35.5379C49.8166 35.156 49.1499 34.5043 48.7494 33.6909C48.349 32.8776 48.2389 31.9518 48.4375 31.0672ZM37.5 11.7188C37.5 10.6828 37.9116 9.68921 38.6441 8.95665C39.3767 8.22409 40.3702 7.81254 41.4062 7.81254C42.4423 7.81254 43.4358 8.22409 44.1684 8.95665C44.9009 9.68921 45.3125 10.6828 45.3125 11.7188V32.0313C45.3125 33.0673 44.9009 34.0609 44.1684 34.7934C43.4358 35.526 42.4423 35.9375 41.4062 35.9375C40.3702 35.9375 39.3767 35.526 38.6441 34.7934C37.9116 34.0609 37.5 33.0673 37.5 32.0313V11.7188ZM26.5625 17.9688C26.5625 16.9328 26.9741 15.9392 27.7066 15.2066C28.4392 14.4741 29.4327 14.0625 30.4688 14.0625C31.5048 14.0625 32.4983 14.4741 33.2309 15.2066C33.9634 15.9392 34.375 16.9328 34.375 17.9688V30.4688C34.375 31.5048 33.9634 32.4984 33.2309 33.2309C32.4983 33.9635 31.5048 34.375 30.4688 34.375C29.4327 34.375 28.4392 33.9635 27.7066 33.2309C26.9741 32.4984 26.5625 31.5048 26.5625 30.4688V17.9688ZM70.3125 90.625C70.3113 91.4535 69.9816 92.2476 69.3958 92.8334C68.8101 93.4192 68.0159 93.7488 67.1875 93.75H32.8125C31.9841 93.7488 31.1899 93.4192 30.6042 92.8334C30.0184 92.2476 29.6887 91.4535 29.6875 90.625V75C29.6887 74.1716 30.0184 73.3775 30.6042 72.7917C31.1899 72.2059 31.9841 71.8763 32.8125 71.875H67.1875C68.0159 71.8763 68.8101 72.2059 69.3958 72.7917C69.9816 73.3775 70.3113 74.1716 70.3125 75V90.625ZM78.125 34.2375C78.1198 37.0161 77.1939 39.7145 75.4922 41.911L70.4781 48.3563C68.3504 51.1022 67.1931 54.4762 67.1875 57.95V68.75H32.8125V57.95C32.8069 54.4762 31.6496 51.1022 29.5219 48.3563L24.5063 41.911C22.8054 39.7148 21.8801 37.0169 21.875 34.2391V31.25C21.875 30.8356 22.0396 30.4382 22.3326 30.1452C22.6257 29.8522 23.0231 29.6875 23.4375 29.6875C23.2948 31.1227 23.5943 32.5671 24.2959 33.8272C24.9974 35.0873 26.0674 36.1028 27.3625 36.7375C28.6575 37.3721 30.1157 37.5957 31.5414 37.3782C32.9671 37.1606 34.2922 36.5124 35.3391 35.5203C35.9109 36.5053 36.7139 37.3362 37.6787 37.9413C38.6435 38.5465 39.7411 38.9078 40.8767 38.9939C42.0124 39.08 43.1519 38.8885 44.1969 38.4357C45.242 37.983 46.1611 37.2827 46.875 36.3953C47.657 37.3669 48.6835 38.1127 49.8491 38.5564C51.0147 39 52.2773 39.1255 53.5074 38.9198C54.7375 38.7141 55.8907 38.1847 56.8485 37.386C57.8064 36.5874 58.5344 35.5481 58.9578 34.375H59.1078C59.1554 36.0491 59.8542 37.6386 61.0555 38.8054C62.2568 39.9723 63.8659 40.6246 65.5406 40.6235C65.9546 40.6459 66.3605 40.5029 66.6691 40.2259C66.9776 39.949 67.1636 39.5609 67.1859 39.1469C67.2083 38.7329 67.0653 38.327 66.7884 38.0184C66.5115 37.7099 66.1234 37.524 65.7094 37.5016C65.0132 37.5053 64.3307 37.308 63.7439 36.9332C63.1571 36.5585 62.691 36.0223 62.4016 35.3891C62.1729 34.7143 62.179 33.9819 62.4188 33.311C62.4953 33.076 62.5155 32.8262 62.4776 32.582C62.4396 32.3377 62.3447 32.1058 62.2004 31.9051C62.0562 31.7044 61.8667 31.5405 61.6472 31.4267C61.4278 31.3129 61.1847 31.2524 60.9375 31.25H56.25C54.1884 31.2452 52.2119 30.4276 50.7493 28.9746C49.2867 27.5217 48.456 25.5506 48.4375 23.4891C48.4308 23.0679 48.5916 22.6613 48.8846 22.3586C49.1776 22.056 49.5788 21.882 50 21.875H73.4375C74.6803 21.8763 75.8719 22.3705 76.7507 23.2493C77.6295 24.1282 78.1238 25.3197 78.125 26.5625V34.2375Z" fill="white"/>
<path d="M55.7562 42.2688C53.7107 42.922 51.8063 43.954 50.1422 45.311C49.1312 44.0235 47.0641 40.8907 45.2984 42.811C45.0499 43.1423 44.9428 43.5587 45.0008 43.9687C45.0588 44.3788 45.2771 44.7492 45.6078 44.9985C46.5534 45.6969 47.3396 46.5885 47.9141 47.6141C46.3513 49.6545 45.4442 52.1209 45.3125 54.6876C45.3113 55.102 45.4747 55.4999 45.7668 55.7938C46.059 56.0877 46.4559 56.2535 46.8703 56.2548C47.2847 56.256 47.6826 56.0926 47.9765 55.8004C48.2704 55.5083 48.4363 55.1114 48.4375 54.697C48.4406 54.422 48.6172 47.9423 56.7438 45.2313C57.122 45.0891 57.4305 44.8058 57.6043 44.441C57.7781 44.0761 57.8039 43.6581 57.6761 43.2747C57.5483 42.8913 57.2769 42.5724 56.9189 42.3848C56.5609 42.1972 56.1442 42.1557 55.7562 42.2688ZM60.9375 76.5626C59.2799 76.5626 57.6902 77.2211 56.5181 78.3932C55.346 79.5653 54.6875 81.155 54.6875 82.8126C54.6875 84.4702 55.346 86.0599 56.5181 87.232C57.6902 88.4041 59.2799 89.0626 60.9375 89.0626C62.5951 89.0626 64.1848 88.4041 65.3569 87.232C66.529 86.0599 67.1875 84.4702 67.1875 82.8126C67.1875 81.155 66.529 79.5653 65.3569 78.3932C64.1848 77.2211 62.5951 76.5626 60.9375 76.5626ZM60.9375 85.9376C60.1087 85.9376 59.3138 85.6083 58.7278 85.0223C58.1417 84.4362 57.8125 83.6414 57.8125 82.8126C57.8125 81.9838 58.1417 81.1889 58.7278 80.6029C59.3138 80.0168 60.1087 79.6876 60.9375 79.6876C61.7663 79.6876 62.5612 80.0168 63.1472 80.6029C63.7333 81.1889 64.0625 81.9838 64.0625 82.8126C64.0625 83.6414 63.7333 84.4362 63.1472 85.0223C62.5612 85.6083 61.7663 85.9376 60.9375 85.9376ZM87.8891 14.0626C87.6819 13.7037 87.3406 13.4419 86.9403 13.3346C86.54 13.2274 86.1136 13.2835 85.7547 13.4907L81.6938 15.8345C81.5146 15.9363 81.3574 16.0726 81.2311 16.2354C81.1049 16.3983 81.0121 16.5845 80.9581 16.7834C80.9041 16.9822 80.89 17.1898 80.9166 17.3942C80.9431 17.5985 81.0098 17.7956 81.1129 17.974C81.2159 18.1525 81.3532 18.3088 81.5169 18.434C81.6806 18.5591 81.8674 18.6507 82.0666 18.7034C82.2659 18.756 82.4735 18.7688 82.6777 18.7409C82.8819 18.7129 83.0785 18.6449 83.2563 18.5407L87.3172 16.197C87.6761 15.9897 87.9379 15.6485 88.0452 15.2482C88.1524 14.8479 88.0963 14.4215 87.8891 14.0626ZM91.1547 26.5282C91.555 26.4209 91.8963 26.1589 92.1034 25.8C92.3106 25.441 92.3667 25.0145 92.2594 24.6141C92.152 24.2138 91.8901 23.8726 91.5311 23.6654C91.1722 23.4582 90.7456 23.4021 90.3453 23.5095L85.8187 24.722C85.4202 24.8306 85.0808 25.0927 84.875 25.4509C84.6691 25.8091 84.6135 26.2343 84.7203 26.6334C84.8271 27.0325 85.0876 27.373 85.4448 27.5805C85.8021 27.7881 86.227 27.8456 86.6266 27.7407L91.1547 26.5282ZM92.1875 34.3751H87.5C87.0856 34.3751 86.6882 34.5397 86.3951 34.8327C86.1021 35.1258 85.9375 35.5232 85.9375 35.9376C85.9375 36.352 86.1021 36.7494 86.3951 37.0424C86.6882 37.3355 87.0856 37.5001 87.5 37.5001H92.1875C92.6019 37.5001 92.9993 37.3355 93.2924 37.0424C93.5854 36.7494 93.75 36.352 93.75 35.9376C93.75 35.5232 93.5854 35.1258 93.2924 34.8327C92.9993 34.5397 92.6019 34.3751 92.1875 34.3751ZM18.3062 15.8345L14.2453 13.4907C13.8866 13.2868 13.4618 13.233 13.0636 13.3411C12.6655 13.4492 12.3262 13.7104 12.1199 14.0677C11.9136 14.4251 11.857 14.8495 11.9624 15.2484C12.0679 15.6473 12.3269 15.9883 12.6828 16.197C13.2234 16.422 16.9641 18.9001 17.5234 18.7501C17.8636 18.7428 18.1922 18.6253 18.4599 18.4153C18.7276 18.2053 18.92 17.9141 19.008 17.5854C19.0961 17.2567 19.0752 16.9084 18.9483 16.5926C18.8215 16.2769 18.5972 16.0109 18.3062 15.8345ZM14.1813 24.722L9.65469 23.5095C9.25438 23.4021 8.82782 23.4582 8.46887 23.6654C8.10991 23.8726 7.84795 24.2138 7.74062 24.6141C7.6333 25.0145 7.68938 25.441 7.89655 25.8C8.10372 26.1589 8.445 26.4209 8.84531 26.5282C8.97031 26.5407 13.8266 27.9157 13.7781 27.7938C14.154 27.7882 14.5153 27.6476 14.7961 27.3975C15.0768 27.1475 15.2582 26.8048 15.3071 26.4321C15.356 26.0594 15.2692 25.6815 15.0625 25.3675C14.8558 25.0535 14.543 24.8244 14.1813 24.722ZM12.5 34.3751H7.8125C7.3981 34.3751 7.00067 34.5397 6.70765 34.8327C6.41462 35.1258 6.25 35.5232 6.25 35.9376C6.25 36.352 6.41462 36.7494 6.70765 37.0424C7.00067 37.3355 7.3981 37.5001 7.8125 37.5001H12.5C12.9144 37.5001 13.3118 37.3355 13.6049 37.0424C13.8979 36.7494 14.0625 36.352 14.0625 35.9376C14.0625 35.5232 13.8979 35.1258 13.6049 34.8327C13.3118 34.5397 12.9144 34.3751 12.5 34.3751Z" fill="white"/>
</svg>
