<svg width="100" height="100" viewBox="0 0 100 100" fill="none" xmlns="http://www.w3.org/2000/svg">
<path d="M88.8944 97.2758L69.5327 77.9141C69.2334 77.6149 68.8276 77.4469 68.4044 77.4469H64.7077C63.8264 77.4469 63.112 78.1612 63.112 79.0426C63.112 79.924 63.8264 80.6383 64.7077 80.6383H67.7432L83.9136 96.8084H16.0864L32.2565 80.6383H35.2921C36.1733 80.6383 36.8878 79.924 36.8878 79.0426C36.8878 78.1612 36.1733 77.4469 35.2921 77.4469H31.5958C31.1726 77.4469 30.7668 77.615 30.4675 77.9141L11.1057 97.2758C10.8825 97.499 10.7305 97.7833 10.6689 98.0929C10.6073 98.4024 10.6389 98.7233 10.7596 99.0149C10.8804 99.3065 11.085 99.5558 11.3474 99.7311C11.6099 99.9065 11.9184 100 12.2341 100H87.7659C88.0816 100 88.3901 99.9065 88.6526 99.7312C88.9151 99.5559 89.1197 99.3066 89.2405 99.015C89.3613 98.7234 89.3929 98.4025 89.3313 98.0929C89.2697 97.7833 89.1177 97.499 88.8944 97.2758Z" fill="white"/>
<path d="M50 0C31.5221 0 16.4895 15.0328 16.4895 33.5105C16.4895 40.4629 18.6004 47.132 22.5956 52.7988L48.6973 89.7059C48.8448 89.9142 49.04 90.0842 49.2667 90.2015C49.4934 90.3188 49.745 90.3801 50.0002 90.3801C50.2555 90.3801 50.507 90.3188 50.7338 90.2015C50.9605 90.0842 51.1557 89.9142 51.3032 89.7059L77.4063 52.7969C81.4001 47.132 83.511 40.4629 83.511 33.5105C83.5106 15.0328 68.478 0 50 0ZM74.7991 50.9561L50 86.0209L25.2026 50.958C21.5903 45.8342 19.6809 39.8008 19.6809 33.5105C19.6809 16.7926 33.2819 3.19141 50 3.19141C66.7182 3.19141 80.3192 16.7924 80.3192 33.5105C80.3192 39.8008 78.4098 45.8342 74.7991 50.9561Z" fill="white"/>
<path d="M50.0001 18.0852C41.4944 18.0852 34.5745 25.0049 34.5745 33.5108C34.5735 36.3703 35.3703 39.1734 36.8751 41.6049C37.1002 41.9595 37.4561 42.211 37.8655 42.3049C38.2749 42.3988 38.7048 42.3275 39.062 42.1065C39.4191 41.8855 39.6748 41.5326 39.7735 41.1244C39.8722 40.7161 39.8059 40.2854 39.5891 39.9256C38.3965 37.9986 37.7651 35.7772 37.7659 33.511C37.7659 26.7651 43.254 21.277 49.9999 21.277C56.7458 21.277 62.2338 26.7651 62.2338 33.511C62.2338 40.2569 56.7459 45.7448 50.0001 45.7448C47.7339 45.7456 45.5124 45.1141 43.5854 43.9215C42.8356 43.4575 41.8524 43.6897 41.3887 44.4389C40.9251 45.1881 41.1565 46.1719 41.9061 46.6356C44.3375 48.1404 47.1405 48.9371 49.9999 48.9362C58.5055 48.9362 65.4254 42.0165 65.4254 33.5106C65.4256 25.0049 58.5057 18.0852 50.0001 18.0852Z" fill="white"/>
</svg>
