<svg width="100" height="100" viewBox="0 0 100 100" fill="none" xmlns="http://www.w3.org/2000/svg">
<path fill-rule="evenodd" clip-rule="evenodd" d="M82.8125 15.625C82.8125 13.553 81.9894 11.5659 80.5243 10.1007C79.0591 8.6356 77.072 7.8125 75 7.8125H25C22.928 7.8125 20.9409 8.6356 19.4757 10.1007C18.0106 11.5659 17.1875 13.553 17.1875 15.625V84.375C17.1875 86.447 18.0106 88.4341 19.4757 89.8993C20.9409 91.3644 22.928 92.1875 25 92.1875H59.375C59.7906 92.1875 60.1875 92.0219 60.4813 91.7313L82.3563 69.8563C82.6479 69.5619 82.8119 69.1644 82.8125 68.75V15.625ZM79.6875 67.1875V15.625C79.685 14.3826 79.1904 13.1917 78.3118 12.3132C77.4333 11.4346 76.2424 10.94 75 10.9375H25C23.7576 10.94 22.5667 11.4346 21.6882 12.3132C20.8096 13.1917 20.315 14.3826 20.3125 15.625V84.375C20.3125 85.6182 20.8064 86.8105 21.6854 87.6896C22.5645 88.5686 23.7568 89.0625 25 89.0625H57.8125V75C57.8125 72.928 58.6356 70.9409 60.1007 69.4757C61.5659 68.0106 63.553 67.1875 65.625 67.1875H79.6875ZM77.4781 70.3125H65.625C64.3818 70.3125 63.1895 70.8064 62.3104 71.6854C61.4314 72.5645 60.9375 73.7568 60.9375 75V86.8531L77.4781 70.3125ZM51.5625 64.0625C51.5625 62.8193 51.0686 61.627 50.1896 60.7479C49.3105 59.8689 48.1182 59.375 46.875 59.375H34.375C33.1318 59.375 31.9395 59.8689 31.0604 60.7479C30.1814 61.627 29.6875 62.8193 29.6875 64.0625V67.1875C29.6875 68.4307 30.1814 69.623 31.0604 70.5021C31.9395 71.3811 33.1318 71.875 34.375 71.875H46.875C48.1182 71.875 49.3105 71.3811 50.1896 70.5021C51.0686 69.623 51.5625 68.4307 51.5625 67.1875V64.0625ZM48.4375 64.0625C48.4375 63.6481 48.2729 63.2507 47.9799 62.9576C47.6868 62.6646 47.2894 62.5 46.875 62.5H34.375C33.9606 62.5 33.5632 62.6646 33.2701 62.9576C32.9771 63.2507 32.8125 63.6481 32.8125 64.0625V67.1875C32.8125 67.6019 32.9771 67.9993 33.2701 68.2924C33.5632 68.5854 33.9606 68.75 34.375 68.75H46.875C47.2894 68.75 47.6868 68.5854 47.9799 68.2924C48.2729 67.9993 48.4375 67.6019 48.4375 67.1875V64.0625ZM31.25 51.5625H68.75C69.1644 51.5625 69.5618 51.3979 69.8549 51.1049C70.1479 50.8118 70.3125 50.4144 70.3125 50C70.3125 49.5856 70.1479 49.1882 69.8549 48.8951C69.5618 48.6021 69.1644 48.4375 68.75 48.4375H31.25C30.8356 48.4375 30.4382 48.6021 30.1451 48.8951C29.8521 49.1882 29.6875 49.5856 29.6875 50C29.6875 50.4144 29.8521 50.8118 30.1451 51.1049C30.4382 51.3979 30.8356 51.5625 31.25 51.5625ZM31.25 42.1875H68.75C69.1644 42.1875 69.5618 42.0229 69.8549 41.7299C70.1479 41.4368 70.3125 41.0394 70.3125 40.625C70.3125 40.2106 70.1479 39.8132 69.8549 39.5201C69.5618 39.2271 69.1644 39.0625 68.75 39.0625H31.25C30.8356 39.0625 30.4382 39.2271 30.1451 39.5201C29.8521 39.8132 29.6875 40.2106 29.6875 40.625C29.6875 41.0394 29.8521 41.4368 30.1451 41.7299C30.4382 42.0229 30.8356 42.1875 31.25 42.1875ZM70.3125 25C70.3125 23.7568 69.8186 22.5645 68.9396 21.6854C68.0605 20.8064 66.8682 20.3125 65.625 20.3125H34.375C33.1318 20.3125 31.9395 20.8064 31.0604 21.6854C30.1814 22.5645 29.6875 23.7568 29.6875 25V28.125C29.6875 29.3682 30.1814 30.5605 31.0604 31.4396C31.9395 32.3186 33.1318 32.8125 34.375 32.8125H65.625C66.8682 32.8125 68.0605 32.3186 68.9396 31.4396C69.8186 30.5605 70.3125 29.3682 70.3125 28.125V25ZM67.1875 25C67.1875 24.5856 67.0229 24.1882 66.7299 23.8951C66.4368 23.6021 66.0394 23.4375 65.625 23.4375H34.375C33.9606 23.4375 33.5632 23.6021 33.2701 23.8951C32.9771 24.1882 32.8125 24.5856 32.8125 25V28.125C32.8125 28.5394 32.9771 28.9368 33.2701 29.2299C33.5632 29.5229 33.9606 29.6875 34.375 29.6875H65.625C66.0394 29.6875 66.4368 29.5229 66.7299 29.2299C67.0229 28.9368 67.1875 28.5394 67.1875 28.125V25Z" fill="white"/>
</svg>
