<svg width="71" height="37" viewBox="0 0 71 37" fill="none" xmlns="http://www.w3.org/2000/svg">
<g clip-path="url(#clip0_89_569)">
<mask id="mask0_89_569" style="mask-type:luminance" maskUnits="userSpaceOnUse" x="0" y="0" width="71" height="38">
<path d="M0 0H71V37.5H0V0Z" fill="white"/>
</mask>
<g mask="url(#mask0_89_569)">
<path fill-rule="evenodd" clip-rule="evenodd" d="M0 0H71.25V2.88574H0V0ZM0 5.77148H71.25V8.65723H0V5.77148ZM0 11.5356H71.25V14.4287H0V11.5356ZM0 17.3071H71.25V20.1929H0V17.3071ZM0 23.0786H71.25V25.9644H0V23.0786ZM0 28.8428H71.25V31.7285H0V28.8428ZM0 34.6143H71.25V37.5H0V34.6143Z" fill="#BD3D44"/>
<path fill-rule="evenodd" clip-rule="evenodd" d="M0 2.88574H71.25V5.77148H0V2.88574ZM0 8.65723H71.25V11.5356H0V8.65723ZM0 14.4214H71.25V17.3071H0V14.4214ZM0 20.1929H71.25V23.0786H0V20.1929ZM0 25.9644H71.25V28.8501H0V25.9644ZM0 31.7285H71.25V34.6143H0V31.7285Z" fill="white"/>
<path fill-rule="evenodd" clip-rule="evenodd" d="M0 0H28.4985V20.1929H0V0Z" fill="#192F5D"/>
<path fill-rule="evenodd" clip-rule="evenodd" d="M2.37305 0.864258L2.63672 1.6626H3.47168L2.79785 2.15332L3.0542 2.95898L2.37305 2.46094L1.69922 2.95166L1.95557 2.15332L1.27441 1.6626H2.12402L2.37305 0.864258ZM7.12647 0.864258L7.38281 1.6626H8.2251L7.54395 2.15332L7.80029 2.95898L7.12647 2.46094L6.44531 2.95166L6.70166 2.15332L6.02783 1.6626H6.86279L7.12647 0.864258ZM11.8726 0.864258L12.1362 1.6626H12.9639L12.29 2.15332L12.5464 2.95898L11.8652 2.46094L11.1914 2.95166L11.4478 2.15332L10.7666 1.6626H11.6089L11.8726 0.864258ZM16.626 0.864258L16.8823 1.6626H17.7246L17.0435 2.15332L17.3071 2.95898L16.626 2.46094L15.9448 2.95166L16.2085 2.15332L15.5273 1.6626H16.3623L16.626 0.864258ZM21.3721 0.864258L21.6357 1.6626H22.4707L21.7969 2.15332L22.0532 2.95898L21.3721 2.46094L20.6982 2.95166L20.9546 2.15332L20.2808 1.6626H21.1157L21.3721 0.864258ZM26.1255 0.864258L26.3818 1.6626H27.2241L26.543 2.15332L26.8066 2.95898L26.1255 2.46094L25.4443 2.95166L25.708 2.15332L25.0269 1.6626H25.8691L26.1255 0.864258ZM4.75342 2.88574L5.00977 3.68408H5.85205L5.1709 4.1748L5.41992 4.97315L4.76074 4.48242L4.07959 4.97315L4.32129 4.1748L3.66211 3.68408H4.49707L4.75342 2.88574ZM9.49951 2.88574L9.76318 3.68408H10.5981L9.91699 4.1748L10.1807 4.97315L9.49951 4.48242L8.81836 4.97315L9.08203 4.1748L8.40088 3.68408H9.24317L9.49951 2.88574ZM14.2529 2.88574L14.5093 3.68408H15.3516L14.6704 4.1748L14.9268 4.97315L14.2529 4.48242L13.5718 4.97315L13.8281 4.1748L13.1543 3.68408H13.9893L14.2529 2.88574ZM18.999 2.88574L19.2627 3.68408H20.0977L19.4165 4.1748L19.6802 4.97315L18.999 4.48242L18.3252 4.97315L18.5815 4.1748L17.9004 3.68408H18.75L18.999 2.88574ZM23.7524 2.88574L24.0088 3.68408H24.8511L24.1699 4.1748L24.4263 4.97315L23.7524 4.48242L23.0713 4.97315L23.3276 4.1748L22.6538 3.68408H23.4888L23.7524 2.88574ZM2.37305 4.8999L2.63672 5.71289H3.47168L2.79785 6.20361L3.0542 7.00195L2.37305 6.50391L1.69922 7.00195L1.95557 6.19629L1.27441 5.70557H2.12402L2.37305 4.8999ZM7.12647 4.8999L7.38281 5.70557H8.2251L7.54395 6.19629L7.80029 6.99463L7.12647 6.49658L6.44531 6.99463L6.70166 6.18896L6.02783 5.69824H6.86279L7.12647 4.8999ZM11.8726 4.8999L12.1362 5.70557H12.9639L12.29 6.19629L12.5464 6.99463L11.8652 6.49658L11.1914 6.99463L11.4478 6.18896L10.7666 5.69824H11.6089L11.8726 4.8999ZM16.626 4.8999L16.8823 5.70557H17.7246L17.0435 6.19629L17.3071 6.99463L16.626 6.49658L15.9448 6.99463L16.2085 6.18896L15.5273 5.69824H16.3623L16.626 4.8999ZM21.3721 4.8999L21.6357 5.70557H22.4707L21.7969 6.19629L22.0532 6.99463L21.3721 6.49658L20.6982 6.99463L20.9546 6.18896L20.2808 5.69824H21.1157L21.3721 4.8999ZM26.1255 4.8999L26.3818 5.70557H27.2241L26.543 6.19629L26.8066 6.99463L26.1255 6.49658L25.4443 6.99463L25.708 6.18896L25.0269 5.69824H25.8691L26.1255 4.8999ZM4.75342 6.92139L5.00977 7.71973H5.85205L5.1709 8.21045L5.42725 9.01611L4.75342 8.51807L4.07227 9.00879L4.32861 8.21045L3.65479 7.71973H4.48975L4.75342 6.92139ZM9.49951 6.92139L9.76318 7.71973H10.5981L9.91699 8.21045L10.1807 9.01611L9.49951 8.51807L8.81836 9.00879L9.08203 8.21045L8.40088 7.71973H9.24317L9.49951 6.92139ZM14.2529 6.92139L14.5093 7.71973H15.3516L14.6704 8.21045L14.9268 9.01611L14.2529 8.51807L13.5718 9.00879L13.8281 8.21045L13.1543 7.71973H13.9893L14.2529 6.92139ZM18.999 6.92139L19.2627 7.71973H20.0977L19.4238 8.21045L19.6802 9.01611L18.999 8.51807L18.3252 9.00879L18.5815 8.21045L17.9004 7.71973H18.75L18.999 6.92139ZM23.7524 6.92139L24.0088 7.71973H24.8511L24.1699 8.21045L24.4263 9.01611L23.7524 8.51807L23.0713 9.00879L23.3276 8.21045L22.6538 7.71973H23.4888L23.7524 6.92139ZM2.37305 8.94287L2.63672 9.74121H3.47168L2.79785 10.2319L3.0542 11.0376L2.37305 10.5395L1.69922 11.0303L1.95557 10.2319L1.27441 9.74121H2.12402L2.37305 8.94287ZM7.12647 8.94287L7.38281 9.74121H8.2251L7.54395 10.2319L7.80029 11.0303L7.12647 10.5395L6.44531 11.0303L6.70166 10.2319L6.02783 9.74121H6.86279L7.12647 8.94287ZM11.8726 8.94287L12.1362 9.74121H12.9639L12.29 10.2319L12.5464 11.0376L11.8652 10.5395L11.1914 11.0303L11.4478 10.2319L10.7666 9.74121H11.6089L11.8726 8.94287ZM16.626 8.94287L16.8823 9.74121H17.7246L17.0435 10.2319L17.3071 11.0376L16.626 10.5395L15.9448 11.0303L16.2085 10.2319L15.5273 9.74121H16.3623L16.626 8.94287ZM21.3721 8.94287L21.6357 9.74121H22.4707L21.7969 10.2319L22.0532 11.0376L21.3721 10.5395L20.6982 11.0303L20.9546 10.2319L20.2808 9.74121H21.1157L21.3721 8.94287ZM26.1255 8.94287L26.3818 9.74121H27.2241L26.543 10.2319L26.8066 11.0376L26.1255 10.5395L25.4443 11.0303L25.708 10.2319L25.0269 9.74121H25.8691L26.1255 8.94287ZM4.75342 10.9644L5.00977 11.7627H5.85205L5.1709 12.2534L5.42725 13.0518L4.75342 12.5537L4.07227 13.0518L4.32861 12.2461L3.65479 11.7554H4.48975L4.75342 10.9644ZM9.49951 10.9644L9.76318 11.7627H10.5981L9.91699 12.2534L10.1807 13.0518L9.49951 12.5537L8.81836 13.0518L9.08203 12.2461L8.40088 11.7554H9.24317L9.49951 10.9644ZM14.2529 10.9644L14.5093 11.7627H15.3516L14.6704 12.2534L14.9268 13.0518L14.2529 12.5537L13.5718 13.0518L13.8281 12.2461L13.1543 11.7554H13.9893L14.2529 10.9644ZM18.999 10.9644L19.2627 11.7627H20.0977L19.4238 12.2534L19.6802 13.0518L18.999 12.5537L18.3252 13.0518L18.5815 12.2461L17.9004 11.7554H18.75L18.999 10.9644ZM23.7524 10.9644L24.0088 11.7627H24.8511L24.1699 12.2534L24.4263 13.0518L23.7524 12.5537L23.0713 13.0518L23.3276 12.2461L22.6538 11.7554H23.4888L23.7524 10.9644ZM2.37305 12.9785L2.63672 13.7842H3.47168L2.79785 14.2749L3.0542 15.0659L2.37305 14.5752L1.69922 15.0659L1.95557 14.2676L1.27441 13.7769H2.12402L2.37305 12.9785ZM7.12647 12.9785L7.38281 13.7842H8.2251L7.54395 14.2749L7.80762 15.0659L7.12647 14.5752L6.44531 15.0659L6.70898 14.2676L6.02783 13.7769H6.86279L7.12647 12.9785ZM11.8726 12.9785L12.1362 13.7842H12.9639L12.29 14.2749L12.5464 15.0659L11.8652 14.5752L11.1914 15.0659L11.4478 14.2676L10.7666 13.7769H11.6089L11.8726 12.9785ZM16.626 12.9785L16.8823 13.7842H17.7246L17.0435 14.2749L17.3071 15.0659L16.626 14.5752L15.9448 15.0659L16.2085 14.2676L15.5273 13.7769H16.3623L16.626 12.9785ZM21.3721 12.9785L21.6357 13.7842H22.4707L21.7969 14.2749L22.0532 15.0659L21.3721 14.5752L20.6982 15.0659L20.9546 14.2676L20.2808 13.7769H21.1157L21.3721 12.9785ZM26.1255 12.9785L26.3818 13.7842H27.2241L26.543 14.2749L26.8066 15.0659L26.1255 14.5752L25.4443 15.0659L25.708 14.2676L25.0269 13.7769H25.8691L26.1255 12.9785ZM4.75342 15L5.00977 15.7983H5.85205L5.1709 16.2891L5.42725 17.0947L4.75342 16.5967L4.07227 17.0874L4.32861 16.2891L3.65479 15.7983H4.48975L4.75342 15ZM9.49951 15L9.76318 15.7983H10.5981L9.91699 16.2891L10.1807 17.0947L9.49951 16.5967L8.81836 17.0874L9.08203 16.2891L8.40088 15.7983H9.24317L9.49951 15ZM14.2529 15L14.5093 15.7983H15.3516L14.6704 16.2891L14.9268 17.0947L14.2529 16.5967L13.5718 17.0874L13.8281 16.2891L13.1543 15.7983H13.9893L14.2529 15ZM18.999 15L19.2627 15.7983H20.0977L19.4238 16.2891L19.6802 17.0947L18.999 16.5967L18.3252 17.0874L18.5815 16.2891L17.9004 15.7983H18.75L18.999 15ZM23.7524 15L24.0088 15.7983H24.8511L24.1699 16.2891L24.4263 17.0947L23.7524 16.5967L23.0713 17.0874L23.3276 16.2891L22.6538 15.7983H23.4888L23.7524 15ZM2.37305 17.0215L2.63672 17.8198H3.47168L2.79785 18.3105L3.0542 19.1089L2.37305 18.6182L1.69922 19.1089L1.95557 18.3032L1.27441 17.8125H2.12402L2.37305 17.0215ZM7.12647 17.0215L7.38281 17.8198H8.2251L7.54395 18.3105L7.80762 19.1089L7.12647 18.6182L6.44531 19.1089L6.70898 18.3032L6.02783 17.8125H6.86279L7.12647 17.0215ZM11.8726 17.0215L12.1362 17.8198H12.9639L12.3047 18.3105L12.561 19.1089L11.8799 18.6182L11.2061 19.1089L11.4624 18.3032L10.7813 17.8125H11.6235L11.8726 17.0215ZM16.626 17.0215L16.8823 17.8198H17.7246L17.0435 18.3105L17.3071 19.1089L16.626 18.6182L15.9448 19.1089L16.2085 18.3032L15.5273 17.8125H16.3623L16.626 17.0215ZM21.3721 17.0215L21.6357 17.8198H22.4707L21.7969 18.3105L22.0532 19.1089L21.3721 18.6182L20.6982 19.1089L20.9546 18.3032L20.2808 17.8125H21.1157L21.3721 17.0215ZM26.1255 17.0215L26.3818 17.8198H27.2241L26.543 18.3105L26.8066 19.1089L26.1255 18.6182L25.4443 19.1089L25.708 18.3032L25.0269 17.8125H25.8691L26.1255 17.0215Z" fill="white"/>
</g>
</g>
<defs>
<clipPath id="clip0_89_569">
<rect width="71" height="37" fill="white"/>
</clipPath>
</defs>
</svg>
