<svg width="80" height="80" viewBox="0 0 80 80" fill="none" xmlns="http://www.w3.org/2000/svg">
<g clip-path="url(#clip0_97_1557)">
<path d="M64.9232 69.6774L61.9361 60.7148C61.4239 59.1788 60.5082 57.8087 59.2849 56.7479C58.0616 55.6871 56.5756 54.9747 54.9825 54.6852L46.3593 53.1161V52.4477C47.86 51.5768 49.1658 50.4116 50.2058 49.0323H52.8109C54.9451 49.0323 56.6819 47.2955 56.6819 45.1613V29.6774C56.6819 20.4284 49.1567 12.9032 39.9077 12.9032C30.6587 12.9032 23.1335 20.4284 23.1335 29.6774V38.7097C23.1335 41.1974 24.9025 43.2787 27.2483 43.7639C27.9722 47.4723 30.2896 50.6103 33.4561 52.4477V53.1161L24.8316 54.6852C23.2386 54.9747 21.7529 55.6872 20.5298 56.748C19.3067 57.8088 18.3912 59.1789 17.8793 60.7148L17.3632 62.2645L12.9683 57.8697C12.4651 57.3664 12.4651 56.5471 12.9683 56.0439L18.0651 50.9484L8.49867 41.3819L2.73867 47.1419C1.03286 48.8477 0.0935059 51.1161 0.0935059 53.529C0.0935059 55.9419 1.03286 58.209 2.73867 59.9148L20.1774 77.3535C21.8832 79.0594 24.1516 80 26.5645 80C28.9774 80 31.2445 79.0593 32.9103 77.3923L39.1954 71.6335L37.2354 69.6774H64.9232ZM54.1012 45.1613C54.1012 45.8735 53.5219 46.4516 52.8109 46.4516H51.7258C52.1041 45.5893 52.3862 44.688 52.5671 43.7639C53.1193 43.649 53.6277 43.4297 54.1012 43.1535V45.1613ZM52.8109 40.9316V36.4877C53.5787 36.9355 54.1012 37.7587 54.1012 38.7097C54.1012 39.6606 53.5787 40.4839 52.8109 40.9316ZM27.0045 40.9316C26.2367 40.4839 25.7141 39.6606 25.7141 38.7097C25.7141 37.7587 26.2367 36.9355 27.0045 36.4877V40.9316ZM27.0045 32.2581V33.7316C26.552 33.8499 26.1178 34.0296 25.7141 34.2658V29.6774C25.7141 21.8516 32.0819 15.4839 39.9077 15.4839C47.7335 15.4839 54.1012 21.8516 54.1012 29.6774V34.2658C53.6978 34.0291 53.2636 33.8493 52.8109 33.7316V32.2581H51.5206C47.7051 32.2581 44.118 30.7716 41.4187 28.0735L39.9077 26.5626L38.3967 28.0735C35.6974 30.7716 32.1103 32.2581 28.2948 32.2581H27.0045ZM29.5851 41.2903V34.7897C33.46 34.4981 37.0729 32.8994 39.9077 30.2039C42.7425 32.8994 46.3554 34.4994 50.2303 34.7897V41.2903C50.2303 43.1716 49.7167 44.9316 48.8342 46.4516H39.9077V49.0323H46.7129C44.8935 50.6335 42.5154 51.6129 39.9077 51.6129C34.2161 51.6129 29.5851 46.9819 29.5851 41.2903ZM43.7787 53.5987V53.6594L39.9077 57.5303L36.0367 53.6594V53.5987C37.26 53.9832 38.5593 54.1935 39.9077 54.1935C41.2561 54.1935 42.5554 53.9832 43.7787 53.5987ZM20.3258 61.5303C20.6916 60.433 21.3455 59.4542 22.2192 58.6963C23.0929 57.9384 24.1543 57.4291 25.2922 57.2219L34.3116 55.5832L39.9077 61.1794L45.5025 55.5845L54.5206 57.2232C55.6586 57.4302 56.7201 57.9393 57.5938 58.6973C58.4676 59.4553 59.1215 60.4342 59.4871 61.5316L61.3438 67.0968H34.6548L29.629 62.071L24.0445 67.1226C23.558 67.6116 22.7077 67.6116 22.22 67.1226L19.4019 64.3045L20.3258 61.5303ZM8.49738 45.031L14.4148 50.9484L13.0135 52.3497L7.09609 46.4323L8.49738 45.031ZM31.1232 75.5316C29.9051 76.7471 28.2845 77.4193 26.5619 77.4193C24.8393 77.4193 23.2187 76.7471 21.9993 75.529L4.5606 58.0916C3.34254 56.8735 2.67157 55.2529 2.67157 53.5303C2.67157 51.8064 3.34254 50.1858 4.5606 48.9677L5.27028 48.2581L11.1877 54.1755L11.1412 54.2219C9.63286 55.7316 9.63286 58.1871 11.1412 59.6968L20.3941 68.9497C21.1258 69.68 22.0974 70.0839 23.1322 70.0839C24.1671 70.0839 25.1387 69.6813 25.8225 68.9948L25.9193 68.9084L31.8638 74.8529L31.1232 75.5316ZM33.7683 73.1058L27.8367 67.1742L29.5412 65.6336L35.4625 71.5548L33.7683 73.1058ZM76.0367 0H57.9722C55.838 0 54.1012 1.73677 54.1012 3.87097V14.1935C54.1012 16.3277 55.838 18.0645 57.9722 18.0645H61.4187L60.0845 25.8465L72.5361 18.0645H76.0367C78.1709 18.0645 79.9077 16.3277 79.9077 14.1935V3.87097C79.9077 1.73677 78.1709 0 76.0367 0ZM77.3271 14.1935C77.3271 14.9045 76.7477 15.4839 76.0367 15.4839H71.7954L63.6006 20.6052L64.4793 15.4839H57.9722C57.2613 15.4839 56.6819 14.9045 56.6819 14.1935V3.87097C56.6819 3.16 57.2613 2.58065 57.9722 2.58065H76.0367C76.7477 2.58065 77.3271 3.16 77.3271 3.87097V14.1935Z" fill="white"/>
<path d="M59.2626 5.16117H74.7465V7.74182H59.2626V5.16117ZM59.2626 10.3225H69.5852V12.9031H59.2626V10.3225ZM72.1658 10.3225H74.7465V12.9031H72.1658V10.3225ZM39.9078 3.87085C23.0484 3.87085 8.52583 15.5328 4.75035 31.7999L2.30519 27.7238L0.0922852 29.0515L4.62777 36.6089L12.1852 32.0734L10.8574 29.8605L7.36067 31.9586C11.0174 17.0773 24.3994 6.45149 39.9078 6.45149C43.2974 6.45149 46.642 6.95472 49.8484 7.94827L50.6123 5.48375C47.1581 4.41279 43.5568 3.87085 39.9078 3.87085ZM79.2807 28.5702L71.7233 24.0347L67.1891 31.5934L69.402 32.9212L71.66 29.1573C72.8484 32.6347 73.4562 36.2721 73.4562 39.9999C73.4562 47.6734 70.7981 55.1754 65.9736 61.1225L67.9774 62.7483C73.1749 56.3431 76.0368 48.2631 76.0368 39.9999C76.0368 36.0528 75.4007 32.1986 74.1607 28.5083L77.9529 30.7831L79.2807 28.5702Z" fill="white"/>
</g>
<defs>
<clipPath id="clip0_97_1557">
<rect width="80" height="80" fill="white"/>
</clipPath>
</defs>
</svg>
