<svg width="50" height="38" viewBox="0 0 50 38" fill="none" xmlns="http://www.w3.org/2000/svg">
<g clip-path="url(#clip0_114_172)">
<mask id="mask0_114_172" style="mask-type:luminance" maskUnits="userSpaceOnUse" x="0" y="0" width="51" height="38">
<path d="M0 0.25H50.0024V37.75H0V0.25Z" fill="white"/>
</mask>
<g mask="url(#mask0_114_172)">
<path fill-rule="evenodd" clip-rule="evenodd" d="M0 0.25H71.25V3.13574H0V0.25ZM0 6.02148H71.25V8.90723H0V6.02148ZM0 11.7856H71.25V14.6787H0V11.7856ZM0 17.5571H71.25V20.4429H0V17.5571ZM0 23.3286H71.25V26.2144H0V23.3286ZM0 29.0928H71.25V31.9785H0V29.0928ZM0 34.8643H71.25V37.75H0V34.8643Z" fill="#BD3D44"/>
<path fill-rule="evenodd" clip-rule="evenodd" d="M0 3.13574H71.25V6.02148H0V3.13574ZM0 8.90723H71.25V11.7856H0V8.90723ZM0 14.6714H71.25V17.5571H0V14.6714ZM0 20.4429H71.25V23.3286H0V20.4429ZM0 26.2144H71.25V29.1001H0V26.2144ZM0 31.9785H71.25V34.8643H0V31.9785Z" fill="white"/>
<path fill-rule="evenodd" clip-rule="evenodd" d="M0 0.25H28.4985V20.4429H0V0.25Z" fill="#192F5D"/>
<path fill-rule="evenodd" clip-rule="evenodd" d="M2.37305 1.11426L2.63672 1.9126H3.47168L2.79785 2.40332L3.0542 3.20898L2.37305 2.71094L1.69922 3.20166L1.95557 2.40332L1.27441 1.9126H2.12402L2.37305 1.11426ZM7.12647 1.11426L7.38281 1.9126H8.2251L7.54395 2.40332L7.80029 3.20898L7.12647 2.71094L6.44531 3.20166L6.70166 2.40332L6.02783 1.9126H6.86279L7.12647 1.11426ZM11.8726 1.11426L12.1362 1.9126H12.9639L12.29 2.40332L12.5464 3.20898L11.8652 2.71094L11.1914 3.20166L11.4478 2.40332L10.7666 1.9126H11.6089L11.8726 1.11426ZM16.626 1.11426L16.8823 1.9126H17.7246L17.0435 2.40332L17.3071 3.20898L16.626 2.71094L15.9448 3.20166L16.2085 2.40332L15.5273 1.9126H16.3623L16.626 1.11426ZM21.3721 1.11426L21.6357 1.9126H22.4707L21.7969 2.40332L22.0532 3.20898L21.3721 2.71094L20.6982 3.20166L20.9546 2.40332L20.2808 1.9126H21.1157L21.3721 1.11426ZM26.1255 1.11426L26.3818 1.9126H27.2241L26.543 2.40332L26.8066 3.20898L26.1255 2.71094L25.4443 3.20166L25.708 2.40332L25.0269 1.9126H25.8691L26.1255 1.11426ZM4.75342 3.13574L5.00977 3.93408H5.85205L5.1709 4.4248L5.41992 5.22315L4.76074 4.73242L4.07959 5.22315L4.32129 4.4248L3.66211 3.93408H4.49707L4.75342 3.13574ZM9.49951 3.13574L9.76318 3.93408H10.5981L9.91699 4.4248L10.1807 5.22315L9.49951 4.73242L8.81836 5.22315L9.08203 4.4248L8.40088 3.93408H9.24316L9.49951 3.13574ZM14.2529 3.13574L14.5093 3.93408H15.3516L14.6704 4.4248L14.9268 5.22315L14.2529 4.73242L13.5718 5.22315L13.8281 4.4248L13.1543 3.93408H13.9893L14.2529 3.13574ZM18.999 3.13574L19.2627 3.93408H20.0977L19.4165 4.4248L19.6802 5.22315L18.999 4.73242L18.3252 5.22315L18.5815 4.4248L17.9004 3.93408H18.75L18.999 3.13574ZM23.7524 3.13574L24.0088 3.93408H24.8511L24.1699 4.4248L24.4263 5.22315L23.7524 4.73242L23.0713 5.22315L23.3276 4.4248L22.6538 3.93408H23.4888L23.7524 3.13574ZM2.37305 5.1499L2.63672 5.96289H3.47168L2.79785 6.45361L3.0542 7.25195L2.37305 6.75391L1.69922 7.25195L1.95557 6.44629L1.27441 5.95557H2.12402L2.37305 5.1499ZM7.12647 5.1499L7.38281 5.95557H8.2251L7.54395 6.44629L7.80029 7.24463L7.12647 6.74658L6.44531 7.24463L6.70166 6.43896L6.02783 5.94824H6.86279L7.12647 5.1499ZM11.8726 5.1499L12.1362 5.95557H12.9639L12.29 6.44629L12.5464 7.24463L11.8652 6.74658L11.1914 7.24463L11.4478 6.43896L10.7666 5.94824H11.6089L11.8726 5.1499ZM16.626 5.1499L16.8823 5.95557H17.7246L17.0435 6.44629L17.3071 7.24463L16.626 6.74658L15.9448 7.24463L16.2085 6.43896L15.5273 5.94824H16.3623L16.626 5.1499ZM21.3721 5.1499L21.6357 5.95557H22.4707L21.7969 6.44629L22.0532 7.24463L21.3721 6.74658L20.6982 7.24463L20.9546 6.43896L20.2808 5.94824H21.1157L21.3721 5.1499ZM26.1255 5.1499L26.3818 5.95557H27.2241L26.543 6.44629L26.8066 7.24463L26.1255 6.74658L25.4443 7.24463L25.708 6.43896L25.0269 5.94824H25.8691L26.1255 5.1499ZM4.75342 7.17139L5.00977 7.96973H5.85205L5.1709 8.46045L5.42725 9.26611L4.75342 8.76807L4.07227 9.25879L4.32861 8.46045L3.65479 7.96973H4.48975L4.75342 7.17139ZM9.49951 7.17139L9.76318 7.96973H10.5981L9.91699 8.46045L10.1807 9.26611L9.49951 8.76807L8.81836 9.25879L9.08203 8.46045L8.40088 7.96973H9.24316L9.49951 7.17139ZM14.2529 7.17139L14.5093 7.96973H15.3516L14.6704 8.46045L14.9268 9.26611L14.2529 8.76807L13.5718 9.25879L13.8281 8.46045L13.1543 7.96973H13.9893L14.2529 7.17139ZM18.999 7.17139L19.2627 7.96973H20.0977L19.4238 8.46045L19.6802 9.26611L18.999 8.76807L18.3252 9.25879L18.5815 8.46045L17.9004 7.96973H18.75L18.999 7.17139ZM23.7524 7.17139L24.0088 7.96973H24.8511L24.1699 8.46045L24.4263 9.26611L23.7524 8.76807L23.0713 9.25879L23.3276 8.46045L22.6538 7.96973H23.4888L23.7524 7.17139ZM2.37305 9.19287L2.63672 9.99121H3.47168L2.79785 10.4819L3.0542 11.2876L2.37305 10.7895L1.69922 11.2803L1.95557 10.4819L1.27441 9.99121H2.12402L2.37305 9.19287ZM7.12647 9.19287L7.38281 9.99121H8.2251L7.54395 10.4819L7.80029 11.2803L7.12647 10.7895L6.44531 11.2803L6.70166 10.4819L6.02783 9.99121H6.86279L7.12647 9.19287ZM11.8726 9.19287L12.1362 9.99121H12.9639L12.29 10.4819L12.5464 11.2876L11.8652 10.7895L11.1914 11.2803L11.4478 10.4819L10.7666 9.99121H11.6089L11.8726 9.19287ZM16.626 9.19287L16.8823 9.99121H17.7246L17.0435 10.4819L17.3071 11.2876L16.626 10.7895L15.9448 11.2803L16.2085 10.4819L15.5273 9.99121H16.3623L16.626 9.19287ZM21.3721 9.19287L21.6357 9.99121H22.4707L21.7969 10.4819L22.0532 11.2876L21.3721 10.7895L20.6982 11.2803L20.9546 10.4819L20.2808 9.99121H21.1157L21.3721 9.19287ZM26.1255 9.19287L26.3818 9.99121H27.2241L26.543 10.4819L26.8066 11.2876L26.1255 10.7895L25.4443 11.2803L25.708 10.4819L25.0269 9.99121H25.8691L26.1255 9.19287ZM4.75342 11.2144L5.00977 12.0127H5.85205L5.1709 12.5034L5.42725 13.3018L4.75342 12.8037L4.07227 13.3018L4.32861 12.4961L3.65479 12.0054H4.48975L4.75342 11.2144ZM9.49951 11.2144L9.76318 12.0127H10.5981L9.91699 12.5034L10.1807 13.3018L9.49951 12.8037L8.81836 13.3018L9.08203 12.4961L8.40088 12.0054H9.24316L9.49951 11.2144ZM14.2529 11.2144L14.5093 12.0127H15.3516L14.6704 12.5034L14.9268 13.3018L14.2529 12.8037L13.5718 13.3018L13.8281 12.4961L13.1543 12.0054H13.9893L14.2529 11.2144ZM18.999 11.2144L19.2627 12.0127H20.0977L19.4238 12.5034L19.6802 13.3018L18.999 12.8037L18.3252 13.3018L18.5815 12.4961L17.9004 12.0054H18.75L18.999 11.2144ZM23.7524 11.2144L24.0088 12.0127H24.8511L24.1699 12.5034L24.4263 13.3018L23.7524 12.8037L23.0713 13.3018L23.3276 12.4961L22.6538 12.0054H23.4888L23.7524 11.2144ZM2.37305 13.2285L2.63672 14.0342H3.47168L2.79785 14.5249L3.0542 15.3159L2.37305 14.8252L1.69922 15.3159L1.95557 14.5176L1.27441 14.0269H2.12402L2.37305 13.2285ZM7.12647 13.2285L7.38281 14.0342H8.2251L7.54395 14.5249L7.80762 15.3159L7.12647 14.8252L6.44531 15.3159L6.70898 14.5176L6.02783 14.0269H6.86279L7.12647 13.2285ZM11.8726 13.2285L12.1362 14.0342H12.9639L12.29 14.5249L12.5464 15.3159L11.8652 14.8252L11.1914 15.3159L11.4478 14.5176L10.7666 14.0269H11.6089L11.8726 13.2285ZM16.626 13.2285L16.8823 14.0342H17.7246L17.0435 14.5249L17.3071 15.3159L16.626 14.8252L15.9448 15.3159L16.2085 14.5176L15.5273 14.0269H16.3623L16.626 13.2285ZM21.3721 13.2285L21.6357 14.0342H22.4707L21.7969 14.5249L22.0532 15.3159L21.3721 14.8252L20.6982 15.3159L20.9546 14.5176L20.2808 14.0269H21.1157L21.3721 13.2285ZM26.1255 13.2285L26.3818 14.0342H27.2241L26.543 14.5249L26.8066 15.3159L26.1255 14.8252L25.4443 15.3159L25.708 14.5176L25.0269 14.0269H25.8691L26.1255 13.2285ZM4.75342 15.25L5.00977 16.0483H5.85205L5.1709 16.5391L5.42725 17.3447L4.75342 16.8467L4.07227 17.3374L4.32861 16.5391L3.65479 16.0483H4.48975L4.75342 15.25ZM9.49951 15.25L9.76318 16.0483H10.5981L9.91699 16.5391L10.1807 17.3447L9.49951 16.8467L8.81836 17.3374L9.08203 16.5391L8.40088 16.0483H9.24316L9.49951 15.25ZM14.2529 15.25L14.5093 16.0483H15.3516L14.6704 16.5391L14.9268 17.3447L14.2529 16.8467L13.5718 17.3374L13.8281 16.5391L13.1543 16.0483H13.9893L14.2529 15.25ZM18.999 15.25L19.2627 16.0483H20.0977L19.4238 16.5391L19.6802 17.3447L18.999 16.8467L18.3252 17.3374L18.5815 16.5391L17.9004 16.0483H18.75L18.999 15.25ZM23.7524 15.25L24.0088 16.0483H24.8511L24.1699 16.5391L24.4263 17.3447L23.7524 16.8467L23.0713 17.3374L23.3276 16.5391L22.6538 16.0483H23.4888L23.7524 15.25ZM2.37305 17.2715L2.63672 18.0698H3.47168L2.79785 18.5605L3.0542 19.3589L2.37305 18.8682L1.69922 19.3589L1.95557 18.5532L1.27441 18.0625H2.12402L2.37305 17.2715ZM7.12647 17.2715L7.38281 18.0698H8.2251L7.54395 18.5605L7.80762 19.3589L7.12647 18.8682L6.44531 19.3589L6.70898 18.5532L6.02783 18.0625H6.86279L7.12647 17.2715ZM11.8726 17.2715L12.1362 18.0698H12.9639L12.3047 18.5605L12.561 19.3589L11.8799 18.8682L11.2061 19.3589L11.4624 18.5532L10.7813 18.0625H11.6235L11.8726 17.2715ZM16.626 17.2715L16.8823 18.0698H17.7246L17.0435 18.5605L17.3071 19.3589L16.626 18.8682L15.9448 19.3589L16.2085 18.5532L15.5273 18.0625H16.3623L16.626 17.2715ZM21.3721 17.2715L21.6357 18.0698H22.4707L21.7969 18.5605L22.0532 19.3589L21.3721 18.8682L20.6982 19.3589L20.9546 18.5532L20.2808 18.0625H21.1157L21.3721 17.2715ZM26.1255 17.2715L26.3818 18.0698H27.2241L26.543 18.5605L26.8066 19.3589L26.1255 18.8682L25.4443 19.3589L25.708 18.5532L25.0269 18.0625H25.8691L26.1255 17.2715Z" fill="white"/>
</g>
</g>
<defs>
<clipPath id="clip0_114_172">
<rect width="50" height="37.5" fill="white" transform="translate(0 0.25)"/>
</clipPath>
</defs>
</svg>
