<svg width="100" height="100" viewBox="0 0 100 100" fill="none" xmlns="http://www.w3.org/2000/svg">
<circle cx="50" cy="50" r="50" fill="white"/>
<circle cx="49.5" cy="50.5" r="42" stroke="#5C5470" stroke-dasharray="3 3"/>
<path d="M45.9311 48.1943L45.1256 52.889L49.3419 50.6725H49.6571L53.8734 52.889L53.068 48.1943L53.1655 47.8948L56.5766 44.5694L51.8625 43.8845L51.6077 43.6995L49.4996 39.428L47.3914 43.6995L47.1366 43.8845L42.4225 44.5694L45.8337 47.8948L45.9311 48.1943ZM32.1531 39.787C31.7203 40.7304 31.3617 41.7062 31.0806 42.7054C31.2502 43.2877 31.2611 43.9046 31.1122 44.4925C31.0834 44.6379 31.0355 44.779 30.9698 44.9119C30.9602 44.932 30.9468 44.9501 30.9303 44.9652C30.9144 44.9814 30.8954 44.9944 30.8744 45.0032C30.7753 45.0487 30.671 45.0823 30.5639 45.1031C30.417 46.0676 30.3427 47.0418 30.3418 48.0174C30.3418 48.1498 30.3446 48.2819 30.3474 48.4143C30.7878 49.027 31.0195 49.7652 31.0082 50.5197C31.0153 50.6766 31.0014 50.8338 30.967 50.987C30.9628 51.0057 30.9555 51.0235 30.9455 51.0399C30.9321 51.0642 30.9134 51.0852 30.8907 51.1013C30.8096 51.1657 30.7215 51.2206 30.628 51.265C30.8306 52.415 31.1379 53.544 31.546 54.6381C32.1043 55.2162 32.4631 55.9577 32.5699 56.7543C32.5822 56.8376 32.5899 56.9047 32.5957 56.9672C33.0131 57.7511 33.4847 58.5048 34.007 59.223C34.7661 59.6464 35.3423 60.3349 35.6254 61.1566C36.1366 61.6906 36.6799 62.1928 37.2522 62.6605C37.5058 62.8674 37.7647 63.0668 38.0291 63.2589C38.2862 63.2558 38.5427 63.2854 38.7922 63.3472C39.6866 63.5987 40.4488 64.1866 40.9192 64.9877C42.0357 65.5245 43.2043 65.9456 44.4065 66.2446C45.1745 65.7386 46.0193 65.3603 46.9082 65.1242C46.3309 65.0335 45.751 64.9308 45.1744 64.8038C44.8718 64.7368 44.571 64.6608 44.2721 64.5759C43.9986 64.7107 43.7101 64.8126 43.4127 64.8792L43.3308 64.8816L43.2313 64.8661L43.1536 64.8388C42.6777 64.5587 42.2674 64.1797 41.9504 63.7275C40.6314 63.1304 39.3948 62.3659 38.2712 61.4527C38.1423 61.4675 38.0311 61.4742 37.9524 61.4742L37.8714 61.4604L37.7812 61.4276L37.7103 61.3859C37.2963 61.0192 36.9703 60.5639 36.7566 60.0538C33.6644 56.8074 31.9337 52.4995 31.9205 48.0161C31.9218 46.72 32.0632 45.4278 32.3422 44.1621C32.2847 43.7772 32.3101 43.3844 32.4169 43.0101C32.5236 42.6359 32.7092 42.2888 32.9612 41.9921C33.2768 41.0982 33.661 40.23 34.1106 39.3953C33.9629 39.0141 33.9007 38.6051 33.9282 38.1971C33.9127 38.1873 33.8994 38.1757 33.8831 38.166C33.7669 38.1018 33.6364 38.0682 33.5037 38.0682C33.3966 38.0683 33.2908 38.0901 33.1924 38.1322C33.094 38.1744 33.0052 38.236 32.9313 38.3134C32.9387 38.5988 32.9107 38.8841 32.8479 39.1627C32.8236 39.2991 32.7808 39.4316 32.7208 39.5565C32.713 39.5723 32.7029 39.5868 32.6907 39.5994C32.6738 39.6187 32.6529 39.6341 32.6295 39.6443C32.5022 39.7036 32.3678 39.7461 32.2296 39.7707C32.2051 39.7769 32.1785 39.7818 32.1531 39.787ZM54.3985 67.2169L54.3603 67.226C53.5297 67.4101 52.7176 67.5424 51.9241 67.6593C53.3438 68.1614 54.3149 69.0055 54.6565 70.714C54.6994 70.9184 54.8209 71.0978 54.9947 71.2136C55.1686 71.3294 55.381 71.3723 55.5862 71.3331C55.7914 71.292 55.9718 71.171 56.0879 70.9969C56.2039 70.8227 56.2461 70.6096 56.2051 70.4044C55.9104 68.9273 55.269 67.9238 54.3985 67.2169Z" fill="#445069"/>
<path d="M58.0792 64.9871C58.5496 64.186 59.3118 63.5981 60.2062 63.3466C60.4557 63.2849 60.712 63.2552 60.9691 63.2583C61.233 63.0656 61.492 62.8662 61.7459 62.6599C62.3184 62.1922 62.8617 61.69 63.373 61.156C63.656 60.3343 64.2323 59.6458 64.9914 59.2224C65.5138 58.5043 65.9855 57.7505 66.4029 56.9666C66.4087 56.9064 66.4162 56.8403 66.428 56.7593C66.5339 55.9608 66.893 55.2173 67.4526 54.6379C67.8607 53.5438 68.168 52.4148 68.3706 51.2648C68.277 51.2204 68.1888 51.1654 68.1077 51.1009C68.0875 51.0866 68.0704 51.0682 68.0576 51.047C68.0431 51.0254 68.0333 51.0011 68.0288 50.9755C67.9971 50.8242 67.9841 50.6697 67.9904 50.5153C67.9799 49.7622 68.2116 49.0256 68.6512 48.4141C68.654 48.282 68.6568 48.1496 68.6568 48.0173C68.6559 47.0416 68.5816 46.0674 68.4347 45.1029C68.3276 45.0821 68.2233 45.0486 68.1242 45.003C68.1032 44.9942 68.0841 44.9813 68.0681 44.965C68.0517 44.9499 68.0383 44.9318 68.0286 44.9117C67.9629 44.7788 67.915 44.6378 67.8862 44.4923C67.7373 43.9045 67.7482 43.2875 67.9178 42.7053C67.6367 41.706 67.2781 40.7303 66.8453 39.7868C66.8199 39.7817 66.7924 39.7767 66.769 39.7716C66.6308 39.747 66.4964 39.7045 66.3692 39.6452C66.3457 39.635 66.3248 39.6196 66.3079 39.6003C66.2957 39.5877 66.2856 39.5732 66.2779 39.5574C66.2178 39.4325 66.175 39.3 66.1507 39.1636C66.0881 38.886 66.06 38.6017 66.0671 38.3173C65.9715 38.2148 65.8502 38.1399 65.7158 38.1003C65.6161 38.0711 65.5116 38.0619 65.4083 38.0735C65.305 38.085 65.2051 38.1169 65.1143 38.1673C65.0981 38.1761 65.0846 38.1888 65.0691 38.1983C65.0966 38.6062 65.0344 39.0152 64.8867 39.3965C65.3362 40.2311 65.7205 41.0992 66.0362 41.9931C66.2881 42.2897 66.4737 42.6368 66.5805 43.011C66.6872 43.3853 66.7127 43.7781 66.6551 44.163C66.9341 45.4288 67.0754 46.7211 67.0766 48.0173C67.0634 52.5005 65.3328 56.8082 62.2407 60.0545C62.0269 60.5646 61.7009 61.0199 61.2868 61.3866L61.2159 61.4282L61.1257 61.4611L61.0447 61.4749C60.9382 61.4723 60.8318 61.4651 60.7259 61.4534C59.6018 62.3666 58.3647 63.1311 57.0452 63.7279C56.7282 64.1801 56.3179 64.5591 55.842 64.8393L55.764 64.8666L55.6646 64.8821L55.5829 64.8797C55.2855 64.813 54.997 64.7112 54.7236 64.5764C54.4248 64.6609 54.124 64.7368 53.8212 64.8043C52.7771 65.0359 51.7211 65.1848 50.7002 65.3287C47.0478 65.8444 43.6058 66.3282 42.7905 70.4053C42.7694 70.5072 42.7687 70.6124 42.7884 70.7146C42.8081 70.8168 42.8478 70.9142 42.9053 71.001C42.9627 71.0878 43.0368 71.1624 43.1232 71.2205C43.2096 71.2786 43.3067 71.319 43.4088 71.3394C43.5109 71.3598 43.616 71.3599 43.7181 71.3395C43.8202 71.3192 43.9173 71.2788 44.0037 71.2208C44.0902 71.1627 44.1643 71.0882 44.2218 71.0014C44.2793 70.9146 44.3191 70.8173 44.3389 70.7151C44.9348 67.7356 47.4414 67.3826 50.9107 66.8939C51.966 66.7452 53.0555 66.5916 54.163 66.3462C55.5161 66.0445 56.8301 65.5885 58.0792 64.9871ZM33.8165 35.7475L33.7999 35.7383L33.8046 35.7417L33.8027 35.7445L33.8165 35.7475ZM33.7492 35.6973C34.0455 35.6131 35.2102 35.2132 35.5595 34.0967C35.8983 33.0154 35.1038 31.1477 34.7861 30.4703C34.1918 30.9875 32.8467 32.2825 32.7195 33.511C32.5989 34.6753 33.5105 35.5039 33.7492 35.6973ZM30.1061 38.9476C30.964 39.6491 32.0681 39.3616 32.3502 39.271C32.441 38.9887 32.7285 37.885 32.0268 37.0267C31.3567 36.2073 29.4968 35.8638 28.7857 35.7591C28.8873 36.5055 29.2119 38.2167 30.1061 38.9476ZM32.4294 39.2409C32.4237 39.2435 32.4181 39.2463 32.4127 39.2495L32.4183 39.2473L32.4198 39.2506L32.4294 39.2409ZM34.8737 37.0269C34.6176 37.3352 34.4516 37.7081 34.394 38.1047C34.3363 38.5012 34.3892 38.906 34.5469 39.2744C34.9153 39.432 35.3201 39.4849 35.7167 39.4273C36.1132 39.3696 36.4861 39.2037 36.7944 38.9476C37.6108 38.2797 37.993 36.3987 38.1144 35.6616C37.3865 35.797 35.541 36.2107 34.8737 37.0269ZM28.1725 44.2266C29.0811 45 30.3033 44.7113 30.6015 44.6238C30.7014 44.329 31.0403 43.1199 30.304 42.1804C29.5903 41.2701 27.5613 40.8602 26.8145 40.7373C26.9045 41.5301 27.2135 43.4102 28.1725 44.2266ZM30.6797 44.5957C30.6741 44.5982 30.6686 44.601 30.6632 44.604L30.6688 44.6021L30.6701 44.6051L30.6797 44.5957ZM35.3848 44.3737C36.2912 43.6632 36.7441 41.6108 36.8866 40.8363C36.1166 40.9616 34.085 41.3666 33.3389 42.2423C33.0542 42.5714 32.8661 42.9727 32.7954 43.4021C32.7246 43.8314 32.774 44.2719 32.938 44.6749C33.3339 44.8553 33.772 44.9227 34.2039 44.8695C34.6357 44.8164 35.0445 44.6448 35.3848 44.3737ZM27.8795 51.0062C29.0469 51.5914 30.2627 50.9576 30.5418 50.7931C30.5715 50.4708 30.6267 49.1005 29.5989 48.2944C28.6078 47.5171 26.3455 47.6177 25.5508 47.6802C25.8421 48.4749 26.6521 50.3904 27.8795 51.0062ZM30.6035 50.7598L30.6116 50.7469C30.6061 50.7514 30.6009 50.7557 30.5962 50.7602L30.6011 50.757L30.6035 50.7598ZM32.968 50.2531C33.4317 50.3419 33.911 50.3005 34.3525 50.1333C34.794 49.9662 35.1806 49.6799 35.4693 49.3063C36.2444 48.3181 36.183 46.0192 36.1325 45.1916C35.376 45.512 33.32 46.4657 32.7575 47.5869C32.5427 48.0074 32.4486 48.4791 32.4858 48.9498C32.5229 49.4205 32.6899 49.8716 32.968 50.2531ZM32.1519 57.1288C32.1351 56.7921 31.9864 55.3039 30.7461 54.5971C29.5537 53.9171 27.1254 54.3958 26.3096 54.5846C26.7371 55.3735 27.9115 57.3159 29.331 57.783C30.6879 58.2297 31.891 57.3417 32.1519 57.1288ZM32.2069 57.0869L32.2133 57.0725C32.2084 57.0775 32.2038 57.0828 32.1996 57.0884L32.2041 57.0843L32.2069 57.0869ZM34.6247 56.1811C35.1357 56.203 35.6427 56.0828 36.0895 55.834C36.5363 55.5852 36.9055 55.2174 37.156 54.7715C37.833 53.5841 37.3923 51.1084 37.2101 50.2553C36.4713 50.7039 34.3972 52.0581 33.9699 53.3561C33.8064 53.8409 33.7808 54.3615 33.8958 54.86C34.0108 55.3585 34.262 55.8152 34.6213 56.1794L34.6247 56.1811ZM33.7179 59.5787C32.3712 58.9303 29.7647 59.6412 28.9243 59.8996C29.4324 60.7036 30.8488 62.7328 32.4243 63.1332C33.9355 63.5165 35.17 62.4537 35.4239 62.2126C35.3848 61.8652 35.1234 60.2563 33.7179 59.5787ZM35.4748 62.168L35.4806 62.1523C35.4759 62.1579 35.4714 62.1638 35.4673 62.1699L35.4716 62.1652L35.4748 62.168ZM37.9756 61.0194L37.9855 61.0228C38.5391 61.0096 39.0781 60.8427 39.5424 60.5409C40.0067 60.239 40.378 59.8141 40.6148 59.3135C41.2608 57.9729 40.5858 55.3108 40.3327 54.4297C39.5897 54.9524 37.4271 56.5781 37.0604 58.02C36.9201 58.5556 36.9314 59.1197 37.093 59.6494C37.2547 60.179 37.5602 60.6533 37.9756 61.0194ZM41.0122 66.1063L41.0157 66.1082L41.0182 66.0919C41.0148 66.0982 41.0117 66.1048 41.0088 66.1114L41.0122 66.1063ZM38.6782 63.7834C37.15 63.3838 34.5903 64.6595 33.79 65.0898C34.4681 65.808 36.348 67.6291 38.0616 67.7238C39.7137 67.8115 40.7686 66.4543 40.9748 66.1613C40.8679 65.8184 40.2768 64.2006 38.6782 63.7834ZM43.3437 64.4268L43.3587 64.4292C43.9282 64.3035 44.4514 64.022 44.87 63.616C45.2886 63.21 45.5861 62.6957 45.7291 62.1304C46.1266 60.6073 44.8773 57.9824 44.4446 57.1406C43.7951 57.8176 41.8757 59.9439 41.7889 61.5138C41.7526 62.0957 41.8787 62.6763 42.1533 63.1907C42.4278 63.7051 42.84 64.1331 43.3437 64.4268ZM65.3321 35.7166C65.3258 35.7155 65.3194 35.7149 65.313 35.7147L65.3188 35.7157V35.7194L65.3321 35.7166ZM65.2498 35.6973C65.4887 35.5028 66.4001 34.6746 66.2796 33.5112C66.1524 32.2823 64.8072 30.9873 64.213 30.4703C63.8952 31.1477 63.1007 33.0154 63.4396 34.0967C63.7889 35.2139 64.9536 35.6137 65.2498 35.6973ZM68.8929 38.9476C69.7871 38.2172 70.1117 36.5055 70.2134 35.76C69.5022 35.864 67.6423 36.2075 66.9722 37.0276C66.2705 37.8859 66.5578 38.9895 66.6489 39.2718C66.931 39.3619 68.0351 39.6491 68.8929 38.9476ZM66.6783 39.3485L66.6704 39.3333L66.6725 39.3391L66.6699 39.3402L66.6783 39.3485Z" fill="#445069"/>
<path d="M62.2044 38.9477C62.5126 39.2037 62.8856 39.3697 63.2821 39.4274C63.6787 39.4851 64.0835 39.4321 64.4519 39.2745C64.6096 38.9061 64.6626 38.5013 64.605 38.1047C64.5474 37.7082 64.3814 37.3352 64.1253 37.027C63.4574 36.2106 61.6116 35.7966 60.8848 35.6619C61.0062 36.3992 61.3884 38.2806 62.2044 38.9477ZM68.4278 44.7016C68.425 44.6958 68.4218 44.6905 68.4188 44.6851L68.4209 44.6907L68.4177 44.6922L68.4278 44.7016ZM68.695 42.1804C67.9588 43.1195 68.2976 44.3289 68.3975 44.6239C68.6957 44.7115 69.9177 45.0009 70.8265 44.2266C71.7849 43.4102 72.0941 41.5303 72.1845 40.7373C71.4375 40.8607 69.4079 41.271 68.695 42.1804ZM62.1131 40.8362C62.2555 41.6107 62.7093 43.6639 63.6146 44.3738C63.955 44.6449 64.3638 44.8165 64.7957 44.8696C65.2276 44.9227 65.6658 44.8552 66.0617 44.6746C66.2257 44.2715 66.2751 43.831 66.2043 43.4017C66.1336 42.9724 65.9455 42.571 65.6608 42.2419C64.9138 41.3658 62.8831 40.961 62.1131 40.8362ZM68.4574 50.7935C68.7367 50.9579 69.9527 51.5923 71.1196 51.0064C72.347 50.3907 73.1569 48.4751 73.4482 47.6807C72.6533 47.6183 70.3915 47.5176 69.4002 48.2949C68.3728 49.1006 68.4278 50.4706 68.4574 50.7935ZM68.4695 50.8754C68.468 50.8692 68.4663 50.863 68.4643 50.8569V50.8627H68.4609L68.4695 50.8754ZM66.031 50.2532C66.3091 49.8717 66.476 49.4205 66.5132 48.9499C66.5504 48.4792 66.4563 48.0074 66.2415 47.587C65.6791 46.4657 63.623 45.512 62.8665 45.1917C62.8165 46.0193 62.7555 48.3192 63.5298 49.3064C63.8184 49.68 64.205 49.9663 64.6465 50.1334C65.088 50.3006 65.5673 50.342 66.031 50.2532ZM68.2531 54.5971C67.0122 55.3044 66.8641 56.7924 66.8474 57.1288C67.108 57.342 68.3115 58.2301 69.6683 57.7828C71.0878 57.3158 72.2621 55.3734 72.6896 54.5844C71.8732 54.3956 69.4453 53.9161 68.2531 54.5971ZM66.8478 57.2122C66.8478 57.2047 66.8463 57.1976 66.8452 57.1907V57.1969H66.8412L66.8478 57.2122ZM61.7891 50.2553C61.608 51.1085 61.1661 53.5841 61.8432 54.7716C62.0934 55.2178 62.4625 55.5858 62.9094 55.8346C63.3563 56.0835 63.8635 56.2034 64.3745 56.1812L64.378 56.1797C64.7373 55.8155 64.9884 55.3587 65.1034 54.8603C65.2184 54.3618 65.1928 53.8412 65.0294 53.3564C64.6018 52.0579 62.5275 50.7037 61.7891 50.2553ZM63.565 62.2793L63.5706 62.2948C63.5706 62.2872 63.5706 62.2799 63.5693 62.2733V62.2797L63.565 62.2793ZM65.2814 59.5787C63.8759 60.2561 63.6149 61.8646 63.5753 62.2125C63.8293 62.4535 65.0638 63.5168 66.575 63.1333C68.1504 62.7328 69.5669 60.7036 70.075 59.8999C69.2334 59.6412 66.6267 58.9303 65.2814 59.5787ZM61.0135 61.0231L61.0234 61.0197C61.4391 60.6536 61.7449 60.1792 61.9067 59.6495C62.0685 59.1197 62.0798 58.5554 61.9395 58.0196C61.5725 56.5763 59.4099 54.9518 58.6672 54.4293C58.4141 55.3102 57.7391 57.9725 58.3853 59.3132C58.6219 59.8137 58.993 60.2387 59.4571 60.5406C59.9212 60.8425 60.46 61.0096 61.0135 61.0231ZM60.3209 63.7834C58.7224 64.2006 58.1314 65.8188 58.0242 66.1611C58.2309 66.4543 59.287 67.8098 60.9375 67.7236C62.6506 67.6289 64.5309 65.8081 65.209 65.0897C64.4085 64.6598 61.8482 63.3855 60.3209 63.7834ZM58.0014 66.224L58.004 66.2408C58.0054 66.2337 58.0064 66.2265 58.007 66.2193L58.0055 66.2255L58.0014 66.224ZM53.2699 62.1308C53.413 62.6961 53.7104 63.2105 54.129 63.6164C54.5476 64.0224 55.0709 64.304 55.6403 64.4297L55.6555 64.4273C56.1591 64.1335 56.5711 63.7056 56.8456 63.1913C57.1201 62.677 57.2463 62.0965 57.2101 61.5147C57.1242 59.9435 55.2041 57.8181 54.5547 57.1415C54.122 57.9831 52.8731 60.6091 53.2699 62.1308Z" fill="#445069"/>
</svg>
