<svg width="50" height="38" viewBox="0 0 50 38" fill="none" xmlns="http://www.w3.org/2000/svg">
<g clip-path="url(#clip0_114_198)">
<path d="M11.7266 0.25H38.2656V37.75H11.7188L11.7266 0.25Z" fill="white"/>
<path d="M-1.53906 0.25H11.7266V37.75H-1.53906V0.25ZM38.2656 0.25H51.5312V37.75H38.2734L38.2656 0.25ZM15.7031 18.375L14.6641 18.7188L19.4609 22.9375C19.8281 24.0078 19.3359 24.3281 19.0234 24.8906L24.2266 24.2344L24.1016 29.4688L25.1875 29.4453L24.9453 24.2422L30.1562 24.8672C29.8359 24.1875 29.5469 23.8281 29.8438 22.7422L34.6328 18.7578L33.7969 18.4453C33.1094 17.9141 34.0938 15.8984 34.2344 14.625C34.2344 14.625 31.4453 15.5859 31.2656 15.0781L30.5469 13.7109L28 16.5078C27.7266 16.5781 27.6094 16.4688 27.5391 16.2344L28.7109 10.3906L26.8516 11.4375C26.6953 11.5078 26.5391 11.4453 26.4453 11.2656L24.6484 7.67188L22.8047 11.4062C22.6641 11.5391 22.5234 11.5547 22.4141 11.4609L20.625 10.4688L21.6953 16.2578C21.6094 16.4922 21.4062 16.5547 21.1719 16.4297L18.7344 13.6719C18.4219 14.1797 18.2031 15.0078 17.7812 15.1953C17.3594 15.375 15.9453 14.8438 15 14.6484C15.3281 15.8047 16.3281 17.7422 15.7031 18.375Z" fill="#D52B1E"/>
</g>
<defs>
<clipPath id="clip0_114_198">
<rect width="50" height="37.5" fill="white" transform="translate(0 0.25)"/>
</clipPath>
</defs>
</svg>
