<svg width="100" height="100" viewBox="0 0 100 100" fill="none" xmlns="http://www.w3.org/2000/svg">
<circle cx="50" cy="50" r="50" fill="white"/>
<circle cx="49.5" cy="50.5" r="42" stroke="#5C5470" stroke-dasharray="3 3"/>
<path d="M31.2718 56.7469H50.608C50.8853 58.0678 51.4613 59.2769 52.2528 60.3137L49.4179 69.3387C49.2284 69.944 49.9019 70.458 50.4353 70.112L53.6158 68.0495L55.1531 71.6054C55.4042 72.1846 56.2375 72.1352 56.4243 71.5394L58.85 63.8171C59.0161 63.8263 59.4836 63.8336 59.5516 63.8321L62.3437 71.7768C62.5525 72.37 63.3867 72.3853 63.6164 71.8L65.0335 68.1944L68.2817 70.1491C68.8241 70.4748 69.4834 69.9431 69.2725 69.342L66.2078 60.6226C67.1338 59.5126 67.7975 58.1767 68.0988 56.7093C69.6929 56.523 70.939 55.1795 70.939 53.536V31.9803C70.939 30.21 69.4986 28.7695 67.7286 28.7695H31.2718C29.5015 28.7695 28.061 30.21 28.061 31.9803V53.5361C28.0611 55.3065 29.5015 56.7469 31.2718 56.7469ZM55.6757 69.3912L54.5436 66.773C54.3743 66.383 53.8975 66.2466 53.5509 66.4729L51.2789 67.9462L53.3119 61.4744C54.4657 62.5363 55.8932 63.3033 57.4813 63.6428L55.6757 69.3912ZM65.0456 66.6165C64.688 66.401 64.2173 66.5578 64.0634 66.95L63.0202 69.6047L60.9422 63.6919C62.528 63.4048 63.9677 62.7008 65.1449 61.6934L67.366 68.0128L65.0456 66.6165ZM59.349 62.4843C55.1723 62.4843 51.7743 59.0865 51.7743 54.91C51.7743 50.7334 55.1723 47.3353 59.349 47.3353C63.5256 47.3353 66.923 50.7333 66.923 54.91C66.923 59.0866 63.5256 62.4843 59.349 62.4843ZM29.4192 31.9803C29.4192 30.9586 30.2501 30.1277 31.2718 30.1277H67.7287C68.75 30.1277 69.5809 30.9586 69.5809 31.9803V53.5361C69.5809 54.3713 69.0219 55.0707 68.2612 55.3013C68.267 55.1706 68.2811 55.042 68.2811 54.9099C68.2811 49.9842 64.2743 45.977 59.3489 45.977C54.4235 45.977 50.416 49.9842 50.416 54.9099C50.416 55.0715 50.4317 55.2292 50.4403 55.3887H31.2718C30.2501 55.3887 29.4192 54.5578 29.4192 53.5361V31.9803Z" fill="#445069"/>
<path d="M44.1717 34.8842H54.8288C54.9179 34.8842 55.0063 34.8667 55.0887 34.8326C55.1711 34.7984 55.2459 34.7484 55.309 34.6854C55.372 34.6223 55.4221 34.5474 55.4562 34.4651C55.4903 34.3827 55.5078 34.2943 55.5078 34.2052C55.5078 34.116 55.4903 34.0277 55.4562 33.9453C55.4221 33.8629 55.372 33.788 55.309 33.725C55.2459 33.6619 55.1711 33.6119 55.0887 33.5778C55.0063 33.5436 54.9179 33.5261 54.8288 33.5261H44.1717C44.0825 33.5261 43.9942 33.5436 43.9118 33.5778C43.8294 33.6119 43.7545 33.6619 43.6915 33.725C43.6284 33.788 43.5784 33.8629 43.5443 33.9453C43.5102 34.0277 43.4926 34.116 43.4926 34.2052C43.4926 34.2943 43.5101 34.3827 43.5443 34.4651C43.5784 34.5475 43.6284 34.6223 43.6914 34.6854C43.7545 34.7485 43.8294 34.7985 43.9118 34.8326C43.9942 34.8667 44.0825 34.8842 44.1717 34.8842ZM38.6057 39.7688H60.3948C60.484 39.7688 60.5723 39.7513 60.6547 39.7172C60.7371 39.6831 60.8119 39.633 60.875 39.57C60.9381 39.5069 60.9881 39.4321 61.0222 39.3497C61.0563 39.2673 61.0739 39.179 61.0738 39.0898C61.0739 39.0006 61.0563 38.9123 61.0222 38.8299C60.9881 38.7475 60.9381 38.6726 60.875 38.6096C60.8119 38.5465 60.7371 38.4965 60.6547 38.4624C60.5723 38.4283 60.484 38.4107 60.3948 38.4107H38.6057C38.5166 38.4107 38.4283 38.4283 38.3459 38.4624C38.2635 38.4965 38.1886 38.5465 38.1255 38.6096C38.0625 38.6726 38.0125 38.7475 37.9783 38.8299C37.9442 38.9123 37.9267 39.0006 37.9267 39.0898C37.9267 39.179 37.9442 39.2673 37.9783 39.3497C38.0124 39.4321 38.0624 39.5069 38.1255 39.57C38.1886 39.6331 38.2634 39.6831 38.3458 39.7172C38.4282 39.7513 38.5166 39.7689 38.6057 39.7688ZM38.6057 44.7127H60.3948C60.7702 44.7127 61.0738 44.4086 61.0738 44.0336C61.0738 43.6587 60.7701 43.3546 60.3948 43.3546H38.6057C38.2304 43.3546 37.9267 43.6587 37.9267 44.0336C37.9267 44.4086 38.2304 44.7127 38.6057 44.7127ZM34.3356 52.6169H41.7956C43.2233 52.6169 44.3846 51.4557 44.3846 50.0286C44.3846 48.6011 43.2233 47.4399 41.7956 47.4399H34.3356C32.9078 47.4399 31.7466 48.6011 31.7466 50.0286C31.7466 51.4557 32.9078 52.6169 34.3356 52.6169ZM34.3356 48.7981H41.7956C42.474 48.7981 43.0264 49.3502 43.0264 50.0286C43.0264 50.707 42.474 51.2588 41.7956 51.2588H34.3356C33.6571 51.2588 33.1048 50.707 33.1048 50.0286C33.1048 49.3502 33.6571 48.7981 34.3356 48.7981ZM59.3489 50.4488C56.8892 50.4488 54.8877 52.4499 54.8877 54.9099C54.8877 57.3696 56.8892 59.3707 59.3489 59.3707C61.8086 59.3707 63.8093 57.3696 63.8093 54.9099C63.8093 52.4499 61.8086 50.4488 59.3489 50.4488ZM59.3489 58.0125C57.6379 58.0125 56.2459 56.6205 56.2459 54.9099C56.2459 53.1989 57.6379 51.8069 59.3489 51.8069C61.0592 51.8069 62.4512 53.1989 62.4512 54.9099C62.4512 56.6205 61.0592 58.0125 59.3489 58.0125Z" fill="#445069"/>
</svg>
