<svg width="80" height="80" viewBox="0 0 80 80" fill="none" xmlns="http://www.w3.org/2000/svg">
<path d="M27.7625 39.8828L32.0328 21.2578C32.1073 20.935 32.3066 20.655 32.5872 20.4789C32.8678 20.3029 33.2067 20.2453 33.5297 20.3187C34.2016 20.4734 34.6219 21.1421 34.4688 21.8156L30.1984 40.4406C30.1353 40.7159 29.9807 40.9617 29.76 41.1379C29.5392 41.3141 29.2653 41.4103 28.9828 41.4109C28.8906 41.4109 28.7969 41.4 28.7031 41.3796C28.5431 41.3431 28.3918 41.2754 28.2579 41.1805C28.124 41.0855 28.0101 40.965 27.9228 40.826C27.8354 40.687 27.7763 40.5322 27.7488 40.3703C27.7213 40.2085 27.726 40.0428 27.7625 39.8828ZM13.8172 31.9375L24.0438 37.6515C24.2359 37.7593 24.4453 37.8109 24.6516 37.8109C25.0891 37.8109 25.5141 37.5796 25.7437 37.1703C26.0797 36.5687 25.8641 35.8078 25.2625 35.4703L16.9875 30.8468L25.2625 26.2234C25.8641 25.8875 26.0797 25.1265 25.7437 24.5234C25.4078 23.9218 24.6469 23.7062 24.0438 24.0421L13.8172 29.7562C13.6231 29.8645 13.4616 30.0228 13.3492 30.2145C13.2368 30.4063 13.1778 30.6246 13.1781 30.8468C13.1775 31.0691 13.2364 31.2876 13.3488 31.4794C13.4612 31.6712 13.6229 31.8294 13.8172 31.9375ZM36.4906 37.1703C36.5705 37.3136 36.6779 37.4397 36.8067 37.5415C36.9354 37.6433 37.0829 37.7187 37.2408 37.7634C37.3987 37.8081 37.5639 37.8212 37.7269 37.802C37.8898 37.7828 38.0474 37.7317 38.1906 37.6515L48.4172 31.9375C48.8125 31.7171 49.0562 31.3 49.0562 30.8468C49.0562 30.3937 48.8109 29.9765 48.4172 29.7562L38.1906 24.0421C37.9013 23.8809 37.5598 23.841 37.2411 23.9312C36.9224 24.0214 36.6525 24.2344 36.4906 24.5234C36.1547 25.125 36.3703 25.8859 36.9719 26.2234L45.2469 30.8468L36.9719 35.4703C36.3703 35.8062 36.1547 36.5671 36.4906 37.1703ZM80 46.9296V51.3109C80 51.8515 79.6516 52.3312 79.1375 52.4984L76.4125 53.3843C76.0609 54.6531 75.5563 55.8703 74.9062 57.014L76.2094 59.5703C76.4562 60.0531 76.3625 60.639 75.9781 61.0218L72.8844 64.1156C72.6979 64.3026 72.457 64.4258 72.1962 64.4673C71.9354 64.5089 71.6681 64.4667 71.4328 64.3468L68.8781 63.0437C67.7341 63.6955 66.5132 64.202 65.2438 64.5515L65.0328 65.1953L64.3609 67.2718C64.2795 67.5231 64.1206 67.742 63.907 67.8973C63.6933 68.0525 63.436 68.1361 63.1719 68.1359H58.7922C58.25 68.1359 57.7703 67.7875 57.6031 67.2718L56.7203 64.5515C55.45 64.2015 54.2313 63.6968 53.0859 63.0437L50.5312 64.3468C50.296 64.467 50.0287 64.5094 49.7678 64.4679C49.5069 64.4263 49.2659 64.3029 49.0797 64.1156L45.9859 61.0218C45.8222 60.8582 45.7071 60.6525 45.6533 60.4274C45.5995 60.2023 45.6092 59.9667 45.6812 59.7468H37.9484L40.0578 65.6375H44.1922C44.8828 65.6375 45.4406 66.1968 45.4406 66.8859C45.4406 67.575 44.8812 68.1343 44.1922 68.1343H18.0406C17.35 68.1343 16.7922 67.575 16.7922 66.8859C16.7922 66.1968 17.3516 65.6375 18.0406 65.6375H22.175L24.2844 59.7468H5.16563C2.31719 59.7468 0 57.4312 0 54.5828V17.0234C0 14.1781 2.31719 11.864 5.16406 11.864H57.0687C59.9172 11.864 62.2328 14.1781 62.2328 17.0234V30.1031H63.1719C63.7141 30.1031 64.1937 30.4515 64.3609 30.9671L65.2438 33.689C66.5141 34.0406 67.7312 34.5453 68.8766 35.1953L71.4344 33.8953C71.6692 33.7758 71.9357 33.7338 72.1959 33.775C72.456 33.8163 72.6965 33.9388 72.8828 34.125L75.9781 37.2156C76.1652 37.402 76.2883 37.6429 76.3299 37.9037C76.3714 38.1645 76.3292 38.4318 76.2094 38.6671L74.9062 41.2218C75.5609 42.3734 76.0656 43.5906 76.4141 44.8546L77.0578 45.0656L79.1344 45.7375C79.65 45.9078 80 46.3875 80 46.9296ZM2.49844 17.0234V47.3359H41.9672V46.9281C41.9672 46.3859 42.3156 45.9062 42.8312 45.739L45.5531 44.8562C45.9047 43.5859 46.4094 42.3687 47.0609 41.2234L45.7578 38.6671C45.6376 38.4319 45.5952 38.1645 45.6368 37.9037C45.6783 37.6428 45.8017 37.4018 45.9891 37.2156L49.0844 34.125C49.2706 33.9387 49.511 33.816 49.7711 33.7745C50.0312 33.7329 50.2978 33.7747 50.5328 33.8937L53.0906 35.1937C54.2359 34.5437 55.4531 34.039 56.7234 33.6875L56.9344 33.0421L57.6062 30.9656C57.6876 30.7143 57.8466 30.4954 58.0602 30.3401C58.2739 30.1849 58.5312 30.1013 58.7953 30.1015H59.7391V17.0218C59.7391 15.5546 58.5422 14.3593 57.0734 14.3593H5.16563C3.69531 14.3625 2.49844 15.5562 2.49844 17.0234ZM5.16563 57.25H46.9406L47.0609 57.014C46.4116 55.8706 45.9057 54.6515 45.5547 53.3843L42.8297 52.4984C42.579 52.4168 42.3606 52.258 42.2057 52.0447C42.0507 51.8314 41.9673 51.5745 41.9672 51.3109V49.8359H2.49844V54.5843C2.49844 56.0531 3.69531 57.25 5.16563 57.25ZM35.2984 59.7468H26.9375L24.8281 65.6375H37.4078L35.2984 59.7468ZM77.5016 47.8375L74.9828 47.0171C74.7778 46.9495 74.5937 46.8302 74.4484 46.6706C74.303 46.511 74.2013 46.3166 74.1531 46.1062C73.8187 44.6359 73.2375 43.2328 72.4219 41.9359C72.3068 41.753 72.2412 41.5434 72.2316 41.3275C72.222 41.1116 72.2688 40.897 72.3672 40.7046L73.5703 38.3421L71.7578 36.5328L69.3953 37.7343C69.2029 37.8324 68.9883 37.8789 68.7725 37.8693C68.5567 37.8597 68.3471 37.7944 68.1641 37.6796C66.8801 36.8721 65.4692 36.2868 63.9906 35.9484C63.7809 35.8999 63.5873 35.7983 63.4283 35.6532C63.2693 35.5082 63.1503 35.3246 63.0828 35.1203L62.2625 32.6015H59.7L58.8797 35.1203C58.8124 35.3248 58.6935 35.5084 58.5345 35.6535C58.3755 35.7986 58.1817 35.9002 57.9719 35.9484C56.4936 36.2878 55.0829 36.873 53.7984 37.6796C53.6156 37.7947 53.4059 37.8603 53.19 37.8699C52.9742 37.8795 52.7595 37.8328 52.5672 37.7343L50.2047 36.5328L48.3922 38.3421L49.5953 40.7046C49.6934 40.8971 49.7399 41.1117 49.7303 41.3275C49.7207 41.5433 49.6554 41.7529 49.5406 41.9359C48.7338 43.2202 48.1485 44.631 47.8094 46.1093C47.7609 46.319 47.6592 46.5127 47.5142 46.6717C47.3692 46.8307 47.1856 46.9497 46.9812 47.0171L44.4625 47.8375V50.4031L46.9781 51.2203C47.3953 51.3562 47.7125 51.7 47.8109 52.1281C48.1504 53.6063 48.7356 55.0171 49.5422 56.3015C49.7766 56.6734 49.7969 57.1406 49.5969 57.5328L48.8234 59.05C48.8141 59.0687 48.8047 59.089 48.7938 59.1078L48.3922 59.8968L50.2047 61.7093L52.5672 60.5062C52.7599 60.408 52.9749 60.3616 53.191 60.3714C53.4071 60.3813 53.617 60.4471 53.8 60.5625C55.0859 61.3734 56.4875 61.9562 57.9672 62.2921C58.3953 62.389 58.7406 62.7046 58.8781 63.1218L59.6984 65.6406H62.2609L63.0812 63.1218C63.1486 62.9167 63.2679 62.7325 63.4275 62.5871C63.5872 62.4417 63.7817 62.3401 63.9922 62.2921C65.4697 61.9574 66.8791 61.3724 68.1594 60.5625C68.3424 60.4471 68.5522 60.3813 68.7683 60.3714C68.9845 60.3616 69.1994 60.408 69.3922 60.5062L71.7547 61.7093L73.5672 59.8968L72.3641 57.5343C72.266 57.3419 72.2195 57.1273 72.2291 56.9115C72.2387 56.6957 72.304 56.4861 72.4188 56.3031C73.2266 55.0156 73.8094 53.6125 74.15 52.1296C74.1982 51.9191 74.3003 51.7247 74.4463 51.5656C74.5923 51.4064 74.7772 51.2879 74.9828 51.2218L77.4984 50.4046V47.8375H77.5016ZM68.7047 49.1218C68.7047 53.3781 65.2422 56.8421 60.9844 56.8421C56.725 56.8421 53.2594 53.3796 53.2594 49.1218C53.2594 44.8625 56.725 41.3968 60.9844 41.3968C65.2422 41.3968 68.7047 44.8625 68.7047 49.1218ZM66.2078 49.1218C66.2078 46.2406 63.8656 43.8953 60.9859 43.8953C58.1047 43.8953 55.7594 46.2406 55.7594 49.1218C55.7594 52.0015 58.1047 54.3437 60.9859 54.3437C63.8641 54.3437 66.2078 52.0015 66.2078 49.1218Z" fill="white"/>
</svg>
