<svg width="80" height="80" viewBox="0 0 80 80" fill="none" xmlns="http://www.w3.org/2000/svg">
<g clip-path="url(#clip0_97_1508)">
<path d="M35.5088 58.7088C33.8175 58.7088 32.4425 57.3363 32.4425 55.645C32.4425 53.9538 33.8175 52.58 35.5088 52.58C37.2 52.58 38.575 53.9538 38.575 55.645C38.575 57.3363 37.2 58.7088 35.5088 58.7088ZM35.5088 55.1613C35.3803 55.1613 35.2572 55.2122 35.1662 55.3029C35.0753 55.3936 35.0241 55.5166 35.0238 55.645C35.0238 56.1788 35.9938 56.1788 35.9938 55.645C35.9934 55.5166 35.9422 55.3936 35.8513 55.3029C35.7603 55.2122 35.6372 55.1613 35.5088 55.1613ZM47.0337 58.7088C45.3438 58.7088 43.97 57.3363 43.97 55.645C43.97 53.9538 45.3437 52.58 47.035 52.58C48.7262 52.58 50.0987 53.9538 50.0987 55.645C50.0987 57.3363 48.7237 58.7088 47.0337 58.7088ZM47.0337 55.1613C46.9054 55.1613 46.7824 55.2122 46.6917 55.303C46.601 55.3937 46.55 55.5167 46.55 55.645C46.55 56.1788 47.5187 56.1788 47.5187 55.645C47.5187 55.5167 47.4678 55.3937 47.3771 55.303C47.2863 55.2122 47.162 55.1613 47.0337 55.1613ZM56.6875 29.28C56.4081 28.9135 56.0476 28.6168 55.6342 28.4132C55.2208 28.2095 54.7658 28.1045 54.305 28.1063H24.985L24.2225 25.25C24.0335 24.544 23.6169 23.92 23.0372 23.4747C22.4575 23.0295 21.7472 22.788 21.0163 22.7875H19.0925C18.7504 22.7875 18.4223 22.9234 18.1803 23.1654C17.9384 23.4073 17.8025 23.7354 17.8025 24.0775C17.8025 24.4196 17.9384 24.7478 18.1803 24.9897C18.4223 25.2316 18.7504 25.3675 19.0925 25.3675H21.0163C21.35 25.3675 21.6412 25.5925 21.7287 25.9163L27.8925 48.9613C28.1132 49.7834 28.5987 50.5098 29.2739 51.0282C29.9491 51.5465 30.7763 51.8279 31.6275 51.8288H52.315C52.6573 51.8288 52.9856 51.6928 53.2276 51.4508C53.4697 51.2087 53.6056 50.8804 53.6056 50.5381C53.6056 50.1958 53.4697 49.8676 53.2276 49.6255C52.9856 49.3835 52.6573 49.2475 52.315 49.2475H31.6275C31.0462 49.2475 30.535 48.855 30.385 48.295L29.915 46.5363H49.3375C50.4762 46.5349 51.5826 46.1583 52.4858 45.4649C53.3889 44.7714 54.0384 43.7997 54.3337 42.7L57.2087 31.8838C57.3285 31.439 57.3437 30.9725 57.2533 30.5208C57.1629 30.0691 56.9692 29.6445 56.6875 29.28ZM54.6413 30.8525C54.6888 30.915 54.7612 31.0438 54.7137 31.2213L53.435 36.0313H48.9025L49.6212 30.6875H54.305C54.4875 30.6875 54.5925 30.79 54.6413 30.8525ZM46.3 36.0313H41.5575V30.6875H47.02L46.3 36.0313ZM38.9775 30.6875V36.0313H34.24L33.515 30.6875H38.9775ZM30.9113 30.6875L31.635 36.0313H27.1112L25.68 30.6875H30.9113ZM31.985 38.6125L32.7087 43.955H29.2337L27.8025 38.6125H31.985ZM34.59 38.6125H38.9775V43.955H35.3125L34.59 38.6125ZM41.5575 43.955V38.6125H45.9525L45.2325 43.955H41.5575ZM49.3375 43.955H47.8375L48.5563 38.6125H52.75L51.84 42.035C51.6924 42.5854 51.3675 43.0718 50.9155 43.4189C50.4636 43.766 49.9098 43.9544 49.34 43.955H49.3375ZM21.855 8.72752C21.855 8.40694 21.7276 8.09949 21.501 7.8728C21.2743 7.64612 20.9668 7.51877 20.6462 7.51877H7.37125C7.05067 7.51877 6.74322 7.64612 6.51653 7.8728C6.28985 8.09949 6.1625 8.40694 6.1625 8.72752C6.1625 9.0481 6.28985 9.35555 6.51653 9.58223C6.74322 9.80892 7.05067 9.93627 7.37125 9.93627H20.6462C20.9668 9.93627 21.2743 9.80892 21.501 9.58223C21.7276 9.35555 21.855 9.0481 21.855 8.72752ZM58.31 8.72752C58.31 9.06965 58.1741 9.39777 57.9322 9.63969C57.6902 9.88161 57.3621 10.0175 57.02 10.0175C56.6779 10.0175 56.3498 9.88161 56.1078 9.63969C55.8659 9.39777 55.73 9.06965 55.73 8.72752C55.73 8.38539 55.8659 8.05727 56.1078 7.81535C56.3498 7.57343 56.6779 7.43752 57.02 7.43752C57.3621 7.43752 57.6902 7.57343 57.9322 7.81535C58.1741 8.05727 58.31 8.38539 58.31 8.72752ZM62.3438 7.43752C62.0015 7.43752 61.6732 7.5735 61.4311 7.81554C61.1891 8.05757 61.0531 8.38585 61.0531 8.72814C61.0531 9.07044 61.1891 9.39872 61.4311 9.64075C61.6732 9.88279 62.0015 10.0188 62.3438 10.0188C62.686 10.0188 63.0143 9.88279 63.2564 9.64075C63.4984 9.39872 63.6344 9.07044 63.6344 8.72814C63.6344 8.38585 63.4984 8.05757 63.2564 7.81554C63.0143 7.5735 62.686 7.43752 62.3438 7.43752ZM67.6675 7.43752C67.3252 7.43752 66.9969 7.5735 66.7549 7.81554C66.5128 8.05757 66.3769 8.38585 66.3769 8.72814C66.3769 9.07044 66.5128 9.39872 66.7549 9.64075C66.9969 9.88279 67.3252 10.0188 67.6675 10.0188C68.0098 10.0188 68.3381 9.88279 68.5801 9.64075C68.8221 9.39872 68.9581 9.07044 68.9581 8.72814C68.9581 8.38585 68.8221 8.05757 68.5801 7.81554C68.3381 7.5735 68.0098 7.43752 67.6675 7.43752ZM79.055 63.825L75.0975 60.4888C75.1 60.41 75.1125 60.3313 75.1125 60.2513V9.83877C75.1125 5.96377 71.95 2.80127 68.075 2.80127H7.0375C3.1625 2.80127 0 5.96377 0 9.83877V60.2513C0 64.1263 3.1625 67.2888 7.0375 67.2888H61.21L61.2113 72.1225C61.2113 73.1638 61.7963 74.0838 62.7388 74.525C63.6738 74.96 64.76 74.825 65.5587 74.1625L67.9762 72.1525L69.3213 75.0438C69.7375 75.9463 70.4837 76.6313 71.4163 76.9713C71.8752 77.1391 72.3626 77.2148 72.8508 77.194C73.339 77.1731 73.8183 77.0563 74.2613 76.85C74.7047 76.6451 75.1031 76.3543 75.4335 75.9945C75.7639 75.6347 76.0198 75.213 76.1862 74.7538C76.3552 74.2955 76.4314 73.8082 76.4104 73.3202C76.3894 72.8322 76.2715 72.3533 76.0638 71.9113L74.72 69.0175L77.8125 68.465C78.3097 68.3784 78.7716 68.1506 79.143 67.8089C79.5145 67.4671 79.7798 67.0258 79.9075 66.5375C80.0409 66.0513 80.0315 65.5369 79.8803 65.0559C79.7291 64.5748 79.4426 64.1475 79.055 63.825ZM2.575 9.83877C2.575 7.38877 4.575 5.38877 7.0375 5.38877H68.075C70.5375 5.38877 72.5375 7.38877 72.5375 9.83877V12.0638H2.575V9.83877ZM61.2062 54.4775L61.2087 64.7025H7.0375C5.85613 64.7025 4.72297 64.2341 3.88645 63.3999C3.04992 62.5657 2.57831 61.4339 2.575 60.2525V14.6525H72.5375V58.3313L65.5638 52.4513C65.1789 52.1235 64.7076 51.9138 64.2065 51.8473C63.7054 51.7808 63.1958 51.8603 62.7388 52.0763C62.279 52.2862 61.8897 52.6245 61.6178 53.0506C61.346 53.4766 61.203 53.9721 61.2062 54.4775ZM77.3562 65.925L72.6162 66.7713C72.4217 66.806 72.2377 66.885 72.0785 67.0021C71.9193 67.1192 71.7892 67.2713 71.6981 67.4467C71.607 67.6221 71.5574 67.8161 71.5532 68.0136C71.549 68.2112 71.5902 68.4071 71.6738 68.5863L73.7237 73.0025C73.7872 73.1372 73.8233 73.2831 73.8299 73.4318C73.8366 73.5805 73.8137 73.729 73.7625 73.8688C73.6584 74.1516 73.4475 74.3824 73.175 74.5113C73.0393 74.5743 72.8925 74.61 72.743 74.6162C72.5935 74.6224 72.4442 74.5991 72.3037 74.5475C72.1624 74.4972 72.0327 74.4191 71.9221 74.3178C71.8115 74.2164 71.7224 74.0939 71.66 73.9575L69.61 69.5463C69.5059 69.3237 69.3406 69.1355 69.1334 69.0035C68.9262 68.8716 68.6857 68.8014 68.44 68.8013C68.1425 68.8013 67.85 68.9038 67.615 69.0988L63.7925 72.1225L63.9 54.4225L77.3913 65.7975L77.3562 65.925Z" fill="white"/>
</g>
<defs>
<clipPath id="clip0_97_1508">
<rect width="80" height="80" fill="white"/>
</clipPath>
</defs>
</svg>
