<svg width="50" height="38" viewBox="0 0 50 38" fill="none" xmlns="http://www.w3.org/2000/svg">
<g clip-path="url(#clip0_114_206)">
<path d="M0 0.25H50V12.75H0V0.25Z" fill="#FF9933"/>
<path d="M0 12.75H50V25.25H0V12.75Z" fill="white"/>
<path d="M0 25.25H50V37.75H0V25.25Z" fill="#128807"/>
<path d="M25 24C27.7614 24 30 21.7614 30 19C30 16.2386 27.7614 14 25 14C22.2386 14 20 16.2386 20 19C20 21.7614 22.2386 24 25 24Z" fill="#000088"/>
<path d="M25 23.375C27.4162 23.375 29.375 21.4162 29.375 19C29.375 16.5838 27.4162 14.625 25 14.625C22.5838 14.625 20.625 16.5838 20.625 19C20.625 21.4162 22.5838 23.375 25 23.375Z" fill="white"/>
<path d="M25 19.875C25.4832 19.875 25.875 19.4832 25.875 19C25.875 18.5168 25.4832 18.125 25 18.125C24.5168 18.125 24.125 18.5168 24.125 19C24.125 19.4832 24.5168 19.875 25 19.875Z" fill="#000088"/>
<path d="M29.3079 19.7958C29.4311 19.8121 29.5441 19.7253 29.5603 19.6021C29.5766 19.4789 29.4898 19.3659 29.3666 19.3497C29.2434 19.3335 29.1304 19.4202 29.1142 19.5434C29.098 19.6666 29.1847 19.7796 29.3079 19.7958Z" fill="#000088"/>
<path d="M24.9999 23.375L25.1499 20.75L24.9999 19.5L24.8499 20.75L24.9999 23.375Z" fill="#000088"/>
<path d="M28.9553 20.8837C29.0701 20.9312 29.2018 20.8767 29.2493 20.7619C29.2969 20.6471 29.2424 20.5155 29.1276 20.4679C29.0127 20.4204 28.8811 20.4749 28.8336 20.5897C28.786 20.7045 28.8405 20.8361 28.9553 20.8837Z" fill="#000088"/>
<path d="M23.8676 23.2261L24.6918 20.7294L24.8705 19.4832L24.4021 20.6517L23.8676 23.2261Z" fill="#000088"/>
<path d="M28.333 21.8431C28.4316 21.9187 28.5729 21.9002 28.6485 21.8016C28.7242 21.703 28.7056 21.5617 28.607 21.4861C28.5084 21.4104 28.3671 21.429 28.2915 21.5276C28.2158 21.6262 28.2344 21.7675 28.333 21.8431Z" fill="#000088"/>
<path d="M22.8125 22.7888L24.2549 20.5904L24.75 19.4329L23.9951 20.4404L22.8125 22.7888Z" fill="#000088"/>
<path d="M27.4836 22.6092C27.5592 22.7078 27.7005 22.7264 27.7991 22.6507C27.8976 22.5751 27.9162 22.4338 27.8406 22.3352C27.7649 22.2367 27.6237 22.2181 27.5251 22.2937C27.4265 22.3694 27.4079 22.5106 27.4836 22.6092Z" fill="#000088"/>
<path d="M21.9063 22.0937L23.8685 20.3436L24.6463 19.3536L23.6564 20.1314L21.9063 22.0937Z" fill="#000088"/>
<path d="M26.465 23.1291C26.5126 23.2439 26.6442 23.2984 26.759 23.2509C26.8738 23.2033 26.9283 23.0717 26.8808 22.9569C26.8332 22.8421 26.7016 22.7876 26.5868 22.8351C26.472 22.8827 26.4175 23.0143 26.465 23.1291Z" fill="#000088"/>
<path d="M21.2111 21.1875L23.5594 20.0049L24.5669 19.25L23.4094 19.7451L21.2111 21.1875Z" fill="#000088"/>
<path d="M25.3464 23.3673C25.3626 23.4905 25.4756 23.5772 25.5988 23.561C25.722 23.5447 25.8088 23.4317 25.7926 23.3085C25.7763 23.1853 25.6633 23.0986 25.5401 23.1148C25.4169 23.131 25.3302 23.2441 25.3464 23.3673Z" fill="#000088"/>
<path d="M20.7741 20.1322L23.3485 19.5977L24.5171 19.1293L23.2709 19.3079L20.7741 20.1322Z" fill="#000088"/>
<path d="M24.2042 23.3084C24.1879 23.4316 24.2747 23.5446 24.3979 23.5608C24.5211 23.577 24.6341 23.4903 24.6503 23.3671C24.6665 23.2439 24.5798 23.1309 24.4566 23.1147C24.3334 23.0985 24.2204 23.1852 24.2042 23.3084Z" fill="#000088"/>
<path d="M20.625 19.0001L23.25 19.1501L24.5 19.0001L23.25 18.8501L20.625 19.0001Z" fill="#000088"/>
<path d="M23.1163 22.9551C23.0688 23.0699 23.1233 23.2015 23.2381 23.2491C23.3529 23.2966 23.4845 23.2421 23.5321 23.1273C23.5796 23.0125 23.5251 22.8809 23.4103 22.8333C23.2955 22.7858 23.1639 22.8403 23.1163 22.9551Z" fill="#000088"/>
<path d="M20.7741 17.8676L23.2709 18.6918L24.5171 18.8705L23.3485 18.4021L20.7741 17.8676Z" fill="#000088"/>
<path d="M22.1567 22.3333C22.081 22.4319 22.0996 22.5731 22.1982 22.6487C22.2968 22.7244 22.438 22.7058 22.5137 22.6072C22.5893 22.5086 22.5707 22.3674 22.4721 22.2917C22.3735 22.2161 22.2323 22.2347 22.1567 22.3333Z" fill="#000088"/>
<path d="M21.211 16.8125L23.4093 18.2549L24.5668 18.75L23.5593 17.9951L21.211 16.8125Z" fill="#000088"/>
<path d="M21.3911 21.4836C21.2925 21.5592 21.2739 21.7005 21.3495 21.7991C21.4252 21.8976 21.5664 21.9162 21.665 21.8406C21.7636 21.7649 21.7822 21.6237 21.7065 21.5251C21.6309 21.4265 21.4896 21.4079 21.3911 21.4836Z" fill="#000088"/>
<path d="M21.9063 15.9066L23.6564 17.8688L24.6464 18.6466L23.8686 17.6566L21.9063 15.9066Z" fill="#000088"/>
<path d="M20.8711 20.4648C20.7563 20.5123 20.7018 20.644 20.7494 20.7588C20.7969 20.8736 20.9285 20.9281 21.0433 20.8805C21.1582 20.833 21.2127 20.7014 21.1651 20.5866C21.1176 20.4718 20.9859 20.4172 20.8711 20.4648Z" fill="#000088"/>
<path d="M22.8125 15.2109L23.9951 17.5592L24.75 18.5667L24.2549 17.4092L22.8125 15.2109Z" fill="#000088"/>
<path d="M20.6325 19.3464C20.5093 19.3626 20.4226 19.4756 20.4388 19.5988C20.455 19.722 20.568 19.8088 20.6912 19.7926C20.8144 19.7763 20.9012 19.6633 20.8849 19.5401C20.8687 19.4169 20.7557 19.3302 20.6325 19.3464Z" fill="#000088"/>
<path d="M23.8673 14.7739L24.4018 17.3483L24.8702 18.5169L24.6916 17.2706L23.8673 14.7739Z" fill="#000088"/>
<path d="M20.6919 18.2042C20.5687 18.1879 20.4556 18.2747 20.4394 18.3979C20.4232 18.5211 20.5099 18.6341 20.6331 18.6503C20.7563 18.6665 20.8693 18.5798 20.8856 18.4566C20.9018 18.3334 20.8151 18.2204 20.6919 18.2042Z" fill="#000088"/>
<path d="M24.9999 14.625L24.8499 17.25L24.9999 18.5L25.1499 17.25L24.9999 14.625Z" fill="#000088"/>
<path d="M21.0444 17.1163C20.9296 17.0688 20.798 17.1233 20.7504 17.2381C20.7029 17.3529 20.7574 17.4845 20.8722 17.5321C20.987 17.5796 21.1186 17.5251 21.1662 17.4103C21.2137 17.2955 21.1592 17.1639 21.0444 17.1163Z" fill="#000088"/>
<path d="M26.1322 14.7739L25.3079 17.2706L25.1293 18.5168L25.5977 17.3483L26.1322 14.7739Z" fill="#000088"/>
<path d="M21.6667 16.1569C21.5681 16.0813 21.4269 16.0998 21.3513 16.1984C21.2756 16.297 21.2942 16.4383 21.3928 16.5139C21.4914 16.5896 21.6326 16.571 21.7083 16.4724C21.7839 16.3738 21.7653 16.2325 21.6667 16.1569Z" fill="#000088"/>
<path d="M27.1872 15.2112L25.7448 17.4096L25.2497 18.5671L26.0046 17.5596L27.1872 15.2112Z" fill="#000088"/>
<path d="M22.5162 15.3908C22.4405 15.2922 22.2993 15.2736 22.2007 15.3493C22.1021 15.4249 22.0835 15.5662 22.1592 15.6648C22.2348 15.7633 22.3761 15.7819 22.4746 15.7063C22.5732 15.6306 22.5918 15.4894 22.5162 15.3908Z" fill="#000088"/>
<path d="M28.0934 15.9063L26.1312 17.6564L25.3534 18.6464L26.3434 17.8686L28.0934 15.9063Z" fill="#000088"/>
<path d="M23.5347 14.8709C23.4872 14.7561 23.3555 14.7016 23.2407 14.7491C23.1259 14.7967 23.0714 14.9283 23.119 15.0431C23.1665 15.1579 23.2981 15.2124 23.413 15.1649C23.5278 15.1173 23.5823 14.9857 23.5347 14.8709Z" fill="#000088"/>
<path d="M28.7887 16.8125L26.4403 17.9951L25.4328 18.75L26.5903 18.2549L28.7887 16.8125Z" fill="#000088"/>
<path d="M24.6534 14.6327C24.6371 14.5095 24.5241 14.4228 24.4009 14.439C24.2777 14.4553 24.191 14.5683 24.2072 14.6915C24.2234 14.8147 24.3364 14.9014 24.4596 14.8852C24.5828 14.869 24.6696 14.7559 24.6534 14.6327Z" fill="#000088"/>
<path d="M29.2256 17.8678L26.6512 18.4023L25.4827 18.8707L26.7289 18.6921L29.2256 17.8678Z" fill="#000088"/>
<path d="M25.7956 14.6916C25.8118 14.5684 25.7251 14.4554 25.6019 14.4392C25.4787 14.423 25.3657 14.5097 25.3494 14.6329C25.3332 14.7561 25.4199 14.8691 25.5431 14.8853C25.6663 14.9015 25.7794 14.8148 25.7956 14.6916Z" fill="#000088"/>
<path d="M29.3748 18.9999L26.7498 18.8499L25.4998 18.9999L26.7498 19.1499L29.3748 18.9999Z" fill="#000088"/>
<path d="M26.8834 15.0449C26.931 14.9301 26.8765 14.7985 26.7617 14.7509C26.6469 14.7034 26.5152 14.7579 26.4677 14.8727C26.4201 14.9875 26.4747 15.1191 26.5895 15.1667C26.7043 15.2142 26.8359 15.1597 26.8834 15.0449Z" fill="#000088"/>
<path d="M29.2256 20.1324L26.7289 19.3082L25.4827 19.1295L26.6513 19.5979L29.2256 20.1324Z" fill="#000088"/>
<path d="M27.8431 15.6667C27.9187 15.5681 27.9002 15.4269 27.8016 15.3513C27.703 15.2756 27.5617 15.2942 27.4861 15.3928C27.4104 15.4914 27.429 15.6326 27.5276 15.7083C27.6262 15.7839 27.7675 15.7653 27.8431 15.6667Z" fill="#000088"/>
<path d="M28.7888 21.1875L26.5904 19.7451L25.4329 19.25L26.4404 20.0049L28.7888 21.1875Z" fill="#000088"/>
<path d="M28.6087 16.5164C28.7073 16.4408 28.7259 16.2995 28.6502 16.2009C28.5746 16.1024 28.4333 16.0838 28.3348 16.1594C28.2362 16.2351 28.2176 16.3763 28.2932 16.4749C28.3689 16.5735 28.5101 16.5921 28.6087 16.5164Z" fill="#000088"/>
<path d="M28.0934 22.0934L26.3433 20.1312L25.3534 19.3534L26.1312 20.3434L28.0934 22.0934Z" fill="#000088"/>
<path d="M29.1286 17.5352C29.2434 17.4877 29.2979 17.356 29.2504 17.2412C29.2028 17.1264 29.0712 17.0719 28.9564 17.1195C28.8416 17.167 28.7871 17.2986 28.8346 17.4134C28.8822 17.5282 29.0138 17.5828 29.1286 17.5352Z" fill="#000088"/>
<path d="M27.1873 22.7891L26.0047 20.4408L25.2498 19.4333L25.7449 20.5908L27.1873 22.7891Z" fill="#000088"/>
<path d="M29.3673 18.6536C29.4905 18.6374 29.5772 18.5244 29.561 18.4012C29.5447 18.278 29.4317 18.1912 29.3085 18.2074C29.1853 18.2237 29.0986 18.3367 29.1148 18.4599C29.131 18.5831 29.2441 18.6698 29.3673 18.6536Z" fill="#000088"/>
<path d="M26.1324 23.2261L25.5979 20.6517L25.1295 19.4831L25.3081 20.7294L26.1324 23.2261Z" fill="#000088"/>
</g>
<defs>
<clipPath id="clip0_114_206">
<rect width="50" height="37.5" fill="white" transform="translate(0 0.25)"/>
</clipPath>
</defs>
</svg>
