<svg width="80" height="80" viewBox="0 0 80 80" fill="none" xmlns="http://www.w3.org/2000/svg">
<path d="M66.25 55H73.75V57.5H66.25V55ZM66.25 60H73.75V62.5H66.25V60ZM66.25 65H73.75V67.5H66.25V65ZM6.25 55H13.75V57.5H6.25V55ZM6.25 60H13.75V62.5H6.25V60ZM6.25 65H13.75V67.5H6.25V65ZM70 11.25H65V6.25H57.5V8.75H52.5V16.25H50V18.75H72.5V16.25H70V11.25ZM67.5 13.75V16.25H65V13.75H67.5ZM62.5 8.75V16.25H60V8.75H62.5ZM55 11.25H57.5V16.25H55V11.25ZM50 21.25H55V23.75H50V21.25ZM57.5 21.25H72.5V23.75H57.5V21.25ZM50 26.25H72.5V28.75H50V26.25ZM16.25 6.25H18.75V8.75H16.25V6.25ZM6.25 6.25H8.75V8.75H6.25V6.25ZM11.25 6.25H13.75V8.75H11.25V6.25ZM13.75 16.25H6.25V23.75H13.75V16.25ZM11.25 21.25H8.75V18.75H11.25V21.25ZM16.25 16.25H31.25V18.75H16.25V16.25ZM16.25 21.25H31.25V23.75H16.25V21.25ZM6.25 26.25H8.75V28.75H6.25V26.25ZM11.25 26.25H31.25V28.75H11.25V26.25Z" fill="white"/>
<path d="M62.5 41.25V33.75H75C77.0675 33.75 78.75 32.0675 78.75 30V5C78.75 2.9325 77.0675 1.25 75 1.25H47.5C45.4325 1.25 43.75 2.9325 43.75 5V30C43.75 32.0675 45.4325 33.75 47.5 33.75H60V38.75H46.25V44.1512C44.3675 43.8925 42.275 43.75 40 43.75C37.725 43.75 35.6325 43.8925 33.75 44.1512V38.75H20V33.75H32.5C34.5675 33.75 36.25 32.0675 36.25 30V5C36.25 2.9325 34.5675 1.25 32.5 1.25H5C2.9325 1.25 1.25 2.9325 1.25 5V30C1.25 32.0675 2.9325 33.75 5 33.75H17.5V41.25H31.25V44.595C26.5725 45.6287 23.75 47.5475 23.75 50V60H18.75V53.75C18.75 51.6825 17.0675 50 15 50H5C2.9325 50 1.25 51.6825 1.25 53.75V68.75C1.25 70.8175 2.9325 72.5 5 72.5H15C17.0675 72.5 18.75 70.8175 18.75 68.75V62.5H23.75V72.5C23.75 76.2387 30.28 78.75 40 78.75C49.72 78.75 56.25 76.2387 56.25 72.5V62.5H61.25V68.75C61.25 70.8175 62.9325 72.5 65 72.5H75C77.0675 72.5 78.75 70.8175 78.75 68.75V53.75C78.75 51.6825 77.0675 50 75 50H65C62.9325 50 61.25 51.6825 61.25 53.75V60H56.25V50C56.25 47.5475 53.4275 45.6287 48.75 44.595V41.25H62.5ZM46.25 30V5C46.25 4.31125 46.8112 3.75 47.5 3.75H75C75.6888 3.75 76.25 4.31125 76.25 5V30C76.25 30.6887 75.6888 31.25 75 31.25H47.5C46.8112 31.25 46.25 30.6887 46.25 30ZM5 3.75H32.5C33.1887 3.75 33.75 4.31125 33.75 5V11.25H3.75V5C3.75 4.31125 4.31125 3.75 5 3.75ZM3.75 30V13.75H33.75V30C33.75 30.6887 33.1887 31.25 32.5 31.25H5C4.31125 31.25 3.75 30.6887 3.75 30ZM16.25 68.75C16.25 69.4388 15.6888 70 15 70H5C4.31125 70 3.75 69.4388 3.75 68.75V53.75C3.75 53.0612 4.31125 52.5 5 52.5H15C15.6888 52.5 16.25 53.0612 16.25 53.75V68.75ZM63.75 53.75C63.75 53.0612 64.3112 52.5 65 52.5H75C75.6888 52.5 76.25 53.0612 76.25 53.75V68.75C76.25 69.4388 75.6888 70 75 70H65C64.3112 70 63.75 69.4388 63.75 68.75V53.75ZM40 76.25C30.4025 76.25 26.25 73.7663 26.25 72.5V68.5675C29.0025 70.2475 33.8625 71.25 40 71.25C46.1375 71.25 50.9975 70.2475 53.75 68.5675V72.5C53.75 73.7663 49.5975 76.25 40 76.25ZM40 68.75C30.4025 68.75 26.25 66.2663 26.25 65V61.0675C29.0025 62.7475 33.8625 63.75 40 63.75C46.1375 63.75 50.9975 62.7475 53.75 61.0675V65C53.75 66.2663 49.5975 68.75 40 68.75ZM40 61.25C30.4025 61.25 26.25 58.7663 26.25 57.5V53.5675C29.0025 55.2475 33.8625 56.25 40 56.25C46.1375 56.25 50.9975 55.2475 53.75 53.5675V57.5C53.75 58.7663 49.5975 61.25 40 61.25ZM53.75 50C53.75 51.2663 49.5975 53.75 40 53.75C30.4025 53.75 26.25 51.2663 26.25 50C26.25 49.2225 27.8225 47.9888 31.25 47.15V50H33.75V46.6663C35.5 46.4087 37.575 46.25 40 46.25C42.425 46.25 44.5 46.4087 46.25 46.6663V50H48.75V47.15C52.1775 47.9888 53.75 49.2225 53.75 50Z" fill="white"/>
</svg>
