<svg width="100" height="100" viewBox="0 0 100 100" fill="none" xmlns="http://www.w3.org/2000/svg">
<circle cx="50" cy="50" r="50" fill="white"/>
<circle cx="49.5" cy="50.5" r="42" stroke="#5C5470" stroke-dasharray="3 3"/>
<g clip-path="url(#clip0_97_1652)">
<path d="M42.6232 38.5663C42.4939 38.9642 42.6211 39.3906 42.9472 39.6528L45.8507 41.9865L44.8734 45.5811C44.7637 45.9847 44.9115 46.4045 45.2501 46.6507C45.5888 46.8965 46.0335 46.9073 46.3836 46.6783L49.5002 44.638L52.617 46.6783C52.7795 46.7854 52.9697 46.8426 53.1642 46.843C53.375 46.8426 53.5803 46.7753 53.7503 46.6507C54.0891 46.4047 54.2369 45.9847 54.127 45.5811L53.1497 41.9866L56.053 39.653C56.3794 39.3909 56.5066 38.9644 56.3772 38.5663C56.248 38.1682 55.8943 37.8979 55.4764 37.8777L51.7557 37.6963L50.4335 34.2139C50.285 33.8227 49.9186 33.5698 49.5002 33.5698C49.0817 33.5698 48.7153 33.8226 48.5669 34.2138L47.2446 37.6964L43.5242 37.8777C43.1061 37.8979 42.7524 38.1682 42.6232 38.5663ZM47.5798 39.0878C47.7738 39.0784 47.9609 39.0126 48.118 38.8984C48.2751 38.7843 48.3955 38.6267 48.4644 38.4451L49.5001 35.7174L50.5358 38.4454C50.6048 38.6269 50.7252 38.7843 50.8823 38.8984C51.0394 39.0125 51.2264 39.0784 51.4203 39.0878L54.3345 39.23L52.0602 41.0578C51.9088 41.1795 51.7962 41.3427 51.7362 41.5274C51.6762 41.7121 51.6714 41.9103 51.7224 42.0977L52.4878 44.9132L50.0466 43.3151C49.8841 43.2088 49.694 43.1522 49.4998 43.1522C49.3056 43.1522 49.1156 43.2088 48.9531 43.3152L46.5121 44.9132L47.2775 42.0979C47.3285 41.9105 47.3237 41.7122 47.2637 41.5275C47.2037 41.3427 47.091 41.1795 46.9396 41.0578L44.6654 39.23L47.5798 39.0878ZM48.7969 31.2834V28.7031C48.7969 28.5166 48.871 28.3378 49.0029 28.2059C49.1347 28.0741 49.3136 28 49.5001 28C49.6865 28 49.8654 28.0741 49.9973 28.2059C50.1291 28.3378 50.2032 28.5166 50.2032 28.7031V31.2834C50.2032 31.4699 50.1291 31.6487 49.9973 31.7806C49.8654 31.9125 49.6865 31.9865 49.5001 31.9865C49.3136 31.9865 49.1347 31.9125 49.0029 31.7806C48.871 31.6487 48.7969 31.4699 48.7969 31.2834ZM53.0789 35.4493C52.9541 35.3107 52.8895 35.1282 52.8993 34.942C52.909 34.7558 52.9923 34.581 53.1309 34.4563L56.0063 31.8672C56.0749 31.8054 56.155 31.7577 56.242 31.7269C56.3291 31.6961 56.4213 31.6827 56.5135 31.6875C56.6058 31.6923 56.6961 31.7153 56.7795 31.755C56.8628 31.7948 56.9375 31.8506 56.9993 31.9192C57.0611 31.9878 57.1088 32.0679 57.1396 32.1549C57.1704 32.242 57.1838 32.3342 57.179 32.4265C57.1741 32.5187 57.1512 32.609 57.1114 32.6924C57.0717 32.7757 57.0159 32.8504 56.9473 32.9122L54.0719 35.5013C53.9429 35.6177 53.7753 35.6821 53.6016 35.6819C53.503 35.682 53.4055 35.6614 53.3154 35.6213C53.2254 35.5812 53.1448 35.5226 53.0789 35.4493ZM42.0008 31.9192C42.0626 31.8506 42.1373 31.7948 42.2206 31.755C42.304 31.7153 42.3943 31.6923 42.4866 31.6875C42.5788 31.6827 42.671 31.6961 42.7581 31.7269C42.8451 31.7577 42.9253 31.8054 42.9939 31.8672L45.8693 34.4563C46.0079 34.5811 46.0912 34.7558 46.101 34.942C46.1107 35.1282 46.0461 35.3107 45.9213 35.4493C45.7965 35.5879 45.6218 35.6712 45.4355 35.681C45.2493 35.6907 45.0668 35.6261 44.9283 35.5013L42.0528 32.9122C41.9143 32.7874 41.8309 32.6127 41.8212 32.4265C41.8114 32.2403 41.876 32.0578 42.0008 31.9192ZM58.5206 39.6528L61.4241 41.9865L60.4468 45.5811C60.3372 45.9847 60.4849 46.4045 60.8235 46.6507C61.162 46.8965 61.6067 46.9072 61.957 46.6783L65.0737 44.638L68.1905 46.6783C68.3529 46.7854 68.5431 46.8426 68.7377 46.843C68.9485 46.8426 69.1537 46.7753 69.3237 46.6507C69.6624 46.4049 69.8102 45.9851 69.7004 45.5811L68.7232 41.9866L71.6264 39.653C71.9527 39.391 72.08 38.9644 71.9506 38.5663C71.8213 38.1682 71.4676 37.8979 71.0498 37.8777L67.3291 37.6963L66.007 34.2139C65.8585 33.8227 65.4921 33.5698 65.0737 33.5698C64.6551 33.5698 64.2887 33.8226 64.1403 34.2138L62.8181 37.6963L59.0977 37.8776C58.6795 37.8978 58.3259 38.1682 58.1966 38.5663C58.0672 38.9644 58.1945 39.3909 58.5206 39.6528ZM63.1532 39.0878C63.3472 39.0784 63.5343 39.0126 63.6915 38.8984C63.8486 38.7842 63.9691 38.6266 64.038 38.445L65.0736 35.7173L66.1091 38.4449C66.178 38.6265 66.2984 38.7841 66.4556 38.8983C66.6127 39.0125 66.7998 39.0783 66.9938 39.0878L69.908 39.2299L67.634 41.0576C67.4825 41.1792 67.3698 41.3424 67.3098 41.5272C67.2497 41.7119 67.2449 41.9102 67.2959 42.0977L68.0613 44.9131L65.6201 43.315C65.4576 43.2086 65.2676 43.1519 65.0734 43.152C64.8791 43.152 64.6891 43.2087 64.5266 43.3151L62.0856 44.9131L62.851 42.0978C62.902 41.9104 62.8972 41.7121 62.8371 41.5274C62.7771 41.3426 62.6645 41.1794 62.5131 41.0577L60.2389 39.2299L63.1532 39.0878ZM27.3736 39.6528L30.2771 41.9865L29.2998 45.5811C29.1901 45.9847 29.3379 46.4045 29.6765 46.6507C30.0152 46.8965 30.4599 46.9073 30.8099 46.6783L33.9266 44.638L37.0434 46.6783C37.2059 46.7854 37.3961 46.8426 37.5906 46.843C37.8014 46.8426 38.0066 46.7753 38.1767 46.6507C38.5153 46.4049 38.6632 45.9851 38.5534 45.5811L37.5761 41.9866L40.4794 39.653C40.8055 39.3912 40.9328 38.9647 40.8036 38.5659C40.674 38.168 40.3203 37.8978 39.9028 37.8776L36.1821 37.6962L34.86 34.2139C34.7115 33.8227 34.3451 33.5698 33.9266 33.5698C33.5081 33.5698 33.1417 33.8226 32.9932 34.2138L31.6711 37.6963L27.9507 37.8776C27.5326 37.8978 27.1789 38.1682 27.0497 38.5659C26.9201 38.9641 27.0473 39.3908 27.3736 39.6528ZM32.0061 39.0878C32.2002 39.0784 32.3873 39.0126 32.5444 38.8984C32.7016 38.7842 32.822 38.6266 32.8909 38.445L33.9266 35.7173L34.9621 38.4449C35.031 38.6265 35.1514 38.7841 35.3085 38.8983C35.4657 39.0125 35.6528 39.0783 35.8468 39.0878L38.761 39.2299L36.487 41.0576C36.3355 41.1792 36.2228 41.3424 36.1627 41.5272C36.1027 41.7119 36.0979 41.9102 36.1489 42.0977L36.9143 44.9131L34.4731 43.315C34.3106 43.2086 34.1206 43.1519 33.9263 43.152C33.7321 43.152 33.5421 43.2087 33.3796 43.3151L30.9385 44.9131L31.704 42.0978C31.755 41.9104 31.7501 41.7121 31.6901 41.5274C31.6301 41.3426 31.5175 41.1794 31.366 41.0577L29.0919 39.2299L32.0061 39.0878ZM71.8894 65.3476C71.3947 63.75 70.3814 62.3154 69.036 61.308C68.4008 60.8317 67.6979 60.4529 66.9508 60.1841C67.9765 59.3791 68.6375 58.1293 68.6375 56.7271C68.6375 54.3043 66.6663 52.3333 64.2436 52.3333C61.8208 52.3333 59.8497 54.3043 59.8497 56.7271C59.8497 58.1276 60.5091 59.3762 61.5328 60.1813C60.1608 60.6711 58.9452 61.5315 58.0144 62.691C57.5759 62.0773 57.0726 61.5127 56.5133 61.0068C55.3883 59.9885 54.0548 59.2277 52.6057 58.7775C54.1293 57.7675 55.1365 56.0381 55.1365 54.0772C55.1365 50.9693 52.608 48.4409 49.5002 48.4409C46.3923 48.4409 43.8638 50.9693 43.8638 54.0772C43.8638 56.0381 44.871 57.7675 46.3945 58.7775C44.9454 59.2277 43.6118 59.9885 42.4868 61.0068C41.9275 61.5127 41.4243 62.0773 40.9858 62.6909C40.0551 61.5313 38.8396 60.6709 37.4674 60.1811C38.4911 59.3759 39.1505 58.1273 39.1505 56.7269C39.1505 54.3041 37.1794 52.333 34.7567 52.333C32.3339 52.333 30.3628 54.3041 30.3628 56.7269C30.3628 58.1289 31.0237 59.3788 32.0494 60.1839C31.3022 60.4526 30.5993 60.8314 29.964 61.3077C28.6187 62.315 27.6054 63.7497 27.1106 65.3473C26.882 66.0852 27.0087 66.8341 27.4672 67.4562C27.9256 68.0781 28.6036 68.4205 29.3762 68.4205H39.0963V69.6895C39.0963 71.515 40.5814 73.0001 42.4069 73.0001H56.5933C58.4187 73.0001 59.9039 71.515 59.9039 69.6895V68.4209H69.6239C70.3966 68.4209 71.0746 68.0784 71.5329 67.4566C71.9914 66.8345 72.118 66.0855 71.8894 65.3476ZM64.2436 53.7396C65.891 53.7396 67.2312 55.0798 67.2312 56.7271C67.2312 58.3746 65.891 59.7148 64.2436 59.7148C62.5962 59.7148 61.256 58.3746 61.256 56.7271C61.256 55.0798 62.5962 53.7396 64.2436 53.7396ZM45.2701 54.0772C45.2701 51.7447 47.1677 49.8471 49.5002 49.8471C51.8326 49.8471 53.7302 51.7447 53.7302 54.0772C53.7302 56.4089 51.8338 58.3059 49.5024 58.3071H49.4978C47.1664 58.3058 45.2701 56.4088 45.2701 54.0772ZM34.7567 53.7392C36.404 53.7392 37.7443 55.0795 37.7443 56.7268C37.7443 58.3742 36.404 59.7145 34.7567 59.7145C33.1093 59.7145 31.769 58.3742 31.769 56.7268C31.769 55.0795 33.1093 53.7392 34.7567 53.7392ZM39.1876 67.0142H29.3763C29.0527 67.0142 28.7913 66.8822 28.5992 66.6217C28.4071 66.3612 28.3583 66.0724 28.454 65.7633C29.314 62.9864 31.8469 61.1207 34.7567 61.1207C36.9577 61.1207 38.9628 62.1842 40.196 63.9844C39.706 64.9365 39.3658 65.9584 39.1876 67.0142ZM58.4977 69.6894C58.4976 70.7395 57.6433 71.5938 56.5933 71.5938H42.4069C41.3568 71.5938 40.5025 70.7395 40.5025 69.6894V67.7556C41.0116 63.1687 44.8721 59.7145 49.4978 59.7134L49.5002 59.7135L49.5024 59.7134C54.128 59.7146 57.9885 63.1687 58.4977 67.7556V69.6894ZM70.401 66.6221C70.209 66.8825 69.9477 67.0146 69.6239 67.0146H59.8127C59.6344 65.9587 59.2943 64.9367 58.8043 63.9846C60.0376 62.1844 62.0426 61.1211 64.2435 61.1211C67.1533 61.1211 69.6863 62.9868 70.5462 65.7637C70.6419 66.0726 70.593 66.3614 70.401 66.6221Z" fill="#445069"/>
</g>
<defs>
<clipPath id="clip0_97_1652">
<rect width="45" height="45" fill="white" transform="translate(27 28)"/>
</clipPath>
</defs>
</svg>
