<svg width="80" height="80" viewBox="0 0 80 80" fill="none" xmlns="http://www.w3.org/2000/svg">
<path d="M15.0506 54.121C15.0506 53.8309 15.1659 53.5527 15.371 53.3476C15.5761 53.1424 15.8543 53.0272 16.1444 53.0272H42.5872C42.8773 53.0272 43.1555 53.1424 43.3606 53.3476C43.5657 53.5527 43.6809 53.8309 43.6809 54.121C43.6809 54.411 43.5657 54.6892 43.3606 54.8944C43.1555 55.0995 42.8773 55.2147 42.5872 55.2147H16.1444C15.8543 55.2147 15.5761 55.0995 15.371 54.8944C15.1659 54.6892 15.0506 54.411 15.0506 54.121ZM16.1444 47.106H35.4616C35.7516 47.106 36.0298 46.9907 36.235 46.7856C36.4401 46.5805 36.5553 46.3023 36.5553 46.0122C36.5553 45.7221 36.4401 45.4439 36.235 45.2388C36.0298 45.0337 35.7516 44.9185 35.4616 44.9185H16.1444C15.8543 44.9185 15.5761 45.0337 15.371 45.2388C15.1659 45.4439 15.0506 45.7221 15.0506 46.0122C15.0506 46.3023 15.1659 46.5805 15.371 46.7856C15.5761 46.9907 15.8543 47.106 16.1444 47.106ZM60.9133 63.0821V76.0602C60.9133 77.4574 59.7767 78.5939 58.3795 78.5939H40.947C39.5498 78.5939 38.4133 77.4574 38.4133 76.0602V68.1352C35.5111 68.8094 32.4747 69.1516 29.3658 69.1516C28.077 69.1516 26.7817 69.0913 25.5092 68.9722L12.0002 78.3974C11.8188 78.524 11.6033 78.5927 11.3821 78.5942C11.161 78.5958 10.9445 78.5302 10.7614 78.4061C10.5783 78.2822 10.437 78.1056 10.3562 77.8998C10.2754 77.6939 10.2589 77.4684 10.3089 77.253L13.0209 65.5699C5.72969 61.993 1.40625 56.2477 1.40625 50.0666C1.40625 45.8275 3.38125 41.8206 7.11766 38.4792C10.6923 35.2825 15.5567 32.9757 21.185 31.8081C21.4686 31.7503 21.7635 31.8073 22.0052 31.9665C22.2469 32.1258 22.4156 32.3743 22.4744 32.6577C22.5332 32.9411 22.4773 33.2362 22.3189 33.4784C22.1605 33.7207 21.9125 33.8902 21.6294 33.95C16.4528 35.0238 11.8169 37.2114 8.57594 40.1097C5.31656 43.0246 3.59375 46.4675 3.59375 50.0666C3.59375 55.5921 7.76016 60.7867 14.7389 63.9622C14.9688 64.0668 15.1554 64.2477 15.267 64.4743C15.3787 64.7008 15.4084 64.959 15.3512 65.205L13.0836 74.9739L24.5889 66.9467C24.8044 66.7966 25.0666 66.7289 25.3278 66.7558C26.6693 66.8945 28.0171 66.9639 29.3658 66.9638C32.4858 66.9638 35.5247 66.6003 38.4133 65.885V63.0819C38.4133 61.6847 39.5498 60.5481 40.947 60.5481H49.5445C53.1544 57.5663 55.1378 53.8566 55.1378 50.0664C55.1378 46.0167 52.8939 42.0908 48.8194 39.0119C48.7032 38.9259 48.6052 38.8177 48.531 38.6936C48.4569 38.5695 48.4081 38.432 48.3874 38.2889C48.3668 38.1458 48.3747 38.0001 48.4107 37.8601C48.4468 37.7201 48.5102 37.5886 48.5974 37.4733C48.6845 37.3579 48.7937 37.261 48.9185 37.1881C49.0433 37.1153 49.1814 37.0678 49.3247 37.0486C49.4679 37.0294 49.6136 37.0388 49.7532 37.0763C49.8929 37.1137 50.0237 37.1784 50.1381 37.2667C54.7728 40.7689 57.3253 45.3146 57.3253 50.0664C57.3253 53.8155 55.7214 57.4586 52.758 60.5481H58.3794C59.7766 60.5481 60.9133 61.6849 60.9133 63.0821ZM58.7258 63.0821C58.7258 62.8944 58.5672 62.7358 58.3795 62.7358H40.947C40.7594 62.7358 40.6008 62.8944 40.6008 63.0821V76.0602C40.6008 76.2478 40.7594 76.4064 40.947 76.4064H58.3795C58.5672 76.4064 58.7258 76.2478 58.7258 76.0602V63.0821ZM53.8777 69.571C53.8777 69.763 53.8271 69.9516 53.7311 70.1178C53.6351 70.2841 53.4971 70.4222 53.3308 70.5182L47.0895 74.1214C46.9233 74.2174 46.7347 74.268 46.5427 74.268C46.3507 74.268 46.1621 74.2174 45.9958 74.1214C45.8295 74.0254 45.6914 73.8874 45.5955 73.7211C45.4995 73.5548 45.4489 73.3662 45.4489 73.1742V65.9675C45.4489 65.7755 45.4994 65.5869 45.5954 65.4206C45.6914 65.2543 45.8294 65.1162 45.9957 65.0202C46.162 64.9242 46.3506 64.8737 46.5426 64.8737C46.7347 64.8737 46.9233 64.9243 47.0895 65.0203L53.3308 68.6238C53.497 68.7198 53.6351 68.8578 53.7311 69.0241C53.8271 69.1904 53.8776 69.379 53.8777 69.571ZM50.5964 69.571L47.6364 67.8621V71.2799L50.5964 69.571ZM71.4555 12.838C71.6472 12.838 71.8355 12.7874 72.0014 12.6913L76.2256 10.2525C76.351 10.1812 76.4611 10.0858 76.5494 9.97184C76.6378 9.85784 76.7028 9.72748 76.7406 9.58828C76.7784 9.44908 76.7882 9.30377 76.7697 9.16073C76.7511 9.01769 76.7044 8.87974 76.6322 8.75482C76.5601 8.6299 76.464 8.52048 76.3494 8.43287C76.2348 8.34525 76.104 8.28116 75.9646 8.24429C75.8251 8.20742 75.6798 8.1985 75.5369 8.21804C75.3939 8.23758 75.2563 8.2852 75.1319 8.35815L70.9077 10.7969C70.699 10.9173 70.5359 11.1032 70.4438 11.3258C70.3516 11.5483 70.3355 11.7951 70.3979 12.0278C70.4604 12.2604 70.5979 12.466 70.7891 12.6125C70.9803 12.759 71.2146 12.8382 71.4555 12.838ZM64.4147 7.9033C64.539 7.97522 64.6764 8.02192 64.8188 8.04072C64.9612 8.05952 65.1059 8.05006 65.2447 8.01288C65.3835 7.9757 65.5135 7.91153 65.6275 7.82404C65.7414 7.73655 65.837 7.62745 65.9088 7.50299L68.4814 3.04705C68.5544 2.92262 68.602 2.78498 68.6215 2.64207C68.6411 2.49915 68.6321 2.35378 68.5953 2.21433C68.5584 2.07488 68.4943 1.9441 68.4067 1.82951C68.3191 1.71493 68.2096 1.61881 68.0847 1.54669C67.9598 1.47456 67.8219 1.42786 67.6788 1.40927C67.5358 1.39068 67.3905 1.40056 67.2513 1.43836C67.1121 1.47615 66.9817 1.5411 66.8677 1.62948C66.7537 1.71786 66.6583 1.82791 66.587 1.9533L64.0144 6.40924C63.8693 6.66045 63.83 6.95899 63.9051 7.23918C63.9802 7.51937 64.1635 7.75826 64.4147 7.9033ZM71.2609 19.7611C71.2609 20.0512 71.3762 20.3294 71.5813 20.5345C71.7864 20.7396 72.0646 20.8549 72.3547 20.8549H77.5C77.7901 20.8549 78.0683 20.7396 78.2734 20.5345C78.4785 20.3294 78.5938 20.0512 78.5938 19.7611C78.5938 19.471 78.4785 19.1928 78.2734 18.9877C78.0683 18.7826 77.7901 18.6674 77.5 18.6674H72.3547C72.0646 18.6674 71.7864 18.7826 71.5813 18.9877C71.3762 19.1928 71.2609 19.471 71.2609 19.7611ZM24.9227 31.7646C25.5042 29.5938 26.8897 27.7835 28.8241 26.6667L34.545 23.3638C34.6694 23.2919 34.8067 23.2452 34.9491 23.2265C35.0915 23.2077 35.2363 23.2172 35.375 23.2544C35.4845 23.284 35.5887 23.3304 35.6839 23.3919C41.5633 18.9917 46.1992 13.8977 48.855 8.91174L48.7544 8.73752C47.515 6.59096 48.2531 3.83627 50.3997 2.59674C52.5466 1.35752 55.3011 2.09565 56.5405 4.24205L61.0036 11.9724C63.3742 10.746 66.3241 11.5924 67.6722 13.9277C69.0203 16.2628 68.2784 19.2402 66.0312 20.6805L70.4944 28.4108C71.093 29.4475 71.2509 30.6585 70.9395 31.821C70.628 32.9833 69.8856 33.9531 68.8489 34.5517C68.1704 34.9453 67.4 35.1527 66.6156 35.153C66.2234 35.153 65.8284 35.1013 65.4389 34.9969C64.2766 34.6855 63.3067 33.943 62.7083 32.9064L62.6077 32.7322C57.0114 32.5406 50.3489 33.9814 43.6575 36.8235L51.5547 47.4535C52.3428 48.5144 52.2045 49.9792 51.233 50.8608L49.4956 52.4374C49.2325 52.6757 48.9226 52.8565 48.5856 52.9684C48.2487 53.0802 47.8922 53.1207 47.5387 53.0871C47.1903 53.0533 46.8526 52.9473 46.5474 52.7758C46.2422 52.6042 45.9762 52.3708 45.7663 52.0906L37.5044 41.0353L37.2161 41.2017C35.9305 41.9439 34.5006 42.3232 33.0489 42.3232C32.3065 42.3225 31.5674 42.2245 30.8505 42.0316C28.6797 41.45 26.8694 40.0644 25.7527 38.1302C24.6358 36.1958 24.3411 33.9352 24.9227 31.7646ZM49.7986 48.7578L42.0931 38.3858L39.412 39.9338L47.5186 50.7813C47.5456 50.8179 47.5801 50.8483 47.6198 50.8705C47.6596 50.8926 47.7036 50.906 47.7489 50.9097C47.8081 50.9153 47.9223 50.911 48.0256 50.8172L49.7628 49.2408C49.8994 49.1169 49.9145 48.9138 49.7986 48.7578ZM62.1003 13.8721L64.9345 18.781C66.1377 17.9471 66.5227 16.3116 65.7778 15.0214C65.033 13.7314 63.4241 13.2471 62.1003 13.8721ZM50.6488 7.64377L64.6025 31.8125C64.9089 32.3431 65.4069 32.7236 66.005 32.8838C66.603 33.0438 67.2244 32.9636 67.7552 32.6572C68.2858 32.351 68.6663 31.8528 68.8266 31.2549C68.9867 30.6569 68.9062 30.0353 68.6 29.5047L54.6461 5.33596C54.2192 4.59643 53.4417 4.18252 52.6436 4.18252C52.2523 4.18252 51.8561 4.2819 51.4936 4.49127C50.963 4.79752 50.5825 5.29565 50.4223 5.89362C50.2622 6.49159 50.3425 7.11315 50.6488 7.64377ZM36.8834 25.2264L42.4928 34.9424C49.0531 32.1161 55.6341 30.5794 61.3363 30.5302L50.1263 11.1135C47.2327 16.0271 42.6113 20.9581 36.8834 25.2264ZM27.6469 37.0363C28.4714 38.4646 29.8102 39.4881 31.4164 39.9185C33.0225 40.3489 34.6937 40.1317 36.122 39.3072L40.8958 36.5511L34.6914 25.8049L29.9177 28.561C28.4894 29.3855 27.4659 30.7242 27.0355 32.3305C26.605 33.9367 26.8223 35.6081 27.6469 37.0363ZM7.40672 14.0503C7.40672 10.3872 10.3869 7.4069 14.0502 7.4069C17.7134 7.4069 20.6936 10.3871 20.6936 14.0503C20.6936 17.7135 17.7134 20.6936 14.0502 20.6936C10.3869 20.6936 7.40672 17.7135 7.40672 14.0503ZM9.59422 14.0503C9.59422 16.5074 11.5931 18.5061 14.0502 18.5061C16.5072 18.5061 18.5061 16.5074 18.5061 14.0503C18.5061 11.5933 16.5072 9.5944 14.0502 9.5944C11.5931 9.5944 9.59422 11.5933 9.59422 14.0503ZM1.40625 15.2053V12.8953C1.40625 11.8738 2.23719 11.0428 3.25859 11.0428C4.16328 11.0428 4.52016 10.3513 4.60781 10.1392C4.69563 9.92721 4.9325 9.1858 4.29266 8.54612C4.12007 8.37453 3.98324 8.1704 3.89009 7.94557C3.79694 7.72073 3.74933 7.47964 3.75 7.23627C3.75 6.74143 3.94266 6.27612 4.29266 5.92627L5.92594 4.29284C6.64812 3.57049 7.82344 3.57049 8.54578 4.29284C9.18563 4.93268 9.92703 4.6958 10.1389 4.60799C10.3509 4.52018 11.0425 4.16346 11.0425 3.25877C11.0425 2.23721 11.8734 1.40627 12.8948 1.40627H15.2048C16.2262 1.40627 17.0572 2.23721 17.0572 3.25877C17.0572 4.16346 17.7487 4.52018 17.9608 4.60799C18.1727 4.6958 18.9144 4.93237 19.5539 4.29284C20.2762 3.57049 21.4514 3.57049 22.1737 4.29284L23.8072 5.92627C24.157 6.27612 24.3497 6.74127 24.3497 7.23612C24.3497 7.73096 24.157 8.19627 23.807 8.54612C23.1673 9.1858 23.4042 9.92721 23.492 10.1392C23.5798 10.3511 23.9366 11.0428 24.8412 11.0428C25.8627 11.0428 26.6936 11.8738 26.6936 12.8953V15.2053C26.6936 16.2267 25.8627 17.0577 24.8412 17.0577C23.9366 17.0577 23.5797 17.7492 23.492 17.9613C23.4042 18.1731 23.1673 18.9147 23.8072 19.5544C24.5295 20.2767 24.5295 21.4521 23.8072 22.1742L22.1737 23.8077C21.8241 24.1575 21.3588 24.3503 20.8639 24.3503C20.3691 24.3503 19.9037 24.1577 19.5539 23.8077C18.9142 23.1681 18.173 23.4047 17.9608 23.4927C17.7489 23.5805 17.0572 23.9372 17.0572 24.8421C17.0572 25.8635 16.2262 26.6944 15.2048 26.6944H12.8952C11.8737 26.6944 11.0428 25.8635 11.0428 24.8421C11.0428 23.9353 10.3517 23.5786 10.14 23.491C9.92797 23.4031 9.18719 23.1666 8.54609 23.8078C8.19641 24.1577 7.73109 24.3505 7.23625 24.3505C6.74141 24.3505 6.27594 24.1578 5.92625 23.8078L4.29297 22.1746C4.12038 22.0029 3.98354 21.7988 3.8904 21.5739C3.79725 21.3491 3.74963 21.1079 3.75031 20.8646C3.75031 20.3697 3.94297 19.9044 4.29297 19.5546C4.93266 18.9149 4.69578 18.1735 4.60797 17.9616C4.52016 17.7496 4.16344 17.058 3.25875 17.058C2.23719 17.0577 1.40625 16.2267 1.40625 15.2053ZM3.59375 14.8847C4.95172 15.003 6.09641 15.8383 6.62891 17.1242C7.16156 18.4102 6.94281 19.8103 6.06609 20.8542L7.24625 22.0344C8.29094 21.1567 9.69141 20.9375 10.9769 21.4699C12.2625 22.0024 13.0975 23.1477 13.2156 24.5071H14.8844C15.0027 23.1491 15.838 22.0044 17.1239 21.4717C18.4097 20.9394 19.8098 21.1578 20.8539 22.0344L22.0341 20.8542C21.1573 19.8103 20.9387 18.4102 21.4713 17.1242C22.0039 15.8385 23.1484 15.003 24.5064 14.8847V13.216C23.1484 13.0977 22.0037 12.2624 21.4713 10.9764C20.9387 9.69049 21.1573 8.29049 22.0339 7.24643L20.8538 6.06627C19.8095 6.94284 18.4095 7.16143 17.1238 6.62893C15.838 6.09627 15.0027 4.95174 14.8844 3.59377H13.2156C13.0973 4.95174 12.262 6.09643 10.9762 6.62893C9.69031 7.16159 8.29016 6.94284 7.24625 6.06612L6.06609 7.24627C6.94266 8.29049 7.16141 9.69049 6.62875 10.9763C6.09641 12.2624 4.95172 13.0977 3.59375 13.216V14.8847ZM78.5078 43.9644C78.1217 47.2032 76.5644 50.2842 75.6703 51.8325C74.7763 53.3808 72.8869 56.27 70.2752 58.2238C68.5819 59.4905 66.8767 60.1277 65.2245 60.1277C64.0708 60.1277 62.9427 59.8171 61.8622 59.1931L61.4694 58.9663C60.8222 58.5927 60.3592 57.9885 60.1652 57.2646C59.9713 56.5408 60.0702 55.786 60.4437 55.1389L62.0142 52.4188C62.7866 51.0808 64.5036 50.6208 65.8416 51.3931L66.7628 51.925C67.0239 52.076 67.333 52.0249 67.532 51.7981C68.3909 50.8188 69.182 49.7063 69.8834 48.4914C70.5848 47.2766 71.1528 46.035 71.5714 44.8017C71.6683 44.5161 71.558 44.2228 71.2969 44.0721L70.3756 43.5403C69.7284 43.1667 69.2655 42.5624 69.0714 41.8386C68.8775 41.1149 68.9764 40.3599 69.35 39.7128L70.9205 36.9927C71.6927 35.6549 73.4097 35.1949 74.7478 35.9671L75.1408 36.1939C77.7688 37.7111 78.933 40.398 78.5078 43.9644ZM74.047 38.0883L73.6542 37.8614C73.5131 37.7802 73.3455 37.7582 73.1881 37.8004C73.0308 37.8425 72.8966 37.9453 72.815 38.0863L71.2445 40.8064C71.2042 40.8762 71.1781 40.9534 71.1678 41.0333C71.1575 41.1133 71.1632 41.1945 71.1845 41.2722C71.205 41.3502 71.2407 41.4234 71.2896 41.4875C71.3385 41.5516 71.3997 41.6054 71.4695 41.6457L72.3908 42.1774C73.5631 42.8544 74.0781 44.2225 73.643 45.5046C73.1784 46.8733 72.5509 48.2461 71.778 49.585C71.0052 50.9236 70.1298 52.1535 69.1767 53.2405C68.2839 54.2586 66.8417 54.4964 65.6692 53.8196L64.748 53.2878C64.6068 53.2065 64.4391 53.1845 64.2818 53.2267C64.1244 53.2689 63.9902 53.3717 63.9086 53.5127L62.3381 56.2328C62.2978 56.3026 62.2717 56.3798 62.2614 56.4597C62.2511 56.5397 62.2568 56.6209 62.2781 56.6986C62.2986 56.7766 62.3343 56.8498 62.3832 56.9139C62.4321 56.978 62.4933 57.0318 62.5631 57.0721L62.9559 57.2989C64.8186 58.3742 66.7841 58.1038 68.9648 56.4722C71.3495 54.6883 73.1237 51.8685 73.7761 50.7388C74.4283 49.6092 75.9833 46.6625 76.3358 43.7055C76.6581 41.001 75.9095 39.1636 74.047 38.0883Z" fill="white"/>
</svg>
