<svg width="18" height="18" viewBox="0 0 18 18" fill="none" xmlns="http://www.w3.org/2000/svg">
<path d="M17.4375 1.125V6.1875C17.4375 6.49842 17.1859 6.75 16.875 6.75C16.5641 6.75 16.3125 6.49842 16.3125 6.1875V2.48287L8.27269 10.5227C8.16286 10.6325 8.01886 10.6875 7.875 10.6875C7.73114 10.6875 7.58714 10.6325 7.47731 10.5227C7.42505 10.4705 7.38358 10.4085 7.3553 10.3403C7.32701 10.272 7.31245 10.1989 7.31245 10.125C7.31245 10.0511 7.32701 9.97798 7.3553 9.90975C7.38358 9.84151 7.42505 9.77951 7.47731 9.72731L15.5171 1.6875H11.8125C11.5016 1.6875 11.25 1.43592 11.25 1.125C11.25 0.814078 11.5016 0.5625 11.8125 0.5625H16.875C17.1859 0.5625 17.4375 0.814078 17.4375 1.125ZM15.1875 15.75V9C15.1875 8.68908 14.9359 8.4375 14.625 8.4375C14.3141 8.4375 14.0625 8.68908 14.0625 9V15.75C14.0625 16.0604 13.8104 16.3125 13.5 16.3125H2.25C1.93964 16.3125 1.6875 16.0604 1.6875 15.75V4.5C1.6875 4.18964 1.93964 3.9375 2.25 3.9375H9C9.31092 3.9375 9.5625 3.68592 9.5625 3.375C9.5625 3.06408 9.31092 2.8125 9 2.8125H2.25C1.31948 2.8125 0.5625 3.56948 0.5625 4.5V15.75C0.5625 16.6805 1.31948 17.4375 2.25 17.4375H13.5C14.4305 17.4375 15.1875 16.6805 15.1875 15.75Z" fill="white"/>
</svg>
